SplineFontDB: 3.0
FontName: Economica-Italic
FullName: Economica Italic
FamilyName: Economica
Weight: Book
Copyright: Copyright (c) 2012, Vicente Lamonaca (produccion.taller@gmail.com www.tipografia-montevideo.info www.tipotype.com)
Version: 1.100
ItalicAngle: 0
UnderlinePosition: -25
UnderlineWidth: 24
Ascent: 800
Descent: 200
sfntRevision: 0x00011999
LayerCount: 2
Layer: 0 1 "Back"  1
Layer: 1 1 "Fore"  0
XUID: [1021 289 982399340 12285491]
FSType: 0
OS2Version: 2
OS2_WeightWidthSlopeOnly: 0
OS2_UseTypoMetrics: 1
CreationTime: 1330105210
ModificationTime: 1330123051
PfmFamily: 17
TTFWeight: 400
TTFWidth: 5
LineGap: 0
VLineGap: 0
Panose: 2 0 5 6 4 0 0 9 0 4
OS2TypoAscent: 149
OS2TypoAOffset: 1
OS2TypoDescent: 0
OS2TypoDOffset: 1
OS2TypoLinegap: 0
OS2WinAscent: 22
OS2WinAOffset: 1
OS2WinDescent: 0
OS2WinDOffset: 1
HheadAscent: 22
HheadAOffset: 1
HheadDescent: 0
HheadDOffset: 1
OS2SubXSize: 700
OS2SubYSize: 650
OS2SubXOff: 0
OS2SubYOff: 140
OS2SupXSize: 700
OS2SupYSize: 650
OS2SupXOff: 0
OS2SupYOff: 477
OS2StrikeYSize: 50
OS2StrikeYPos: 250
OS2FamilyClass: 2050
OS2CodePages: 20000001.00000000
OS2UnicodeRanges: 800000af.4000204a.00000000.00000000
Lookup: 4 0 1 "'liga' Standard Ligatures in Latin lookup 0"  {"'liga' Standard Ligatures in Latin lookup 0 subtable"  } ['liga' ('latn' <'dflt' > ) ]
Lookup: 258 0 0 "'kern' Horizontal Kerning in Latin lookup 0"  {"'kern' Horizontal Kerning in Latin lookup 0 subtable"  } ['kern' ('latn' <'dflt' > ) ]
DEI: 91125
TtTable: prep
PUSHW_1
 511
SCANCTRL
PUSHB_1
 4
SCANTYPE
EndTTInstrs
ShortTable: maxp 16
  1
  0
  257
  78
  5
  77
  4
  2
  0
  1
  1
  0
  64
  0
  2
  1
EndShort

StartChar: exclam
Encoding: 33 33 4
Width: 161
GlyphClass: 2
Flags: W
LayerCount: 2
Fore
SplineSet
122 83 m 128,-1,1
 133 72 133 72 133 53 c 128,-1,2
 133 34 133 34 117 19 c 128,-1,3
 101 4 101 4 82 4 c 128,-1,4
 63 4 63 4 51.5 14.5 c 128,-1,5
 40 25 40 25 40 43 c 128,-1,6
 40 61 40 61 56.5 77.5 c 128,-1,7
 73 94 73 94 92 94 c 128,-1,0
 111 94 111 94 122 83 c 128,-1,1
124 186 m 1,8,-1
 93 188 l 1,9,-1
 178 680 l 2,10,11
 182 706 182 706 190.5 714.5 c 128,-1,12
 199 723 199 723 220 723 c 1,13,-1
 255 721 l 1,14,-1
 159 230 l 2,15,16
 153 201 153 201 148 193.5 c 128,-1,17
 143 186 143 186 124 186 c 1,8,-1
EndSplineSet
EndChar

StartChar: quotedbl
Encoding: 34 34 5
Width: 332
GlyphClass: 2
Flags: W
LayerCount: 2
Fore
SplineSet
169 636 m 0,0,1
 169 654 169 654 163.5 669 c 128,-1,2
 158 684 158 684 158 686 c 0,3,4
 158 704 158 704 175.5 718 c 128,-1,5
 193 732 193 732 210.5 732 c 128,-1,6
 228 732 228 732 239 721 c 128,-1,7
 250 710 250 710 250 694.5 c 128,-1,8
 250 679 250 679 231.5 632.5 c 128,-1,9
 213 586 213 586 194.5 545.5 c 128,-1,10
 176 505 176 505 175 505 c 2,11,-1
 140 530 l 1,12,13
 169 594 169 594 169 636 c 0,0,1
313 636 m 0,14,15
 313 654 313 654 307.5 669 c 128,-1,16
 302 684 302 684 302 686 c 0,17,18
 302 704 302 704 319.5 718 c 128,-1,19
 337 732 337 732 354.5 732 c 128,-1,20
 372 732 372 732 383 721 c 128,-1,21
 394 710 394 710 394 694.5 c 128,-1,22
 394 679 394 679 375.5 632.5 c 128,-1,23
 357 586 357 586 338.5 545.5 c 128,-1,24
 320 505 320 505 319 505 c 2,25,-1
 284 530 l 1,26,27
 313 594 313 594 313 636 c 0,14,15
EndSplineSet
EndChar

StartChar: numbersign
Encoding: 35 35 6
Width: 655
GlyphClass: 2
Flags: W
LayerCount: 2
Fore
SplineSet
628 239 m 1,0,-1
 454 239 l 1,1,-1
 321 0 l 1,2,-1
 253 0 l 1,3,-1
 386 239 l 1,4,-1
 241 239 l 1,5,-1
 108 0 l 1,6,-1
 40 0 l 1,7,-1
 173 239 l 1,8,-1
 59 239 l 1,9,-1
 69 302 l 1,10,-1
 208 302 l 1,11,-1
 288 444 l 1,12,-1
 135 444 l 1,13,-1
 145 507 l 1,14,-1
 324 507 l 1,15,-1
 449 732 l 1,16,-1
 517 732 l 1,17,-1
 392 507 l 1,18,-1
 537 507 l 1,19,-1
 662 732 l 1,20,-1
 730 732 l 1,21,-1
 605 507 l 1,22,-1
 714 507 l 1,23,-1
 704 444 l 1,24,-1
 569 444 l 1,25,-1
 489 302 l 1,26,-1
 638 302 l 1,27,-1
 628 239 l 1,0,-1
421 302 m 1,28,-1
 501 444 l 1,29,-1
 356 444 l 1,30,-1
 276 302 l 1,31,-1
 421 302 l 1,28,-1
EndSplineSet
EndChar

StartChar: dollar
Encoding: 36 36 7
Width: 392
GlyphClass: 2
Flags: W
LayerCount: 2
Fore
SplineSet
83 56 m 1,0,1
 163 46 163 46 192 46 c 128,-1,2
 221 46 221 46 236.5 53 c 128,-1,3
 252 60 252 60 260 76 c 0,4,5
 273 101 273 101 277 128.5 c 128,-1,6
 281 156 281 156 282 160 c 1,7,-1
 282 166 l 2,8,9
 282 201 282 201 204 264 c 0,10,11
 175 288 175 288 150.5 322 c 128,-1,12
 126 356 126 356 126 389 c 0,13,14
 126 533 126 533 259 543 c 1,15,-1
 273 631 l 1,16,17
 302 631 302 631 309.5 628.5 c 128,-1,18
 317 626 317 626 317 613 c 1,19,-1
 314 585 l 1,20,-1
 308 537 l 1,21,-1
 370 528 l 1,22,23
 362 483 362 483 328 483 c 0,24,25
 323 483 323 483 313 485 c 2,26,-1
 279 491 l 1,27,28
 225 491 225 491 205.5 466.5 c 128,-1,29
 186 442 186 442 186 401 c 0,30,31
 186 379 186 379 211.5 351 c 128,-1,32
 237 323 237 323 268 299.5 c 128,-1,33
 299 276 299 276 324.5 243.5 c 128,-1,34
 350 211 350 211 350 180 c 0,35,36
 350 169 350 169 344 138 c 128,-1,37
 338 107 338 107 329 81 c 128,-1,38
 320 55 320 55 308 41 c 0,39,40
 277 5 277 5 226 -4 c 1,41,-1
 206 -121 l 1,42,43
 178 -121 178 -121 170 -118.5 c 128,-1,44
 162 -116 162 -116 162 -108.5 c 128,-1,45
 162 -101 162 -101 166 -75 c 2,46,-1
 175 -7 l 1,47,48
 164 -6 164 -6 76 10 c 1,49,-1
 83 56 l 1,0,1
EndSplineSet
EndChar

StartChar: percent
Encoding: 37 37 8
Width: 611
GlyphClass: 2
Flags: W
LayerCount: 2
Fore
SplineSet
207 415 m 0,0,1
 167 415 167 415 149 432.5 c 128,-1,2
 131 450 131 450 131 498 c 0,3,4
 131 604 131 604 163 670 c 128,-1,5
 195 736 195 736 258 736 c 0,6,7
 301 736 301 736 319 721.5 c 128,-1,8
 337 707 337 707 337 661 c 0,9,10
 337 556 337 556 302.5 485.5 c 128,-1,11
 268 415 268 415 207 415 c 0,0,1
177 515 m 0,12,13
 177 463 177 463 215 463 c 0,14,15
 237 463 237 463 253 483.5 c 128,-1,16
 269 504 269 504 276 536 c 0,17,18
 289 595 289 595 289 634.5 c 128,-1,19
 289 674 289 674 280 681 c 128,-1,20
 271 688 271 688 251 688 c 128,-1,21
 231 688 231 688 222 684 c 0,22,23
 198 672 198 672 184 580 c 1,24,25
 177 541 177 541 177 515 c 0,12,13
436 -7 m 0,26,27
 396 -7 396 -7 378 10.5 c 128,-1,28
 360 28 360 28 360 76 c 0,29,30
 360 182 360 182 392 248 c 128,-1,31
 424 314 424 314 487 314 c 0,32,33
 530 314 530 314 548 299.5 c 128,-1,34
 566 285 566 285 566 239 c 0,35,36
 566 134 566 134 531.5 63.5 c 128,-1,37
 497 -7 497 -7 436 -7 c 0,26,27
416 50.5 m 128,-1,39
 425 41 425 41 446 41 c 128,-1,40
 467 41 467 41 483 61 c 128,-1,41
 499 81 499 81 506 113 c 0,42,43
 518 168 518 168 518 210 c 128,-1,44
 518 252 518 252 509.5 259 c 128,-1,45
 501 266 501 266 480 266 c 0,46,47
 448 266 448 266 427.5 212 c 128,-1,48
 407 158 407 158 407 89 c 0,49,38
 407 60 407 60 416 50.5 c 128,-1,39
182 0 m 1,50,-1
 114 0 l 1,51,-1
 523 732 l 1,52,-1
 591 732 l 1,53,-1
 182 0 l 1,50,-1
EndSplineSet
EndChar

StartChar: ampersand
Encoding: 38 38 9
Width: 536
GlyphClass: 2
Flags: W
LayerCount: 2
Fore
SplineSet
436 420 m 1,0,-1
 436 445 l 1,1,-1
 443 489 l 1,2,3
 496 489 496 489 500 480 c 0,4,5
 502 475 502 475 502 469 c 128,-1,6
 502 463 502 463 500 443 c 1,7,-1
 492 420 l 1,8,-1
 573 420 l 1,9,10
 568 384 568 384 559 375 c 128,-1,11
 550 366 550 366 514 366 c 2,12,-1
 484 366 l 1,13,-1
 484 341 l 1,14,-1
 462 207 l 2,15,16
 444 99 444 99 390.5 46 c 128,-1,17
 337 -7 337 -7 244.5 -7 c 128,-1,18
 152 -7 152 -7 113 30 c 128,-1,19
 74 67 74 67 74 148 c 128,-1,20
 74 229 74 229 109 295 c 128,-1,21
 144 361 144 361 196 397 c 1,22,23
 178 412 178 412 170.5 420 c 128,-1,24
 163 428 163 428 155 446.5 c 128,-1,25
 147 465 147 465 147 508 c 128,-1,26
 147 551 147 551 164 595 c 128,-1,27
 181 639 181 639 208 661 c 0,28,29
 258 701 258 701 320 701 c 1,30,-1
 438 692 l 1,31,-1
 435 677 l 2,32,33
 434 672 434 672 433.5 666.5 c 128,-1,34
 433 661 433 661 430 658.5 c 128,-1,35
 427 656 427 656 426 654 c 128,-1,36
 425 652 425 652 419 651 c 128,-1,37
 413 650 413 650 410.5 649 c 128,-1,38
 408 648 408 648 397.5 647 c 128,-1,39
 387 646 387 646 381 645 c 1,40,-1
 311 645 l 2,41,42
 210 645 210 645 210 485 c 0,43,44
 210 445 210 445 228 435 c 128,-1,45
 246 425 246 425 290 425 c 1,46,-1
 280 366 l 1,47,48
 224 366 224 366 181.5 309 c 128,-1,49
 139 252 139 252 139 158 c 0,50,51
 139 49 139 49 246 49 c 0,52,53
 372 49 372 49 398 207 c 2,54,-1
 420 341 l 1,55,-1
 427 366 l 1,56,-1
 374 366 l 1,57,-1
 383 420 l 1,58,-1
 436 420 l 1,0,-1
EndSplineSet
EndChar

StartChar: quotesingle
Encoding: 39 39 10
Width: 165
GlyphClass: 2
Flags: W
LayerCount: 2
Fore
SplineSet
161 675 m 0,0,1
 161 699 161 699 176 715.5 c 128,-1,2
 191 732 191 732 211 732 c 128,-1,3
 231 732 231 732 242 721 c 128,-1,4
 253 710 253 710 253 694 c 128,-1,5
 253 678 253 678 228 631.5 c 128,-1,6
 203 585 203 585 178 545 c 128,-1,7
 153 505 153 505 150 505 c 1,8,-1
 115 530 l 1,9,10
 161 631 161 631 161 675 c 0,0,1
EndSplineSet
EndChar

StartChar: parenleft
Encoding: 40 40 11
Width: 248
GlyphClass: 2
Flags: W
LayerCount: 2
Fore
SplineSet
98.5 -75.5 m 128,-1,1
 64 -41 64 -41 64 40.5 c 128,-1,2
 64 122 64 122 77 236 c 128,-1,3
 90 350 90 350 117 478 c 128,-1,4
 144 606 144 606 196 693.5 c 128,-1,5
 248 781 248 781 314 781 c 0,6,7
 335 781 335 781 359 772 c 1,8,9
 353 737 353 737 345.5 731 c 128,-1,10
 338 725 338 725 301 725 c 0,11,12
 255 725 255 725 211.5 574.5 c 128,-1,13
 168 424 168 424 146 264 c 128,-1,14
 124 104 124 104 124 42 c 128,-1,15
 124 -20 124 -20 136.5 -41.5 c 128,-1,16
 149 -63 149 -63 178.5 -63 c 128,-1,17
 208 -63 208 -63 216.5 -66 c 128,-1,18
 225 -69 225 -69 225 -76.5 c 128,-1,19
 225 -84 225 -84 221 -110 c 1,20,0
 133 -110 133 -110 98.5 -75.5 c 128,-1,1
EndSplineSet
EndChar

StartChar: parenright
Encoding: 41 41 12
Width: 249
GlyphClass: 2
Flags: W
LayerCount: 2
Fore
SplineSet
61 -63 m 0,0,1
 107 -63 107 -63 148.5 87.5 c 128,-1,2
 190 238 190 238 209.5 396 c 128,-1,3
 229 554 229 554 229 617 c 128,-1,4
 229 680 229 680 216.5 702.5 c 128,-1,5
 204 725 204 725 175 725 c 128,-1,6
 146 725 146 725 137.5 727.5 c 128,-1,7
 129 730 129 730 129 738 c 128,-1,8
 129 746 129 746 133 772 c 1,9,10
 220 772 220 772 254 735.5 c 128,-1,11
 288 699 288 699 288 625.5 c 128,-1,12
 288 552 288 552 282 468.5 c 128,-1,13
 276 385 276 385 259 279 c 128,-1,14
 242 173 242 173 216.5 86.5 c 128,-1,15
 191 0 191 0 147.5 -60 c 128,-1,16
 104 -120 104 -120 50 -120 c 0,17,18
 27 -120 27 -120 4 -110 c 1,19,20
 9 -75 9 -75 16.5 -69 c 128,-1,21
 24 -63 24 -63 61 -63 c 0,0,1
EndSplineSet
EndChar

StartChar: asterisk
Encoding: 42 42 13
Width: 302
GlyphClass: 2
Flags: W
LayerCount: 2
Fore
SplineSet
316 520 m 1,0,-1
 267 495 l 1,1,-1
 239 573 l 1,2,-1
 189 497 l 1,3,-1
 149 522 l 1,4,-1
 207 587 l 1,5,-1
 121 587 l 1,6,-1
 130 633 l 1,7,-1
 216 633 l 1,8,-1
 178 706 l 1,9,-1
 226 732 l 1,10,-1
 254 654 l 1,11,-1
 304 731 l 1,12,-1
 344 705 l 1,13,-1
 286 638 l 1,14,-1
 371 638 l 1,15,-1
 363 592 l 1,16,-1
 276 592 l 1,17,-1
 316 520 l 1,0,-1
EndSplineSet
EndChar

StartChar: plus
Encoding: 43 43 14
Width: 243
GlyphClass: 2
Flags: W
LayerCount: 2
Fore
SplineSet
190 300 m 1,0,-1
 190 275 l 1,1,-1
 177 208 l 1,2,-1
 126 208 l 1,3,-1
 139 275 l 1,4,-1
 147 300 l 1,5,-1
 62 300 l 1,6,-1
 70 351 l 1,7,-1
 155 351 l 1,8,-1
 155 376 l 1,9,-1
 168 442 l 1,10,-1
 219 442 l 1,11,-1
 206 376 l 1,12,-1
 198 351 l 1,13,-1
 284 351 l 1,14,-1
 276 300 l 1,15,-1
 190 300 l 1,0,-1
EndSplineSet
EndChar

StartChar: comma
Encoding: 44 44 15
Width: 154
GlyphClass: 2
Flags: W
LayerCount: 2
Fore
SplineSet
54 43 m 0,0,1
 54 62 54 62 71 76.5 c 128,-1,2
 88 91 88 91 107 91 c 0,3,4
 142 91 142 91 142 60 c 0,5,6
 142 40 142 40 97 -37 c 128,-1,7
 52 -114 52 -114 46 -114 c 1,8,-1
 16 -96 l 1,9,10
 46 -45 46 -45 50 -27 c 128,-1,11
 54 -9 54 -9 54.5 -3.5 c 128,-1,12
 55 2 55 2 54.5 19.5 c 128,-1,13
 54 37 54 37 54 43 c 0,0,1
EndSplineSet
EndChar

StartChar: hyphen
Encoding: 45 45 16
Width: 336
GlyphClass: 2
Flags: W
LayerCount: 2
Fore
SplineSet
321 300 m 1,0,-1
 107 300 l 1,1,-1
 115 351 l 1,2,-1
 329 351 l 1,3,-1
 321 300 l 1,0,-1
EndSplineSet
EndChar

StartChar: period
Encoding: 46 46 17
Width: 177
GlyphClass: 2
Flags: W
LayerCount: 2
Fore
SplineSet
125.5 16 m 128,-1,1
 109 0 109 0 90.5 0 c 128,-1,2
 72 0 72 0 60.5 11 c 128,-1,3
 49 22 49 22 49 40.5 c 128,-1,4
 49 59 49 59 65.5 75 c 128,-1,5
 82 91 82 91 101 91 c 128,-1,6
 120 91 120 91 131 80.5 c 128,-1,7
 142 70 142 70 142 51 c 128,-1,0
 142 32 142 32 125.5 16 c 128,-1,1
EndSplineSet
EndChar

StartChar: slash
Encoding: 47 47 18
Width: 372
GlyphClass: 2
Flags: W
LayerCount: 2
Fore
SplineSet
41 -200 m 1,0,-1
 -22 -200 l 1,1,-1
 418 732 l 1,2,-1
 482 732 l 1,3,-1
 41 -200 l 1,0,-1
EndSplineSet
EndChar

StartChar: zero
Encoding: 48 48 19
Width: 410
GlyphClass: 2
Flags: W
LayerCount: 2
Fore
SplineSet
285 57.5 m 128,-1,1
 237 -7 237 -7 174.5 -7 c 128,-1,2
 112 -7 112 -7 86 24.5 c 128,-1,3
 60 56 60 56 60 134 c 128,-1,4
 60 212 60 212 72.5 310 c 128,-1,5
 85 408 85 408 110 506 c 128,-1,6
 135 604 135 604 183 668 c 128,-1,7
 231 732 231 732 294 732 c 128,-1,8
 357 732 357 732 383 701.5 c 128,-1,9
 409 671 409 671 409 593.5 c 128,-1,10
 409 516 409 516 396.5 417.5 c 128,-1,11
 384 319 384 319 358.5 220.5 c 128,-1,0
 333 122 333 122 285 57.5 c 128,-1,1
187 59 m 0,12,13
 233 59 233 59 271 162.5 c 128,-1,14
 309 266 309 266 326 382 c 128,-1,15
 343 498 343 498 343 560.5 c 128,-1,16
 343 623 343 623 329 645 c 128,-1,17
 315 667 315 667 283 667 c 0,18,19
 235 667 235 667 197 564 c 128,-1,20
 159 461 159 461 142.5 346 c 128,-1,21
 126 231 126 231 126 167.5 c 128,-1,22
 126 104 126 104 140 81.5 c 128,-1,23
 154 59 154 59 187 59 c 0,12,13
EndSplineSet
EndChar

StartChar: one
Encoding: 49 49 20
Width: 410
GlyphClass: 2
Flags: W
LayerCount: 2
Fore
SplineSet
273 720 m 2,0,1
 320 720 320 720 324 712 c 0,2,3
 326 708 326 708 326 700 c 128,-1,4
 326 692 326 692 323 674 c 2,5,-1
 226 57 l 1,6,-1
 293 57 l 2,7,8
 327 57 327 57 337 53.5 c 128,-1,9
 347 50 347 50 347 39 c 128,-1,10
 347 28 347 28 343 0 c 1,11,-1
 60 0 l 1,12,-1
 69 57 l 1,13,-1
 162 57 l 1,14,-1
 259 667 l 1,15,-1
 195 657 l 1,16,-1
 203 710 l 1,17,-1
 268 720 l 1,18,-1
 273 720 l 2,0,1
EndSplineSet
EndChar

StartChar: two
Encoding: 50 50 21
Width: 410
GlyphClass: 2
Flags: W
LayerCount: 2
Fore
SplineSet
359 616 m 0,0,1
 359 645 359 645 338.5 660 c 128,-1,2
 318 675 318 675 264 675 c 2,3,-1
 214 675 l 2,4,5
 184 675 184 675 176 677.5 c 128,-1,6
 168 680 168 680 168 688 c 128,-1,7
 168 696 168 696 172 722 c 1,8,-1
 279 732 l 1,9,10
 366 732 366 732 398.5 710 c 128,-1,11
 431 688 431 688 431 641 c 0,12,13
 431 616 431 616 422.5 566 c 128,-1,14
 414 516 414 516 373.5 464 c 128,-1,15
 333 412 333 412 288 375 c 0,16,17
 170 276 170 276 161 221 c 2,18,-1
 138 82 l 1,19,-1
 131 57 l 1,20,-1
 342 57 l 1,21,-1
 333 0 l 1,22,-1
 60 0 l 1,23,-1
 96 229 l 2,24,25
 107 300 107 300 191 377 c 0,26,27
 226 409 226 409 261 440 c 0,28,29
 345 515 345 515 354 573 c 1,30,31
 359 613 359 613 359 616 c 0,0,1
EndSplineSet
EndChar

StartChar: three
Encoding: 51 51 22
Width: 410
GlyphClass: 2
Flags: W
LayerCount: 2
Fore
SplineSet
68 59 m 1,0,1
 138 49 138 49 170 49 c 0,2,3
 229 49 229 49 246.5 82 c 128,-1,4
 264 115 264 115 282 232 c 128,-1,5
 300 349 300 349 300 378 c 128,-1,6
 300 407 300 407 285 419 c 128,-1,7
 270 431 270 431 231 431 c 2,8,-1
 182 431 l 1,9,-1
 317 667 l 1,10,-1
 165 667 l 1,11,-1
 174 720 l 1,12,-1
 413 720 l 1,13,-1
 278 483 l 1,14,15
 327 479 327 479 346.5 460 c 128,-1,16
 366 441 366 441 366 403 c 128,-1,17
 366 365 366 365 346 235.5 c 128,-1,18
 326 106 326 106 310 67 c 0,19,20
 288 14 288 14 238 0 c 0,21,22
 211 -7 211 -7 180.5 -7 c 128,-1,23
 150 -7 150 -7 132.5 -4.5 c 128,-1,24
 115 -2 115 -2 93 3 c 128,-1,25
 71 8 71 8 60 10 c 1,26,-1
 68 59 l 1,0,1
EndSplineSet
EndChar

StartChar: four
Encoding: 52 52 23
Width: 410
GlyphClass: 2
Flags: W
LayerCount: 2
Fore
SplineSet
243 0 m 2,0,1
 195 0 195 0 191 8 c 0,2,3
 189 12 189 12 189 20 c 128,-1,4
 189 28 189 28 192 46 c 2,5,-1
 220 223 l 1,6,-1
 228 248 l 1,7,-1
 10 248 l 1,8,-1
 285 720 l 1,9,-1
 359 720 l 1,10,-1
 296 325 l 1,11,-1
 288 300 l 1,12,-1
 332 300 l 1,13,-1
 324 248 l 1,14,-1
 280 248 l 1,15,-1
 280 223 l 1,16,-1
 245 0 l 1,17,-1
 243 0 l 2,0,1
236 300 m 1,18,-1
 236 325 l 1,19,-1
 283 620 l 1,20,-1
 275 620 l 1,21,-1
 110 300 l 1,22,-1
 236 300 l 1,18,-1
EndSplineSet
EndChar

StartChar: five
Encoding: 53 53 24
Width: 410
GlyphClass: 2
Flags: W
LayerCount: 2
Fore
SplineSet
171 46 m 2,0,1
 205 46 205 46 231.5 78 c 128,-1,2
 258 110 258 110 272 161 c 0,3,4
 301 261 301 261 301 372 c 0,5,6
 301 407 301 407 286 419 c 128,-1,7
 271 431 271 431 232 431 c 2,8,-1
 129 431 l 1,9,-1
 175 720 l 1,10,-1
 414 720 l 1,11,-1
 405 667 l 1,12,-1
 225 667 l 1,13,-1
 225 642 l 1,14,-1
 204 509 l 1,15,-1
 196 484 l 1,16,-1
 272 484 l 2,17,18
 325 484 325 484 345.5 464 c 128,-1,19
 366 444 366 444 366 392 c 128,-1,20
 366 340 366 340 359 277.5 c 128,-1,21
 352 215 352 215 336 146 c 128,-1,22
 320 77 320 77 287 32.5 c 128,-1,23
 254 -12 254 -12 213.5 -12 c 128,-1,24
 173 -12 173 -12 60 0 c 1,25,-1
 67 46 l 1,26,-1
 171 46 l 2,0,1
EndSplineSet
EndChar

StartChar: six
Encoding: 54 54 25
Width: 410
GlyphClass: 2
Flags: W
LayerCount: 2
Fore
SplineSet
134 237 m 128,-1,1
 127 200 127 200 125.5 177 c 128,-1,2
 124 154 124 154 124 139.5 c 128,-1,3
 124 125 124 125 126 104.5 c 128,-1,4
 128 84 128 84 140 68.5 c 128,-1,5
 152 53 152 53 180 53 c 128,-1,6
 208 53 208 53 234.5 85 c 128,-1,7
 261 117 261 117 276 168 c 0,8,9
 304 267 304 267 304 379 c 0,10,11
 304 414 304 414 289 426 c 128,-1,12
 274 438 274 438 235 438 c 1,13,-1
 168 415 l 1,14,15
 167 399 167 399 160.5 368.5 c 128,-1,16
 154 338 154 338 147.5 306 c 128,-1,0
 141 274 141 274 134 237 c 128,-1,1
369 400 m 0,17,18
 369 0 369 0 166 0 c 0,19,20
 114 0 114 0 92 26 c 0,21,22
 66 57 66 57 63 87.5 c 128,-1,23
 60 118 60 118 60 134 c 128,-1,24
 60 150 60 150 63.5 175 c 128,-1,25
 67 200 67 200 70 217 c 128,-1,26
 73 234 73 234 77.5 260 c 128,-1,27
 82 286 82 286 89 328.5 c 128,-1,28
 96 371 96 371 104 415 c 128,-1,29
 112 459 112 459 125 516.5 c 128,-1,30
 138 574 138 574 152 607 c 128,-1,31
 166 640 166 640 186 672 c 0,32,33
 225 732 225 732 293 732 c 1,34,-1
 412 722 l 1,35,36
 407 687 407 687 399 681 c 128,-1,37
 391 675 391 675 354 675 c 2,38,-1
 284 675 l 2,39,40
 248 675 248 675 229.5 633.5 c 128,-1,41
 211 592 211 592 180 466 c 1,42,-1
 243 491 l 1,43,44
 315 491 315 491 342 472 c 128,-1,45
 369 453 369 453 369 400 c 0,17,18
EndSplineSet
EndChar

StartChar: seven
Encoding: 55 55 26
Width: 410
GlyphClass: 2
Flags: W
LayerCount: 2
Fore
SplineSet
154 0 m 1,0,-1
 90 0 l 1,1,-1
 392 667 l 1,2,-1
 185 667 l 1,3,-1
 194 720 l 1,4,-1
 470 720 l 1,5,-1
 461 667 l 1,6,-1
 154 0 l 1,0,-1
EndSplineSet
EndChar

StartChar: eight
Encoding: 56 56 27
Width: 410
GlyphClass: 2
Flags: W
LayerCount: 2
Fore
SplineSet
136 510 m 0,0,1
 136 632 136 632 205 701 c 0,2,3
 244 740 244 740 301 740 c 0,4,5
 408 740 408 740 408 616 c 0,6,7
 408 535 408 535 379 474.5 c 128,-1,8
 350 414 350 414 311 388 c 1,9,10
 370 338 370 338 370 250 c 0,11,12
 370 117 370 117 288 37 c 0,13,14
 243 -7 243 -7 183 -7 c 128,-1,15
 123 -7 123 -7 91.5 31 c 128,-1,16
 60 69 60 69 60 149.5 c 128,-1,17
 60 230 60 230 94.5 296 c 128,-1,18
 129 362 129 362 181 397 c 1,19,20
 136 433 136 433 136 510 c 0,0,1
191 49 m 0,21,22
 239 49 239 49 273 104.5 c 128,-1,23
 307 160 307 160 307 255 c 0,24,25
 307 307 307 307 288 336.5 c 128,-1,26
 269 366 269 366 241 366 c 0,27,28
 198 366 198 366 160.5 305 c 128,-1,29
 123 244 123 244 123 146.5 c 128,-1,30
 123 49 123 49 191 49 c 0,21,22
211 441.5 m 128,-1,32
 224 425 224 425 251.5 425 c 128,-1,33
 279 425 279 425 299 445 c 128,-1,34
 319 465 319 465 328 498 c 0,35,36
 345 559 345 559 345 607 c 128,-1,37
 345 655 345 655 332 669.5 c 128,-1,38
 319 684 319 684 291 684 c 128,-1,39
 263 684 263 684 243 665 c 128,-1,40
 223 646 223 646 214 614 c 0,41,42
 198 558 198 558 198 508 c 128,-1,31
 198 458 198 458 211 441.5 c 128,-1,32
EndSplineSet
EndChar

StartChar: nine
Encoding: 57 57 28
Width: 410
GlyphClass: 2
Flags: W
LayerCount: 2
Fore
SplineSet
346.5 499.5 m 128,-1,1
 360 593 360 593 360 624.5 c 128,-1,2
 360 656 360 656 348.5 667.5 c 128,-1,3
 337 679 337 679 305.5 679 c 128,-1,4
 274 679 274 679 247.5 647 c 128,-1,5
 221 615 221 615 206 564 c 0,6,7
 178 465 178 465 178 353 c 0,8,9
 178 318 178 318 192.5 306 c 128,-1,10
 207 294 207 294 247 294 c 1,11,-1
 316 326 l 1,12,0
 333 406 333 406 346.5 499.5 c 128,-1,1
188 57 m 2,13,14
 222 57 222 57 249 108.5 c 128,-1,15
 276 160 276 160 304 275 c 1,16,-1
 239 241 l 1,17,18
 166 241 166 241 139.5 260 c 128,-1,19
 113 279 113 279 113 331 c 0,20,21
 113 732 113 732 316 732 c 0,22,23
 376 732 376 732 399 712 c 128,-1,24
 422 692 422 692 422 642.5 c 128,-1,25
 422 593 422 593 405 481 c 128,-1,26
 388 369 388 369 381.5 333 c 128,-1,27
 375 297 375 297 364 243.5 c 128,-1,28
 353 190 353 190 342.5 160.5 c 128,-1,29
 332 131 332 131 315.5 95.5 c 128,-1,30
 299 60 299 60 280 42 c 0,31,32
 236 0 236 0 179 0 c 1,33,-1
 60 10 l 1,34,-1
 68 57 l 1,35,-1
 188 57 l 2,13,14
EndSplineSet
EndChar

StartChar: colon
Encoding: 58 58 29
Width: 181
GlyphClass: 2
Flags: W
LayerCount: 2
Fore
SplineSet
123.5 16 m 128,-1,1
 107 0 107 0 88.5 0 c 128,-1,2
 70 0 70 0 58.5 11 c 128,-1,3
 47 22 47 22 47 40.5 c 128,-1,4
 47 59 47 59 63.5 75 c 128,-1,5
 80 91 80 91 99 91 c 128,-1,6
 118 91 118 91 129 80.5 c 128,-1,7
 140 70 140 70 140 51 c 128,-1,0
 140 32 140 32 123.5 16 c 128,-1,1
200.5 462 m 128,-1,9
 184 446 184 446 165.5 446 c 128,-1,10
 147 446 147 446 135.5 457 c 128,-1,11
 124 468 124 468 124 486.5 c 128,-1,12
 124 505 124 505 141 521 c 128,-1,13
 158 537 158 537 177 537 c 128,-1,14
 196 537 196 537 206.5 526.5 c 128,-1,15
 217 516 217 516 217 497 c 128,-1,8
 217 478 217 478 200.5 462 c 128,-1,9
EndSplineSet
EndChar

StartChar: semicolon
Encoding: 59 59 30
Width: 153
GlyphClass: 2
Flags: W
LayerCount: 2
Fore
SplineSet
194.5 462 m 128,-1,1
 178 446 178 446 159.5 446 c 128,-1,2
 141 446 141 446 129.5 457 c 128,-1,3
 118 468 118 468 118 486.5 c 128,-1,4
 118 505 118 505 135 521 c 128,-1,5
 152 537 152 537 171 537 c 128,-1,6
 190 537 190 537 200.5 526.5 c 128,-1,7
 211 516 211 516 211 497 c 128,-1,0
 211 478 211 478 194.5 462 c 128,-1,1
54 43 m 0,8,9
 54 62 54 62 71 76.5 c 128,-1,10
 88 91 88 91 107 91 c 0,11,12
 142 91 142 91 142 60 c 0,13,14
 142 40 142 40 97 -37 c 128,-1,15
 52 -114 52 -114 46 -114 c 1,16,-1
 16 -96 l 1,17,18
 46 -45 46 -45 50 -27 c 128,-1,19
 54 -9 54 -9 54.5 -3.5 c 128,-1,20
 55 2 55 2 54.5 19.5 c 128,-1,21
 54 37 54 37 54 43 c 0,8,9
EndSplineSet
EndChar

StartChar: less
Encoding: 60 60 31
Width: 237
GlyphClass: 2
Flags: W
LayerCount: 2
Fore
SplineSet
207 57 m 1,0,-1
 152 57 l 1,1,-1
 55 288 l 1,2,-1
 59 314 l 1,3,-1
 228 537 l 1,4,-1
 282 537 l 1,5,-1
 106 301 l 1,6,-1
 207 57 l 1,0,-1
EndSplineSet
EndChar

StartChar: equal
Encoding: 61 61 32
Width: 363
GlyphClass: 2
Flags: W
LayerCount: 2
Fore
SplineSet
388 351 m 1,0,-1
 115 351 l 1,1,-1
 123 402 l 1,2,-1
 396 402 l 1,3,-1
 388 351 l 1,0,-1
372 247 m 1,4,-1
 99 247 l 1,5,-1
 107 298 l 1,6,-1
 380 298 l 1,7,-1
 372 247 l 1,4,-1
EndSplineSet
EndChar

StartChar: greater
Encoding: 62 62 33
Width: 236
GlyphClass: 2
Flags: W
LayerCount: 2
Fore
SplineSet
102 57 m 1,0,-1
 47 57 l 1,1,-1
 224 301 l 1,2,-1
 124 537 l 1,3,-1
 178 537 l 1,4,-1
 275 314 l 1,5,-1
 271 288 l 1,6,-1
 102 57 l 1,0,-1
EndSplineSet
EndChar

StartChar: question
Encoding: 63 63 34
Width: 339
GlyphClass: 2
Flags: W
LayerCount: 2
Fore
SplineSet
142.5 16 m 128,-1,1
 126 0 126 0 107.5 0 c 128,-1,2
 89 0 89 0 77.5 11 c 128,-1,3
 66 22 66 22 66 40.5 c 128,-1,4
 66 59 66 59 82.5 75 c 128,-1,5
 99 91 99 91 118 91 c 128,-1,6
 137 91 137 91 148 80.5 c 128,-1,7
 159 70 159 70 159 51 c 128,-1,0
 159 32 159 32 142.5 16 c 128,-1,1
333 611 m 0,8,9
 333 643 333 643 311.5 659 c 128,-1,10
 290 675 290 675 233 675 c 2,11,-1
 193 675 l 2,12,13
 164 675 164 675 155.5 677.5 c 128,-1,14
 147 680 147 680 147 688 c 128,-1,15
 147 696 147 696 151 722 c 1,16,-1
 248 732 l 1,17,18
 335 732 335 732 367 710 c 128,-1,19
 399 688 399 688 399 641 c 0,20,21
 399 624 399 624 391 571.5 c 128,-1,22
 383 519 383 519 348.5 467.5 c 128,-1,23
 314 416 314 416 277 380 c 0,24,25
 178 285 178 285 169 229 c 2,26,-1
 164 198 l 1,27,-1
 106 198 l 1,28,-1
 111 229 l 2,29,30
 122 300 122 300 192 377 c 0,31,32
 221 409 221 409 250 440 c 0,33,34
 320 515 320 515 329 573 c 0,35,36
 333 601 333 601 333 611 c 0,8,9
EndSplineSet
EndChar

StartChar: at
Encoding: 64 64 35
Width: 556
GlyphClass: 2
Flags: W
LayerCount: 2
Fore
SplineSet
282 264 m 2,0,1
 275 230 275 230 275 218 c 128,-1,2
 275 206 275 206 280 204 c 1,3,-1
 357 236 l 1,4,-1
 357 247 l 1,5,-1
 373 350 l 1,6,7
 298 350 298 350 294 330 c 2,8,-1
 282 264 l 2,0,1
530 453 m 1,9,-1
 531 463 l 1,10,11
 531 489 531 489 501 489 c 0,12,13
 498 489 498 489 250 473 c 1,14,15
 203 471 203 471 188 448 c 0,16,17
 178 433 178 433 173 401 c 0,18,19
 139 181 139 181 139 131 c 128,-1,20
 139 81 139 81 153 59 c 128,-1,21
 167 37 167 37 200 37 c 2,22,-1
 381 37 l 2,23,24
 411 37 411 37 420 33.5 c 128,-1,25
 429 30 429 30 429 21 c 128,-1,26
 429 12 429 12 425 -16 c 1,27,-1
 189 -16 l 2,28,29
 129 -16 129 -16 104 14 c 128,-1,30
 79 44 79 44 79 107 c 128,-1,31
 79 170 79 170 115 399 c 0,32,33
 125 466 125 466 152 495.5 c 128,-1,34
 179 525 179 525 260 531 c 1,35,36
 508 544 508 544 516 544 c 0,37,38
 556 544 556 544 572 528 c 128,-1,39
 588 512 588 512 588 488.5 c 128,-1,40
 588 465 588 465 585 447 c 2,41,-1
 560 290 l 2,42,43
 546 198 546 198 526 182 c 0,44,45
 501 161 501 161 472 159 c 128,-1,46
 443 157 443 157 409 157 c 128,-1,47
 375 157 375 157 363.5 164.5 c 128,-1,48
 352 172 352 172 348 189 c 1,49,-1
 281 152 l 1,50,51
 244 152 244 152 232 158.5 c 128,-1,52
 220 165 220 165 220 190 c 128,-1,53
 220 215 220 215 231 283 c 2,54,-1
 237 319 l 2,55,56
 251 402 251 402 386 402 c 2,57,-1
 432 402 l 1,58,-1
 405 229 l 1,59,-1
 395 210 l 1,60,-1
 419 210 l 2,61,62
 471 210 471 210 483.5 223 c 128,-1,63
 496 236 496 236 504 288 c 2,64,-1
 530 453 l 1,9,-1
EndSplineSet
EndChar

StartChar: A
Encoding: 65 65 36
Width: 435
GlyphClass: 2
Flags: W
LayerCount: 2
Fore
SplineSet
405 0 m 2,0,1
 360 0 360 0 352 6 c 128,-1,2
 344 12 344 12 342 46 c 2,3,-1
 329 245 l 1,4,-1
 177 245 l 1,5,-1
 85 0 l 1,6,-1
 80 0 l 2,7,8
 47 0 47 0 37 2 c 128,-1,9
 27 4 27 4 27 13 c 2,10,-1
 27 16 l 2,11,12
 27 21 27 21 104.5 221 c 128,-1,13
 182 421 182 421 297 720 c 1,14,-1
 361 720 l 1,15,-1
 410 0 l 1,16,-1
 405 0 l 2,0,1
318 592 m 1,17,-1
 299 592 l 1,18,-1
 208 325 l 1,19,-1
 195 300 l 1,20,-1
 331 300 l 1,21,-1
 318 325 l 1,22,-1
 318 592 l 1,17,-1
EndSplineSet
EndChar

StartChar: B
Encoding: 66 66 37
Width: 435
GlyphClass: 2
Flags: W
LayerCount: 2
Fore
SplineSet
449 627 m 0,0,1
 449 553 449 553 431.5 485 c 128,-1,2
 414 417 414 417 386 395 c 1,3,4
 426 370 426 370 426 308 c 128,-1,5
 426 246 426 246 423 208.5 c 128,-1,6
 420 171 420 171 407 126 c 128,-1,7
 394 81 394 81 370.5 54 c 128,-1,8
 347 27 347 27 305 10 c 128,-1,9
 263 -7 263 -7 209 -7 c 0,10,11
 203 -7 203 -7 197 -7 c 2,12,-1
 75 0 l 1,13,-1
 189 722 l 1,14,-1
 294 732 l 1,15,16
 383 732 383 732 416 706 c 128,-1,17
 449 680 449 680 449 627 c 0,0,1
235 419 m 2,18,19
 310 419 310 419 346 450 c 0,20,21
 375 474 375 474 380 541 c 0,22,23
 382 566 382 566 382 605.5 c 128,-1,24
 382 645 382 645 359.5 660 c 128,-1,25
 337 675 337 675 275 675 c 2,26,-1
 240 675 l 1,27,-1
 240 650 l 1,28,-1
 208 444 l 1,29,-1
 200 419 l 1,30,-1
 235 419 l 2,18,19
206 50 m 2,31,32
 285 50 285 50 323 100 c 0,33,34
 353 140 353 140 359 220 c 0,35,36
 361 249 361 249 361 289.5 c 128,-1,37
 361 330 361 330 340.5 346 c 128,-1,38
 320 362 320 362 266 362 c 2,39,-1
 191 362 l 1,40,-1
 191 337 l 1,41,-1
 149 75 l 1,42,-1
 141 50 l 1,43,-1
 206 50 l 2,31,32
EndSplineSet
EndChar

StartChar: C
Encoding: 67 67 38
Width: 377
GlyphClass: 2
Flags: W
LayerCount: 2
Fore
SplineSet
403 668 m 1,0,-1
 391 669 l 1,1,-1
 342 675 l 2,2,3
 337 676 337 676 332 676 c 0,4,5
 291 676 291 676 256 622 c 128,-1,6
 221 568 221 568 202 480 c 0,7,8
 163 306 163 306 163 174 c 0,9,10
 163 117 163 117 181.5 87 c 128,-1,11
 200 57 200 57 245 57 c 0,12,13
 268 57 268 57 300.5 61.5 c 128,-1,14
 333 66 333 66 347 67 c 1,15,-1
 338 10 l 1,16,17
 327 8 327 8 292 0.5 c 128,-1,18
 257 -7 257 -7 234 -7 c 0,19,20
 159 -7 159 -7 128.5 34 c 128,-1,21
 98 75 98 75 98 146 c 128,-1,22
 98 217 98 217 104 287.5 c 128,-1,23
 110 358 110 358 127.5 443 c 128,-1,24
 145 528 145 528 171.5 592.5 c 128,-1,25
 198 657 198 657 241.5 695 c 128,-1,26
 285 733 285 733 334 733 c 0,27,28
 342 733 342 733 351 732 c 2,29,-1
 448 712 l 1,30,31
 441 668 441 668 403 668 c 1,0,-1
EndSplineSet
EndChar

StartChar: D
Encoding: 68 68 39
Width: 472
GlyphClass: 2
Flags: W
LayerCount: 2
Fore
SplineSet
457 691.5 m 128,-1,1
 488 651 488 651 488 581.5 c 128,-1,2
 488 512 488 512 482 443 c 128,-1,3
 476 374 476 374 459 291 c 128,-1,4
 442 208 442 208 416 144 c 128,-1,5
 390 80 390 80 344.5 36.5 c 128,-1,6
 299 -7 299 -7 241 -7 c 0,7,8
 236 -7 236 -7 75 0 c 1,9,-1
 189 722 l 1,10,-1
 351 732 l 1,11,0
 426 732 426 732 457 691.5 c 128,-1,1
243 50 m 2,12,13
 290 50 290 50 327.5 107.5 c 128,-1,14
 365 165 365 165 384 250 c 0,15,16
 423 419 423 419 423 559 c 0,17,18
 423 616 423 616 404.5 645.5 c 128,-1,19
 386 675 386 675 342 675 c 2,20,-1
 240 675 l 1,21,-1
 240 650 l 1,22,-1
 149 75 l 1,23,-1
 141 50 l 1,24,-1
 243 50 l 2,12,13
EndSplineSet
EndChar

StartChar: E
Encoding: 69 69 40
Width: 385
GlyphClass: 2
Flags: W
LayerCount: 2
Fore
SplineSet
242 667 m 1,0,-1
 242 642 l 1,1,-1
 211 443 l 1,2,-1
 203 418 l 1,3,-1
 390 418 l 1,4,-1
 381 361 l 1,5,-1
 194 361 l 1,6,-1
 194 336 l 1,7,-1
 153 82 l 1,8,-1
 146 57 l 1,9,-1
 357 57 l 1,10,-1
 348 0 l 1,11,-1
 75 0 l 1,12,-1
 189 720 l 1,13,-1
 452 720 l 1,14,-1
 443 667 l 1,15,-1
 242 667 l 1,0,-1
EndSplineSet
EndChar

StartChar: F
Encoding: 70 70 41
Width: 375
GlyphClass: 2
Flags: W
LayerCount: 2
Fore
SplineSet
133 0 m 2,0,1
 85 0 85 0 81 8 c 0,2,3
 79 12 79 12 79 20 c 128,-1,4
 79 28 79 28 82 46 c 2,5,-1
 189 720 l 1,6,-1
 452 720 l 1,7,-1
 443 667 l 1,8,-1
 242 667 l 1,9,-1
 242 642 l 1,10,-1
 211 443 l 1,11,-1
 203 418 l 1,12,-1
 390 418 l 1,13,-1
 381 361 l 1,14,-1
 194 361 l 1,15,-1
 194 336 l 1,16,-1
 141 0 l 1,17,-1
 133 0 l 2,0,1
EndSplineSet
EndChar

StartChar: G
Encoding: 71 71 42
Width: 446
GlyphClass: 2
Flags: W
LayerCount: 2
Fore
SplineSet
336 60 m 1,0,-1
 336 85 l 1,1,-1
 371 307 l 2,2,3
 378 350 378 350 385 357.5 c 128,-1,4
 392 365 392 365 426 365 c 2,5,-1
 443 365 l 1,6,-1
 387 10 l 1,7,8
 372 8 372 8 342 3 c 0,9,10
 282 -7 282 -7 244 -7 c 0,11,12
 169 -7 169 -7 138.5 34 c 128,-1,13
 108 75 108 75 108 145 c 128,-1,14
 108 215 108 215 113.5 283.5 c 128,-1,15
 119 352 119 352 135 434.5 c 128,-1,16
 151 517 151 517 176 581.5 c 128,-1,17
 201 646 201 646 244.5 689.5 c 128,-1,18
 288 733 288 733 344 733 c 1,19,-1
 478 712 l 1,20,21
 471 668 471 668 433 668 c 1,22,-1
 343 675 l 1,23,24
 298 675 298 675 262.5 615.5 c 128,-1,25
 227 556 227 556 209 469 c 0,26,27
 172 290 172 290 172 168 c 0,28,29
 172 110 172 110 190.5 80 c 128,-1,30
 209 50 209 50 253 50 c 0,31,32
 269 50 269 50 300.5 55 c 128,-1,33
 332 60 332 60 336 60 c 1,0,-1
EndSplineSet
EndChar

StartChar: H
Encoding: 72 72 43
Width: 457
GlyphClass: 2
Flags: W
LayerCount: 2
Fore
SplineSet
378 0 m 2,0,1
 330 0 330 0 326 8 c 0,2,3
 324 12 324 12 324 20 c 128,-1,4
 324 28 324 28 373 336 c 1,5,-1
 381 361 l 1,6,-1
 190 361 l 1,7,-1
 190 336 l 1,8,-1
 144 46 l 2,9,10
 139 12 139 12 130.5 6 c 128,-1,11
 122 0 122 0 79 0 c 2,12,-1
 75 0 l 1,13,-1
 189 720 l 1,14,-1
 193 720 l 2,15,16
 240 720 240 720 244 712 c 0,17,18
 246 708 246 708 246 700 c 128,-1,19
 246 692 246 692 207 443 c 1,20,-1
 199 418 l 1,21,-1
 390 418 l 1,22,-1
 390 443 l 1,23,-1
 434 720 l 1,24,-1
 438 720 l 2,25,26
 485 720 485 720 489 712 c 0,27,28
 491 708 491 708 491 700 c 128,-1,29
 491 692 491 692 382 0 c 1,30,-1
 378 0 l 2,0,1
EndSplineSet
EndChar

StartChar: I
Encoding: 73 73 44
Width: 213
GlyphClass: 2
Flags: W
LayerCount: 2
Fore
SplineSet
133 0 m 2,0,1
 85 0 85 0 81 8 c 0,2,3
 79 12 79 12 79 20 c 128,-1,4
 79 28 79 28 189 720 c 1,5,-1
 194 720 l 2,6,7
 241 720 241 720 245 712 c 0,8,9
 247 708 247 708 247 700 c 128,-1,10
 247 692 247 692 138 0 c 1,11,-1
 133 0 l 2,0,1
EndSplineSet
EndChar

StartChar: J
Encoding: 74 74 45
Width: 246
GlyphClass: 2
Flags: W
LayerCount: 2
Fore
SplineSet
-8 -200 m 1,0,-1
 -8 -150 l 1,1,2
 25 -150 25 -150 39.5 -139 c 128,-1,3
 54 -128 54 -128 63 -120.5 c 128,-1,4
 72 -113 72 -113 80 -97.5 c 128,-1,5
 88 -82 88 -82 93.5 -70.5 c 128,-1,6
 99 -59 99 -59 105 -37 c 128,-1,7
 111 -15 111 -15 114.5 -0.5 c 128,-1,8
 118 14 118 14 124 43 c 0,9,10
 134 99 134 99 140 139 c 2,11,-1
 232 720 l 1,12,-1
 237 720 l 2,13,14
 284 720 284 720 288 712 c 0,15,16
 290 708 290 708 290 700 c 128,-1,17
 290 692 290 692 242.5 389.5 c 128,-1,18
 195 87 195 87 189 55 c 128,-1,19
 183 23 183 23 173.5 -17.5 c 128,-1,20
 164 -58 164 -58 154 -81.5 c 128,-1,21
 144 -105 144 -105 128.5 -130.5 c 128,-1,22
 113 -156 113 -156 94 -170 c 0,23,24
 53 -200 53 -200 -8 -200 c 1,0,-1
EndSplineSet
EndChar

StartChar: K
Encoding: 75 75 46
Width: 412
GlyphClass: 2
Flags: W
LayerCount: 2
Fore
SplineSet
371 0 m 2,0,1
 324 0 324 0 311 6.5 c 128,-1,2
 298 13 298 13 287 46 c 1,3,-1
 208 363 l 1,4,-1
 414 720 l 1,5,-1
 418 720 l 2,6,7
 449 720 449 720 459 718.5 c 128,-1,8
 469 717 469 717 469 710 c 0,9,10
 469 709 469 709 469 707 c 128,-1,11
 469 705 469 705 414 608 c 128,-1,12
 359 511 359 511 276 363 c 1,13,-1
 375 0 l 1,14,-1
 371 0 l 2,0,1
79 0 m 2,15,-1
 75 0 l 1,16,-1
 189 720 l 1,17,-1
 193 720 l 2,18,19
 240 720 240 720 244 712 c 0,20,21
 246 708 246 708 246 700 c 128,-1,22
 246 692 246 692 144 46 c 0,23,24
 139 12 139 12 130.5 6 c 128,-1,25
 122 0 122 0 79 0 c 2,15,-1
EndSplineSet
EndChar

StartChar: L
Encoding: 76 76 47
Width: 361
GlyphClass: 2
Flags: W
LayerCount: 2
Fore
SplineSet
197 720 m 2,0,1
 244 720 244 720 248 712 c 0,2,3
 250 708 250 708 250 700 c 128,-1,4
 250 692 250 692 153 82 c 1,5,-1
 146 57 l 1,6,-1
 275 57 l 2,7,8
 322 57 322 57 326 49 c 0,9,10
 328 45 328 45 328 38 c 2,11,-1
 324 0 l 1,12,-1
 75 0 l 1,13,-1
 189 720 l 1,14,-1
 197 720 l 2,0,1
EndSplineSet
EndChar

StartChar: M
Encoding: 77 77 48
Width: 584
GlyphClass: 2
Flags: W
LayerCount: 2
Fore
SplineSet
505 0 m 2,0,1
 456 0 456 0 452 8 c 0,2,3
 450 12 450 12 450 20.5 c 128,-1,4
 450 29 450 29 537 578 c 1,5,-1
 532 578 l 1,6,-1
 525 560 l 1,7,-1
 394 347 l 1,8,-1
 363 301 l 1,9,-1
 311 301 l 1,10,-1
 294 346 l 1,11,-1
 228 560 l 1,12,-1
 228 578 l 1,13,-1
 223 578 l 1,14,-1
 139 46 l 2,15,16
 134 12 134 12 125.5 6 c 128,-1,17
 117 0 117 0 74 0 c 2,18,-1
 70 0 l 1,19,-1
 184 720 l 1,20,-1
 189 720 l 2,21,22
 232 720 232 720 241.5 714 c 128,-1,23
 251 708 251 708 261 674 c 2,24,-1
 345 400 l 1,25,-1
 360 400 l 1,26,-1
 560 720 l 1,27,-1
 565 720 l 2,28,29
 612 720 612 720 616 712 c 0,30,31
 618 708 618 708 618 700 c 128,-1,32
 618 692 618 692 509 0 c 1,33,-1
 505 0 l 2,0,1
EndSplineSet
EndChar

StartChar: N
Encoding: 78 78 49
Width: 455
GlyphClass: 2
Flags: W
LayerCount: 2
Fore
SplineSet
381 0 m 2,0,1
 338 0 338 0 329 6 c 128,-1,2
 320 12 320 12 313 46 c 2,3,-1
 223 521 l 1,4,-1
 223 548 l 1,5,-1
 218 548 l 1,6,-1
 139 46 l 2,7,8
 134 12 134 12 125.5 6 c 128,-1,9
 117 0 117 0 74 0 c 2,10,-1
 70 0 l 1,11,-1
 184 720 l 1,12,-1
 189 720 l 2,13,14
 232 720 232 720 240.5 714 c 128,-1,15
 249 708 249 708 255 674 c 2,16,-1
 343 188 l 1,17,-1
 343 161 l 1,18,-1
 348 161 l 1,19,-1
 437 720 l 1,20,-1
 441 720 l 2,21,22
 488 720 488 720 492 712 c 0,23,24
 494 708 494 708 494 700 c 128,-1,25
 494 692 494 692 385 0 c 1,26,-1
 381 0 l 2,0,1
EndSplineSet
EndChar

StartChar: O
Encoding: 79 79 50
Width: 481
GlyphClass: 2
Flags: W
LayerCount: 2
Fore
SplineSet
356 47.5 m 128,-1,1
 305 -7 305 -7 235 -7 c 128,-1,2
 165 -7 165 -7 133.5 35.5 c 128,-1,3
 102 78 102 78 102 170 c 128,-1,4
 102 262 102 262 116 356.5 c 128,-1,5
 130 451 130 451 158.5 537.5 c 128,-1,6
 187 624 187 624 238.5 678 c 128,-1,7
 290 732 290 732 360 732 c 128,-1,8
 430 732 430 732 461.5 691.5 c 128,-1,9
 493 651 493 651 493 559.5 c 128,-1,10
 493 468 493 468 478.5 372.5 c 128,-1,11
 464 277 464 277 435.5 189.5 c 128,-1,0
 407 102 407 102 356 47.5 c 128,-1,1
188 82.5 m 128,-1,13
 206 50 206 50 248.5 50 c 128,-1,14
 291 50 291 50 326 103.5 c 128,-1,15
 361 157 361 157 381.5 237 c 128,-1,16
 402 317 402 317 413 398 c 128,-1,17
 424 479 424 479 424 545 c 128,-1,18
 424 611 424 611 406 643 c 128,-1,19
 388 675 388 675 346.5 675 c 128,-1,20
 305 675 305 675 269.5 621.5 c 128,-1,21
 234 568 234 568 213 488 c 0,22,23
 170 324 170 324 170 181 c 0,24,12
 170 115 170 115 188 82.5 c 128,-1,13
EndSplineSet
EndChar

StartChar: P
Encoding: 80 80 51
Width: 459
GlyphClass: 2
Flags: W
LayerCount: 2
Fore
SplineSet
80 0 m 2,0,-1
 75 0 l 1,1,-1
 189 722 l 1,2,-1
 324 732 l 1,3,4
 419 732 419 732 453.5 706 c 128,-1,5
 488 680 488 680 488 626 c 128,-1,6
 488 572 488 572 485 536.5 c 128,-1,7
 482 501 482 501 469 460.5 c 128,-1,8
 456 420 456 420 432.5 397 c 128,-1,9
 409 374 409 374 366.5 358 c 128,-1,10
 324 342 324 342 263 342 c 2,11,-1
 188 342 l 1,12,-1
 188 317 l 1,13,-1
 145 46 l 2,14,15
 140 12 140 12 131 6 c 128,-1,16
 122 0 122 0 80 0 c 2,0,-1
272 399 m 2,17,18
 370 399 370 399 398 460 c 0,19,20
 413 492 413 492 417.5 524.5 c 128,-1,21
 422 557 422 557 422 601 c 128,-1,22
 422 645 422 645 399.5 660 c 128,-1,23
 377 675 377 675 315 675 c 2,24,-1
 240 675 l 1,25,-1
 240 650 l 1,26,-1
 205 424 l 1,27,-1
 197 399 l 1,28,-1
 272 399 l 2,17,18
EndSplineSet
EndChar

StartChar: Q
Encoding: 81 81 52
Width: 468
GlyphClass: 2
Flags: W
LayerCount: 2
Fore
SplineSet
100 -124 m 1,0,-1
 88 -125 l 1,1,-1
 75 -123 l 1,2,-1
 78 -106 l 2,3,4
 81 -85 81 -85 87 -81 c 2,5,-1
 200 -3 l 1,6,7
 148 7 148 7 125 49 c 128,-1,8
 102 91 102 91 102 177.5 c 128,-1,9
 102 264 102 264 116.5 358.5 c 128,-1,10
 131 453 131 453 160 538.5 c 128,-1,11
 189 624 189 624 240 678 c 128,-1,12
 291 732 291 732 360 732 c 128,-1,13
 429 732 429 732 460.5 690 c 128,-1,14
 492 648 492 648 492 571 c 128,-1,15
 492 494 492 494 479.5 403.5 c 128,-1,16
 467 313 467 313 445 221 c 128,-1,17
 423 129 423 129 384.5 65.5 c 128,-1,18
 346 2 346 2 301 2 c 1,19,-1
 173 -77 l 1,20,21
 200 -79 200 -79 338.5 -97 c 128,-1,22
 477 -115 477 -115 502 -115 c 128,-1,23
 527 -115 527 -115 532 -114 c 1,24,-1
 544 -116 l 1,25,-1
 541 -135 l 2,26,27
 537 -162 537 -162 529 -166.5 c 128,-1,28
 521 -171 521 -171 484 -171 c 128,-1,29
 447 -171 447 -171 291 -147.5 c 128,-1,30
 135 -124 135 -124 100 -124 c 1,0,-1
248 50 m 0,31,32
 291 50 291 50 327.5 103 c 128,-1,33
 364 156 364 156 384 235 c 0,34,35
 428 403 428 403 428 542 c 0,36,37
 428 609 428 609 409 642 c 128,-1,38
 390 675 390 675 346.5 675 c 128,-1,39
 303 675 303 675 267 622.5 c 128,-1,40
 231 570 231 570 210 492 c 0,41,42
 167 332 167 332 167 191 c 128,-1,43
 167 50 167 50 248 50 c 0,31,32
EndSplineSet
EndChar

StartChar: R
Encoding: 82 82 53
Width: 453
GlyphClass: 2
Flags: W
LayerCount: 2
Fore
SplineSet
412 0 m 2,0,1
 361 0 361 0 350 5.5 c 128,-1,2
 339 11 339 11 329 46 c 2,3,-1
 241 342 l 1,4,-1
 188 342 l 1,5,-1
 188 317 l 1,6,-1
 145 46 l 1,7,-1
 146 46 l 1,8,9
 141 12 141 12 132.5 6 c 128,-1,10
 124 0 124 0 81 0 c 2,11,-1
 75 0 l 1,12,-1
 189 722 l 1,13,-1
 304 732 l 1,14,15
 387 732 387 732 418 707 c 128,-1,16
 449 682 449 682 449 633 c 128,-1,17
 449 584 449 584 442 538 c 0,18,19
 412 343 412 343 309 343 c 0,20,21
 307 343 307 343 304 343 c 1,22,-1
 416 0 l 1,23,-1
 412 0 l 2,0,1
252 399 m 2,24,25
 335 399 335 399 360 466 c 0,26,27
 382 523 382 523 382 613 c 0,28,29
 382 647 382 647 363.5 661 c 128,-1,30
 345 675 345 675 295 675 c 2,31,-1
 244 675 l 1,32,-1
 205 424 l 1,33,-1
 197 399 l 1,34,-1
 252 399 l 2,24,25
EndSplineSet
EndChar

StartChar: S
Encoding: 83 83 54
Width: 391
GlyphClass: 2
Flags: W
LayerCount: 2
Fore
SplineSet
382 670 m 1,0,-1
 369 671 l 1,1,-1
 314 677 l 1,2,3
 244 677 244 677 218 646.5 c 128,-1,4
 192 616 192 616 192 559 c 0,5,6
 192 524 192 524 223 484.5 c 128,-1,7
 254 445 254 445 291 414 c 128,-1,8
 328 383 328 383 359 339.5 c 128,-1,9
 390 296 390 296 390 253 c 0,10,11
 390 -6 390 -6 180 -7 c 1,12,-1
 39 13 l 1,13,-1
 47 69 l 1,14,-1
 192 59 l 1,15,16
 274 59 274 59 301 114 c 0,17,18
 324 160 324 160 324 231 c 0,19,20
 324 262 324 262 293 301.5 c 128,-1,21
 262 341 262 341 225 374.5 c 128,-1,22
 188 408 188 408 157 455 c 128,-1,23
 126 502 126 502 126 546 c 0,24,25
 126 641 126 641 164.5 686.5 c 128,-1,26
 203 732 203 732 311 732 c 0,27,28
 314 732 314 732 316 732 c 2,29,-1
 419 712 l 1,30,31
 415 687 415 687 406.5 678.5 c 128,-1,32
 398 670 398 670 382 670 c 1,0,-1
EndSplineSet
EndChar

StartChar: T
Encoding: 84 84 55
Width: 333
GlyphClass: 2
Flags: W
LayerCount: 2
Fore
SplineSet
141 0 m 2,0,-1
 133 0 l 1,1,-1
 234 642 l 1,2,-1
 242 667 l 1,3,-1
 130 667 l 1,4,-1
 139 720 l 1,5,-1
 422 720 l 1,6,-1
 413 667 l 1,7,-1
 300 667 l 1,8,-1
 300 642 l 1,9,-1
 206 46 l 2,10,11
 201 12 201 12 192.5 6 c 128,-1,12
 184 0 184 0 141 0 c 2,0,-1
EndSplineSet
EndChar

StartChar: U
Encoding: 85 85 56
Width: 468
GlyphClass: 2
Flags: W
LayerCount: 2
Fore
SplineSet
454 720 m 2,0,1
 501 720 501 720 505 712 c 0,2,3
 507 708 507 708 507 700 c 128,-1,4
 507 692 507 692 504 674 c 0,5,6
 433 217 433 217 391 105 c 128,-1,7
 349 -7 349 -7 233 -7 c 0,8,9
 159 -7 159 -7 130 22 c 128,-1,10
 101 51 101 51 101 114 c 0,11,12
 101 148 101 148 114 235.5 c 128,-1,13
 127 323 127 323 190 720 c 1,14,-1
 197 720 l 2,15,16
 244 720 244 720 248 712 c 0,17,18
 250 708 250 708 250 700 c 128,-1,19
 250 692 250 692 208 426 c 128,-1,20
 166 160 166 160 166.5 124 c 128,-1,21
 167 88 167 88 183.5 69 c 128,-1,22
 200 50 200 50 245.5 50 c 128,-1,23
 291 50 291 50 315 87 c 0,24,25
 350 141 350 141 390 368 c 0,26,27
 407 466 407 466 447 720 c 1,28,-1
 454 720 l 2,0,1
EndSplineSet
EndChar

StartChar: V
Encoding: 86 86 57
Width: 414
GlyphClass: 2
Flags: W
LayerCount: 2
Fore
SplineSet
407 720 m 2,0,1
 432 720 432 720 438.5 718.5 c 128,-1,2
 445 717 445 717 445 709 c 2,3,-1
 445 705 l 1,4,-1
 445 704 l 1,5,6
 445 704 445 704 415.5 625.5 c 128,-1,7
 386 547 386 547 214 80 c 0,8,9
 192 20 192 20 183 10 c 128,-1,10
 174 0 174 0 144 0 c 0,11,12
 127 0 127 0 116 12 c 0,13,14
 94 36 94 36 92 80 c 1,15,-1
 92 720 l 1,16,-1
 102 720 l 2,17,18
 142 720 142 720 149 714 c 128,-1,19
 156 708 156 708 156 674 c 2,20,-1
 156 127 l 1,21,-1
 169 127 l 1,22,-1
 392 720 l 1,23,-1
 407 720 l 2,0,1
EndSplineSet
EndChar

StartChar: W
Encoding: 87 87 58
Width: 572
GlyphClass: 2
Flags: W
LayerCount: 2
Fore
SplineSet
633 720 m 2,0,1
 662 720 662 720 662 703 c 0,2,3
 662 684 662 684 449 80 c 0,4,5
 428 20 428 20 419.5 10 c 128,-1,6
 411 0 411 0 381 0 c 0,7,8
 364 0 364 0 353 12 c 0,9,10
 331 36 331 36 329 80 c 1,11,-1
 329 409 l 1,12,-1
 316 409 l 1,13,-1
 199 80 l 2,14,15
 177 19 177 19 169 9.5 c 128,-1,16
 161 0 161 0 131 0 c 0,17,18
 114 0 114 0 103 12 c 0,19,20
 80 37 80 37 80 80 c 2,21,-1
 80 720 l 1,22,-1
 92 720 l 2,23,24
 128 720 128 720 133.5 714.5 c 128,-1,25
 139 709 139 709 140 674 c 2,26,-1
 145 128 l 1,27,-1
 162 128 l 1,28,-1
 284 466 l 1,29,-1
 309 520 l 1,30,-1
 366 520 l 1,31,-1
 388 465 l 1,32,-1
 388 128 l 1,33,-1
 404 128 l 1,34,-1
 600 720 l 1,35,-1
 633 720 l 2,0,1
EndSplineSet
EndChar

StartChar: X
Encoding: 88 88 59
Width: 383
GlyphClass: 2
Flags: W
LayerCount: 2
Fore
SplineSet
334 0 m 2,0,1
 300 0 300 0 293.5 5.5 c 128,-1,2
 287 11 287 11 281 46 c 2,3,-1
 247 283 l 1,4,-1
 228 283 l 1,5,-1
 115 46 l 2,6,7
 98 12 98 12 89 6 c 128,-1,8
 80 0 80 0 48 0 c 2,9,-1
 25 0 l 1,10,-1
 213 356 l 1,11,-1
 149 720 l 1,12,-1
 172 720 l 2,13,14
 204 720 204 720 211 714 c 128,-1,15
 218 708 218 708 224 674 c 1,16,-1
 259 421 l 1,17,-1
 278 421 l 1,18,-1
 414 720 l 1,19,-1
 441 720 l 2,20,21
 469 720 469 720 469 708 c 0,22,23
 469 688 469 688 289 356 c 1,24,-1
 355 0 l 1,25,-1
 334 0 l 2,0,1
EndSplineSet
EndChar

StartChar: Y
Encoding: 89 89 60
Width: 375
GlyphClass: 2
Flags: W
LayerCount: 2
Fore
SplineSet
216 0 m 2,0,1
 168 0 168 0 164 8 c 0,2,3
 162 12 162 12 162 20 c 128,-1,4
 162 28 162 28 212 347 c 1,5,-1
 139 720 l 1,6,-1
 154 720 l 2,7,8
 192 720 192 720 199.5 714.5 c 128,-1,9
 207 709 207 709 213 674 c 2,10,-1
 256 432 l 1,11,-1
 261 432 l 1,12,-1
 408 720 l 1,13,-1
 435 720 l 2,14,15
 462 720 462 720 462 709 c 0,16,17
 462 689 462 689 275 347 c 1,18,-1
 221 0 l 1,19,-1
 216 0 l 2,0,1
EndSplineSet
EndChar

StartChar: Z
Encoding: 90 90 61
Width: 370
GlyphClass: 2
Flags: W
LayerCount: 2
Fore
SplineSet
207 720 m 2,0,-1
 447 720 l 1,1,-1
 438 667 l 1,2,-1
 112 57 l 1,3,-1
 270 57 l 2,4,5
 304 57 304 57 314 53.5 c 128,-1,6
 324 50 324 50 324 39 c 128,-1,7
 324 28 324 28 320 0 c 1,8,-1
 37 0 l 1,9,-1
 46 57 l 1,10,-1
 369 667 l 1,11,-1
 152 667 l 1,12,13
 159 707 159 707 165.5 713.5 c 128,-1,14
 172 720 172 720 207 720 c 2,0,-1
EndSplineSet
EndChar

StartChar: bracketleft
Encoding: 91 91 62
Width: 201
GlyphClass: 2
Flags: W
LayerCount: 2
Fore
SplineSet
101 -70 m 2,0,1
 70 -70 70 -70 61 -67.5 c 128,-1,2
 52 -65 52 -65 52 -57.5 c 128,-1,3
 52 -50 52 -50 182 772 c 1,4,-1
 262 772 l 2,5,6
 293 772 293 772 302 769.5 c 128,-1,7
 311 767 311 767 311 759.5 c 128,-1,8
 311 752 311 752 307 726 c 1,9,-1
 227 726 l 1,10,-1
 109 -24 l 1,11,-1
 136 -24 l 2,12,13
 167 -24 167 -24 176 -26.5 c 128,-1,14
 185 -29 185 -29 185 -36.5 c 128,-1,15
 185 -44 185 -44 181 -70 c 1,16,-1
 101 -70 l 2,0,1
EndSplineSet
EndChar

StartChar: backslash
Encoding: 92 92 63
Width: 372
GlyphClass: 2
Flags: W
LayerCount: 2
Fore
SplineSet
331 -200 m 1,0,-1
 267 -200 l 1,1,-1
 120 732 l 1,2,-1
 184 732 l 1,3,-1
 331 -200 l 1,0,-1
EndSplineSet
EndChar

StartChar: bracketright
Encoding: 93 93 64
Width: 204
GlyphClass: 2
Flags: W
LayerCount: 2
Fore
SplineSet
76 -70 m 2,0,-1
 -3 -70 l 1,1,2
 2 -36 2 -36 9.5 -30 c 128,-1,3
 17 -24 17 -24 57 -24 c 2,4,-1
 84 -24 l 1,5,-1
 202 726 l 1,6,-1
 122 726 l 1,7,8
 128 761 128 761 135.5 766.5 c 128,-1,9
 143 772 143 772 183 772 c 2,10,-1
 263 772 l 1,11,-1
 137 -24 l 2,12,13
 132 -58 132 -58 124 -64 c 128,-1,14
 116 -70 116 -70 76 -70 c 2,0,-1
EndSplineSet
EndChar

StartChar: asciicircum
Encoding: 94 94 65
Width: 411
GlyphClass: 2
Flags: W
LayerCount: 2
Fore
SplineSet
469 607 m 1,0,-1
 313 683 l 1,1,-1
 134 607 l 1,2,-1
 142 662 l 1,3,-1
 307 732 l 1,4,-1
 333 732 l 1,5,-1
 477 661 l 1,6,-1
 469 607 l 1,0,-1
EndSplineSet
EndChar

StartChar: underscore
Encoding: 95 95 66
Width: 613
GlyphClass: 2
Flags: W
LayerCount: 2
Fore
SplineSet
551 -1 m 1,0,-1
 59 -1 l 1,1,-1
 67 50 l 1,2,-1
 559 50 l 1,3,-1
 551 -1 l 1,0,-1
EndSplineSet
EndChar

StartChar: grave
Encoding: 96 96 67
Width: 172
GlyphClass: 2
Flags: W
LayerCount: 2
Fore
SplineSet
128 708 m 2,0,1
 155 732 155 732 164.5 732 c 128,-1,2
 174 732 174 732 201 699 c 1,3,-1
 257 623 l 1,4,-1
 216 587 l 1,5,-1
 120 701 l 1,6,-1
 128 708 l 2,0,1
EndSplineSet
EndChar

StartChar: a
Encoding: 97 97 68
Width: 368
GlyphClass: 2
Flags: W
LayerCount: 2
Fore
SplineSet
82 15 m 128,-1,1
 64 37 64 37 64 93.5 c 128,-1,2
 64 150 64 150 72 220 c 128,-1,3
 80 290 80 290 97.5 368 c 128,-1,4
 115 446 115 446 150.5 498 c 128,-1,5
 186 550 186 550 233 550 c 0,6,7
 248 550 248 550 267 543.5 c 128,-1,8
 286 537 286 537 312 529 c 128,-1,9
 338 521 338 521 350 517 c 128,-1,10
 362 513 362 513 374 508 c 0,11,12
 396 498 396 498 396 485 c 0,13,14
 396 481 396 481 321 0 c 1,15,16
 286 0 286 0 275 3.5 c 128,-1,17
 264 7 264 7 266 21 c 2,18,-1
 275 87 l 1,19,-1
 159 -7 l 1,20,0
 100 -7 100 -7 82 15 c 128,-1,1
239 493 m 0,21,22
 201 493 201 493 173 409 c 128,-1,23
 145 325 145 325 135 242.5 c 128,-1,24
 125 160 125 160 125 117.5 c 128,-1,25
 125 75 125 75 132 63.5 c 128,-1,26
 139 52 139 52 169 52 c 1,27,-1
 287 138 l 1,28,-1
 287 163 l 1,29,-1
 332 440 l 1,30,-1
 340 465 l 1,31,32
 254 493 254 493 239 493 c 0,21,22
EndSplineSet
EndChar

StartChar: b
Encoding: 98 98 69
Width: 373
GlyphClass: 2
Flags: W
LayerCount: 2
Fore
SplineSet
222 724 m 0,0,1
 224 720 224 720 224 711.5 c 128,-1,2
 224 703 224 703 199 544 c 1,3,-1
 273 544 l 2,4,5
 336 544 336 544 360.5 519 c 128,-1,6
 385 494 385 494 385 438 c 128,-1,7
 385 382 385 382 377 313 c 128,-1,8
 369 244 369 244 352 167 c 128,-1,9
 335 90 335 90 301 38.5 c 128,-1,10
 267 -13 267 -13 222 -13 c 0,11,12
 204 -13 204 -13 121 53 c 1,13,14
 115 13 115 13 106.5 6.5 c 128,-1,15
 98 0 98 0 55 0 c 1,16,-1
 170 732 l 1,17,18
 218 732 218 732 222 724 c 0,0,1
215 41 m 0,19,20
 249 41 249 41 275.5 121.5 c 128,-1,21
 302 202 302 202 313 284.5 c 128,-1,22
 324 367 324 367 324 410.5 c 128,-1,23
 324 454 324 454 311 472.5 c 128,-1,24
 298 491 298 491 268 491 c 2,25,-1
 181 491 l 1,26,-1
 186 472 l 1,27,-1
 131 117 l 1,28,-1
 123 92 l 1,29,30
 207 41 207 41 215 41 c 0,19,20
EndSplineSet
EndChar

StartChar: c
Encoding: 99 99 70
Width: 304
GlyphClass: 2
Flags: W
LayerCount: 2
Fore
SplineSet
306 486 m 1,0,-1
 240 496 l 1,1,2
 205 496 205 496 178.5 413 c 128,-1,3
 152 330 152 330 142 247.5 c 128,-1,4
 132 165 132 165 132 122 c 128,-1,5
 132 79 132 79 144.5 62.5 c 128,-1,6
 157 46 157 46 188 46 c 1,7,-1
 276 56 l 1,8,-1
 269 10 l 1,9,-1
 179 -7 l 1,10,11
 119 -7 119 -7 95 17 c 128,-1,12
 71 41 71 41 71 96 c 128,-1,13
 71 151 71 151 78.5 220 c 128,-1,14
 86 289 86 289 103 367 c 128,-1,15
 120 445 120 445 154.5 497.5 c 128,-1,16
 189 550 189 550 235 550 c 0,17,18
 245 550 245 550 348 531 c 1,19,20
 340 486 340 486 306 486 c 1,0,-1
EndSplineSet
EndChar

StartChar: d
Encoding: 100 100 71
Width: 388
GlyphClass: 2
Flags: W
LayerCount: 2
Fore
SplineSet
95 16.5 m 128,-1,1
 71 40 71 40 71 95 c 128,-1,2
 71 150 71 150 79 220 c 128,-1,3
 87 290 87 290 104.5 368 c 128,-1,4
 122 446 122 446 157.5 498 c 128,-1,5
 193 550 193 550 240 550 c 1,6,-1
 345 544 l 1,7,-1
 375 732 l 1,8,9
 423 732 423 732 427 724 c 0,10,11
 429 720 429 720 429 712 c 128,-1,12
 429 704 429 704 426 686 c 2,13,-1
 318 0 l 1,14,15
 270 0 270 0 266 8 c 0,16,17
 264 12 264 12 264 18.5 c 128,-1,18
 264 25 264 25 268 53 c 1,19,-1
 179 -7 l 1,20,0
 119 -7 119 -7 95 16.5 c 128,-1,1
142 242.5 m 128,-1,22
 132 160 132 160 132 118.5 c 128,-1,23
 132 77 132 77 145 61.5 c 128,-1,24
 158 46 158 46 189 46 c 1,25,-1
 278 91 l 1,26,-1
 278 116 l 1,27,-1
 333 466 l 1,28,-1
 341 491 l 1,29,-1
 246 493 l 2,30,31
 208 493 208 493 180 409 c 128,-1,21
 152 325 152 325 142 242.5 c 128,-1,22
EndSplineSet
EndChar

StartChar: e
Encoding: 101 101 72
Width: 353
GlyphClass: 2
Flags: W
LayerCount: 2
Fore
SplineSet
307 10 m 1,0,1
 228 -7 228 -7 174.5 -7 c 128,-1,2
 121 -7 121 -7 96 16 c 128,-1,3
 71 39 71 39 71 85.5 c 128,-1,4
 71 132 71 132 85 221.5 c 128,-1,5
 99 311 99 311 102.5 333 c 128,-1,6
 106 355 106 355 113.5 390 c 128,-1,7
 121 425 121 425 127 440 c 128,-1,8
 133 455 133 455 143 477.5 c 128,-1,9
 153 500 153 500 164.5 508.5 c 128,-1,10
 176 517 176 517 192 528 c 0,11,12
 217 544 217 544 272.5 544 c 128,-1,13
 328 544 328 544 348.5 521.5 c 128,-1,14
 369 499 369 499 369 452 c 0,15,16
 369 407 369 407 352 346 c 0,17,18
 341 310 341 310 313 286.5 c 128,-1,19
 285 263 285 263 244 263 c 2,20,-1
 145 263 l 1,21,-1
 145 238 l 1,22,23
 130 148 130 148 130 113 c 128,-1,24
 130 78 130 78 144.5 63 c 128,-1,25
 159 48 159 48 208 48 c 128,-1,26
 257 48 257 48 315 61 c 1,27,-1
 307 10 l 1,0,1
236 317 m 2,28,29
 258 317 258 317 274 331 c 128,-1,30
 290 345 290 345 297 366 c 0,31,32
 310 404 310 404 310 430 c 0,33,34
 310 491 310 491 266 491 c 0,35,36
 225 491 225 491 203 468 c 0,37,38
 188 452 188 452 180.5 415.5 c 128,-1,39
 173 379 173 379 168 342 c 1,40,-1
 160 317 l 1,41,-1
 236 317 l 2,28,29
EndSplineSet
EndChar

StartChar: f
Encoding: 102 102 73
Width: 231
GlyphClass: 2
Flags: W
LayerCount: 2
Fore
SplineSet
156 537 m 1,0,-1
 156 567 l 1,1,-1
 158 578 l 1,2,3
 173 672 173 672 190 689 c 0,4,5
 217 718 217 718 240 722 c 0,6,7
 291 731 291 731 351 731 c 1,8,-1
 344 684 l 1,9,10
 266 684 266 684 248 668.5 c 128,-1,11
 230 653 230 653 218 578 c 1,12,-1
 207 537 l 1,13,-1
 297 537 l 1,14,-1
 288 483 l 1,15,-1
 197 483 l 1,16,-1
 197 453 l 1,17,-1
 125 0 l 1,18,19
 108 -96 108 -96 96 -116 c 128,-1,20
 84 -136 84 -136 69 -153.5 c 128,-1,21
 54 -171 54 -171 36 -180 c 0,22,23
 -9 -200 -9 -200 -72 -200 c 1,24,-1
 -65 -156 l 1,25,26
 -26 -156 -26 -156 -2.5 -147.5 c 128,-1,27
 21 -139 21 -139 35 -116 c 128,-1,28
 49 -93 49 -93 55 -69.5 c 128,-1,29
 61 -46 61 -46 68 0 c 2,30,-1
 138 453 l 1,31,-1
 148 483 l 1,32,-1
 94 483 l 1,33,-1
 103 537 l 1,34,-1
 156 537 l 1,0,-1
EndSplineSet
EndChar

StartChar: g
Encoding: 103 103 74
Width: 373
GlyphClass: 2
Flags: W
LayerCount: 2
Fore
SplineSet
153 -200 m 2,0,-1
 108 -200 l 2,1,2
 78 -200 78 -200 70 -197.5 c 128,-1,3
 62 -195 62 -195 62 -182 c 1,4,-1
 65 -153 l 1,5,-1
 161 -146 l 1,6,7
 216 -146 216 -146 229.5 -131.5 c 128,-1,8
 243 -117 243 -117 253 -57 c 0,9,10
 254 -53 254 -53 254 -50 c 128,-1,11
 254 -47 254 -47 255 -44 c 2,12,-1
 269 39 l 1,13,-1
 185 -7 l 1,14,15
 121 -7 121 -7 95.5 19 c 128,-1,16
 70 45 70 45 70 97.5 c 128,-1,17
 70 150 70 150 74.5 203 c 128,-1,18
 79 256 79 256 91.5 318.5 c 128,-1,19
 104 381 104 381 122.5 431 c 128,-1,20
 141 481 141 481 171.5 514.5 c 128,-1,21
 202 548 202 548 240 548 c 1,22,-1
 348 537 l 1,23,24
 382 537 382 537 392 534.5 c 128,-1,25
 402 532 402 532 402 524 c 128,-1,26
 402 516 402 516 310 -68 c 0,27,28
 298 -144 298 -144 268.5 -172 c 128,-1,29
 239 -200 239 -200 153 -200 c 2,0,-1
142.5 261.5 m 128,-1,31
 131 182 131 182 131 133.5 c 128,-1,32
 131 85 131 85 146 65.5 c 128,-1,33
 161 46 161 46 196 46 c 1,34,-1
 282 91 l 1,35,-1
 280 116 l 1,36,-1
 335 466 l 1,37,-1
 344 491 l 1,38,-1
 251 493 l 2,39,40
 213 493 213 493 183.5 417 c 128,-1,30
 154 341 154 341 142.5 261.5 c 128,-1,31
EndSplineSet
EndChar

StartChar: h
Encoding: 104 104 75
Width: 395
GlyphClass: 2
Flags: W
LayerCount: 2
Fore
SplineSet
232 724 m 0,0,1
 234 720 234 720 234 712 c 128,-1,2
 234 704 234 704 209 544 c 1,3,-1
 304 544 l 2,4,5
 359 544 359 544 381 520.5 c 128,-1,6
 403 497 403 497 403 448 c 128,-1,7
 403 399 403 399 340 0 c 1,8,9
 291 0 291 0 287 8 c 0,10,11
 285 12 285 12 285 19 c 1,12,13
 341 382 341 382 341 418.5 c 128,-1,14
 341 455 341 455 331 473 c 128,-1,15
 321 491 321 491 295 491 c 2,16,-1
 198 491 l 1,17,-1
 198 466 l 1,18,-1
 131 46 l 2,19,20
 126 12 126 12 117.5 6 c 128,-1,21
 109 0 109 0 65 0 c 1,22,-1
 180 732 l 1,23,24
 228 732 228 732 232 724 c 0,0,1
EndSplineSet
EndChar

StartChar: i
Encoding: 105 105 76
Width: 188
GlyphClass: 2
Flags: W
LayerCount: 2
Fore
SplineSet
186 629 m 0,0,1
 152 629 152 629 152 668 c 0,2,3
 152 688 152 688 166 704 c 128,-1,4
 180 720 180 720 201 720 c 0,5,6
 234 720 234 720 234 682 c 0,7,8
 234 661 234 661 220 645 c 128,-1,9
 206 629 206 629 186 629 c 0,0,1
63 4 m 0,10,11
 61 8 61 8 61 16 c 128,-1,12
 61 24 61 24 143 537 c 1,13,14
 178 537 178 537 188 534.5 c 128,-1,15
 198 532 198 532 198 523.5 c 128,-1,16
 198 515 198 515 194 491 c 2,17,-1
 116 -4 l 1,18,19
 67 -4 67 -4 63 4 c 0,10,11
EndSplineSet
EndChar

StartChar: j
Encoding: 106 106 77
Width: 193
GlyphClass: 2
Flags: W
LayerCount: 2
Fore
SplineSet
220 645 m 128,-1,1
 206 629 206 629 188 629 c 0,2,3
 151 629 151 629 151 668 c 0,4,5
 151 689 151 689 165.5 704.5 c 128,-1,6
 180 720 180 720 201 720 c 0,7,8
 234 720 234 720 234 682 c 0,9,0
 234 661 234 661 220 645 c 128,-1,1
188.5 534.5 m 128,-1,11
 198 532 198 532 198 524.5 c 128,-1,12
 198 517 198 517 155 242 c 128,-1,13
 112 -33 112 -33 108 -51.5 c 128,-1,14
 104 -70 104 -70 95.5 -97.5 c 128,-1,15
 87 -125 87 -125 74 -140 c 128,-1,16
 61 -155 61 -155 41 -170 c 0,17,18
 3 -200 3 -200 -80 -200 c 1,19,-1
 -73 -156 l 1,20,21
 -34 -156 -34 -156 -10.5 -147.5 c 128,-1,22
 13 -139 13 -139 27 -115.5 c 128,-1,23
 41 -92 41 -92 46.5 -69.5 c 128,-1,24
 52 -47 52 -47 60 0 c 2,25,-1
 145 537 l 1,26,10
 179 537 179 537 188.5 534.5 c 128,-1,11
EndSplineSet
EndChar

StartChar: k
Encoding: 107 107 78
Width: 355
GlyphClass: 2
Flags: W
LayerCount: 2
Fore
SplineSet
71 8 m 0,0,1
 69 12 69 12 69 20 c 128,-1,2
 69 28 69 28 180 732 c 1,3,4
 229 732 229 732 233 724 c 0,5,6
 235 720 235 720 235 712 c 128,-1,7
 235 704 235 704 124 0 c 1,8,9
 75 0 75 0 71 8 c 0,0,1
346 0 m 1,10,-1
 281 0 l 1,11,-1
 193 293 l 1,12,-1
 352 537 l 1,13,-1
 413 537 l 1,14,-1
 253 293 l 1,15,-1
 346 0 l 1,10,-1
EndSplineSet
EndChar

StartChar: l
Encoding: 108 108 79
Width: 185
GlyphClass: 2
Flags: W
LayerCount: 2
Fore
SplineSet
65 4 m 0,0,1
 63 8 63 8 63 16 c 128,-1,2
 63 24 63 24 175 732 c 1,3,4
 224 732 224 732 228 724 c 0,5,6
 230 720 230 720 230 711.5 c 128,-1,7
 230 703 230 703 118 -4 c 1,8,9
 69 -4 69 -4 65 4 c 0,0,1
EndSplineSet
EndChar

StartChar: m
Encoding: 109 109 80
Width: 583
GlyphClass: 2
Flags: W
LayerCount: 2
Fore
SplineSet
181 523 m 0,0,1
 181 521 181 521 180 514 c 0,2,3
 175 491 175 491 175 486 c 1,4,5
 199 509 199 509 229.5 526.5 c 128,-1,6
 260 544 260 544 275 544 c 0,7,8
 314 544 314 544 342 526 c 128,-1,9
 370 508 370 508 370 477 c 1,10,11
 453 544 453 544 488 544 c 0,12,13
 549 544 549 544 571.5 528.5 c 128,-1,14
 594 513 594 513 594 467.5 c 128,-1,15
 594 422 594 422 528 0 c 1,16,17
 516 0 516 0 508.5 0 c 128,-1,18
 501 0 501 0 494.5 0.5 c 128,-1,19
 488 1 488 1 486.5 1.5 c 128,-1,20
 485 2 485 2 481 3.5 c 128,-1,21
 477 5 477 5 476.5 7.5 c 128,-1,22
 476 10 476 10 474 13.5 c 128,-1,23
 472 17 472 17 472.5 21.5 c 128,-1,24
 473 26 473 26 473.5 32 c 128,-1,25
 474 38 474 38 503 223 c 128,-1,26
 532 408 532 408 532 439 c 128,-1,27
 532 470 532 470 520.5 480.5 c 128,-1,28
 509 491 509 491 489 491 c 128,-1,29
 469 491 469 491 452 482 c 128,-1,30
 435 473 435 473 411.5 457 c 128,-1,31
 388 441 388 441 377 435 c 1,32,-1
 377 410 l 1,33,-1
 313 0 l 1,34,35
 310 0 310 0 291.5 0 c 128,-1,36
 273 0 273 0 266.5 5 c 128,-1,37
 260 10 260 10 260 21.5 c 128,-1,38
 260 33 260 33 266.5 75.5 c 128,-1,39
 273 118 273 118 284.5 191.5 c 128,-1,40
 296 265 296 265 301 296 c 128,-1,41
 306 327 306 327 310 358 c 0,42,43
 317 403 317 403 317 431.5 c 128,-1,44
 317 460 317 460 305.5 475.5 c 128,-1,45
 294 491 294 491 266 491 c 0,46,47
 251 491 251 491 212.5 466 c 128,-1,48
 174 441 174 441 163 435 c 1,49,-1
 163 410 l 1,50,-1
 99 0 l 1,51,52
 50 0 50 0 46 8 c 0,53,54
 44 12 44 12 44 20 c 128,-1,55
 44 28 44 28 47 46 c 2,56,-1
 125 537 l 1,57,58
 162 537 162 537 171.5 535 c 128,-1,59
 181 533 181 533 181 523 c 0,0,1
EndSplineSet
EndChar

StartChar: n
Encoding: 110 110 81
Width: 390
GlyphClass: 2
Flags: W
LayerCount: 2
Fore
SplineSet
191.5 535 m 128,-1,1
 201 533 201 533 201 524.5 c 128,-1,2
 201 516 201 516 197 488 c 1,3,4
 208 494 208 494 230 510 c 0,5,6
 277 544 277 544 295 544 c 0,7,8
 355 544 355 544 377.5 526.5 c 128,-1,9
 400 509 400 509 400 460 c 128,-1,10
 400 411 400 411 335 0 c 1,11,12
 293 0 293 0 287 5.5 c 128,-1,13
 281 11 281 11 281 22.5 c 128,-1,14
 281 34 281 34 310.5 221 c 128,-1,15
 340 408 340 408 340 438.5 c 128,-1,16
 340 469 340 469 329 480 c 128,-1,17
 318 491 318 491 300 491 c 128,-1,18
 282 491 282 491 264.5 482 c 128,-1,19
 247 473 247 473 222 458 c 128,-1,20
 197 443 197 443 185 437 c 1,21,-1
 185 412 l 1,22,-1
 119 0 l 1,23,24
 77 0 77 0 71 5.5 c 128,-1,25
 65 11 65 11 65 22.5 c 128,-1,26
 65 34 65 34 67 46 c 2,27,-1
 145 537 l 1,28,0
 182 537 182 537 191.5 535 c 128,-1,1
EndSplineSet
EndChar

StartChar: o
Encoding: 111 111 82
Width: 374
GlyphClass: 2
Flags: W
LayerCount: 2
Fore
SplineSet
283.5 36 m 128,-1,1
 242 -7 242 -7 181.5 -7 c 128,-1,2
 121 -7 121 -7 96.5 17 c 128,-1,3
 72 41 72 41 72 108.5 c 128,-1,4
 72 176 72 176 81 247.5 c 128,-1,5
 90 319 90 319 111 389 c 128,-1,6
 132 459 132 459 173.5 501.5 c 128,-1,7
 215 544 215 544 275.5 544 c 128,-1,8
 336 544 336 544 361 520.5 c 128,-1,9
 386 497 386 497 386 431.5 c 128,-1,10
 386 366 386 366 376.5 293.5 c 128,-1,11
 367 221 367 221 346 150 c 128,-1,0
 325 79 325 79 283.5 36 c 128,-1,1
194 46 m 128,-1,13
 228 46 228 46 255 89.5 c 128,-1,14
 282 133 282 133 296 196 c 0,15,16
 325 321 325 321 325 421 c 0,17,18
 325 459 325 459 311.5 475 c 128,-1,19
 298 491 298 491 264 491 c 128,-1,20
 230 491 230 491 203 449 c 128,-1,21
 176 407 176 407 162 345 c 0,22,23
 133 223 133 223 133 117 c 0,24,25
 133 79 133 79 146.5 62.5 c 128,-1,12
 160 46 160 46 194 46 c 128,-1,13
EndSplineSet
EndChar

StartChar: p
Encoding: 112 112 83
Width: 400
GlyphClass: 2
Flags: W
LayerCount: 2
Fore
SplineSet
357.5 516 m 128,-1,1
 382 488 382 488 382 428 c 128,-1,2
 382 368 382 368 373.5 299.5 c 128,-1,3
 365 231 365 231 347.5 157.5 c 128,-1,4
 330 84 330 84 294.5 35.5 c 128,-1,5
 259 -13 259 -13 213 -13 c 0,6,7
 194 -13 194 -13 112 39 c 1,8,-1
 74 -200 l 1,9,10
 26 -200 26 -200 22 -192 c 0,11,12
 20 -188 20 -188 20 -180 c 128,-1,13
 20 -172 20 -172 23 -154 c 2,14,-1
 133 537 l 1,15,-1
 272 544 l 1,16,0
 333 544 333 544 357.5 516 c 128,-1,1
206 41 m 0,17,18
 242 41 242 41 270 115 c 128,-1,19
 298 189 298 189 309 267.5 c 128,-1,20
 320 346 320 346 320 401.5 c 128,-1,21
 320 457 320 457 310 474 c 128,-1,22
 300 491 300 491 258 491 c 2,23,-1
 180 491 l 1,24,-1
 180 466 l 1,25,-1
 125 116 l 1,26,-1
 116 91 l 1,27,28
 196 41 196 41 206 41 c 0,17,18
EndSplineSet
EndChar

StartChar: q
Encoding: 113 113 84
Width: 385
GlyphClass: 2
Flags: W
LayerCount: 2
Fore
SplineSet
99.5 19 m 128,-1,1
 74 45 74 45 74 97.5 c 128,-1,2
 74 150 74 150 78.5 203 c 128,-1,3
 83 256 83 256 95.5 318.5 c 128,-1,4
 108 381 108 381 126.5 431 c 128,-1,5
 145 481 145 481 175.5 514.5 c 128,-1,6
 206 548 206 548 244 548 c 1,7,-1
 352 537 l 1,8,9
 386 537 386 537 396 534.5 c 128,-1,10
 406 532 406 532 406 524 c 128,-1,11
 406 516 406 516 293 -200 c 1,12,13
 290 -200 290 -200 271.5 -200 c 128,-1,14
 253 -200 253 -200 246.5 -195 c 128,-1,15
 240 -190 240 -190 240 -178.5 c 128,-1,16
 240 -167 240 -167 242 -154 c 2,17,-1
 273 39 l 1,18,-1
 189 -7 l 1,19,0
 125 -7 125 -7 99.5 19 c 128,-1,1
146.5 261.5 m 128,-1,21
 135 182 135 182 135 133.5 c 128,-1,22
 135 85 135 85 150 65.5 c 128,-1,23
 165 46 165 46 200 46 c 1,24,-1
 286 91 l 1,25,-1
 284 116 l 1,26,-1
 341 466 l 1,27,-1
 350 491 l 1,28,-1
 255 493 l 2,29,30
 217 493 217 493 187.5 417 c 128,-1,20
 158 341 158 341 146.5 261.5 c 128,-1,21
EndSplineSet
EndChar

StartChar: r
Encoding: 114 114 85
Width: 269
GlyphClass: 2
Flags: W
LayerCount: 2
Fore
SplineSet
181 523 m 0,0,1
 181 521 181 521 179 507 c 2,2,-1
 175 482 l 1,3,4
 194 492 194 492 210 507 c 0,5,6
 252 545 252 545 284 545 c 0,7,8
 299 545 299 545 314 537 c 1,9,10
 308 502 308 502 301 496.5 c 128,-1,11
 294 491 294 491 256 491 c 1,12,13
 250 486 250 486 216 463.5 c 128,-1,14
 182 441 182 441 162 423 c 1,15,-1
 162 398 l 1,16,-1
 99 0 l 1,17,18
 50 0 50 0 46 8 c 0,19,20
 44 12 44 12 44 20 c 128,-1,21
 44 28 44 28 47 46 c 2,22,-1
 125 537 l 1,23,24
 162 537 162 537 171.5 535 c 128,-1,25
 181 533 181 533 181 523 c 0,0,1
EndSplineSet
EndChar

StartChar: s
Encoding: 115 115 86
Width: 319
GlyphClass: 2
Flags: W
LayerCount: 2
Fore
SplineSet
58 57 m 1,0,-1
 167 51 l 2,1,2
 172 51 172 51 177 51 c 0,3,4
 208 52 208 52 227.5 89.5 c 128,-1,5
 247 127 247 127 247 171 c 0,6,7
 247 176 247 176 246.5 186.5 c 128,-1,8
 246 197 246 197 230.5 216.5 c 128,-1,9
 215 236 215 236 193 254 c 128,-1,10
 171 272 171 272 149 292 c 0,11,12
 97 339 97 339 95 391 c 1,13,14
 95 441 95 441 108.5 474.5 c 128,-1,15
 122 508 122 508 136 518 c 0,16,17
 171 544 171 544 234 546 c 1,18,-1
 327 535 l 1,19,20
 322 491 322 491 287 489 c 0,21,22
 282 489 282 489 272 491 c 2,23,-1
 232 495 l 1,24,25
 153 492 153 492 153 416 c 0,26,27
 153 367 153 367 231 306 c 0,28,29
 260 284 260 284 284 254 c 0,30,31
 310 222 310 222 310 184.5 c 128,-1,32
 310 147 310 147 298 105 c 128,-1,33
 286 63 286 63 252.5 28.5 c 128,-1,34
 219 -6 219 -6 170 -7 c 0,35,36
 136 -7 136 -7 99.5 -2 c 128,-1,37
 63 3 63 3 52 4 c 1,38,-1
 58 57 l 1,0,-1
EndSplineSet
EndChar

StartChar: t
Encoding: 116 116 87
Width: 229
GlyphClass: 2
Flags: W
LayerCount: 2
Fore
SplineSet
91.5 12 m 128,-1,1
 74 29 74 29 74 68 c 128,-1,2
 74 107 74 107 93 228 c 2,3,-1
 129 458 l 1,4,-1
 137 483 l 1,5,-1
 94 483 l 1,6,-1
 103 537 l 1,7,-1
 146 537 l 1,8,-1
 150 572 l 1,9,-1
 156 616 l 1,10,11
 205 616 205 616 209 608 c 0,12,13
 211 604 211 604 211 596 c 128,-1,14
 211 588 211 588 208 570 c 1,15,-1
 197 537 l 1,16,-1
 289 537 l 1,17,18
 283 500 283 500 275 491.5 c 128,-1,19
 267 483 267 483 232 483 c 2,20,-1
 188 483 l 1,21,-1
 188 458 l 1,22,-1
 152 228 l 2,23,24
 133 105 133 105 134 88 c 1,25,26
 134 46 134 46 163 46 c 2,27,-1
 231 46 l 1,28,-1
 224 0 l 1,29,-1
 154 -5 l 1,30,0
 109 -5 109 -5 91.5 12 c 128,-1,1
EndSplineSet
EndChar

StartChar: u
Encoding: 117 117 88
Width: 395
GlyphClass: 2
Flags: W
LayerCount: 2
Fore
SplineSet
89 16.5 m 128,-1,1
 66 40 66 40 66 90 c 128,-1,2
 66 140 66 140 87 271 c 2,3,-1
 130 537 l 1,4,5
 165 537 165 537 175 534.5 c 128,-1,6
 185 532 185 532 185 523.5 c 128,-1,7
 185 515 185 515 181 491 c 2,8,-1
 147 273 l 2,9,10
 128 148 128 148 128 116 c 0,11,12
 128 46 128 46 174 46 c 1,13,-1
 282 111 l 1,14,-1
 282 136 l 1,15,-1
 346 537 l 1,16,17
 381 537 381 537 391 534.5 c 128,-1,18
 401 532 401 532 401 523.5 c 128,-1,19
 401 515 401 515 397 491 c 2,20,-1
 320 0 l 1,21,22
 284 0 284 0 274 2.5 c 128,-1,23
 264 5 264 5 264 17 c 1,24,-1
 270 59 l 1,25,-1
 169 -7 l 1,26,0
 112 -7 112 -7 89 16.5 c 128,-1,1
EndSplineSet
EndChar

StartChar: v
Encoding: 118 118 89
Width: 327
GlyphClass: 2
Flags: W
LayerCount: 2
Fore
SplineSet
393 531 m 0,0,1
 394 530 394 530 394 528 c 128,-1,2
 394 526 394 526 393 524 c 2,3,-1
 239 80 l 2,4,5
 218 20 218 20 209.5 10 c 128,-1,6
 201 0 201 0 171 0 c 0,7,8
 154 0 154 0 143 12 c 0,9,10
 121 36 121 36 119 80 c 2,11,-1
 105 537 l 1,12,13
 148 537 148 537 155.5 531 c 128,-1,14
 163 525 163 525 163 491 c 2,15,-1
 171 80 l 1,16,-1
 184 80 l 1,17,-1
 339 537 l 1,18,19
 390 537 390 537 393 531 c 0,0,1
EndSplineSet
EndChar

StartChar: w
Encoding: 119 119 90
Width: 533
GlyphClass: 2
Flags: W
LayerCount: 2
Fore
SplineSet
570 537 m 2,0,1
 576 537 576 537 583 536 c 0,2,3
 594 533 594 533 594 524 c 0,4,5
 594 522 594 522 596.5 524.5 c 128,-1,6
 599 527 599 527 599 524 c 0,7,8
 599 506 599 506 449 80 c 0,9,10
 428 21 428 21 419.5 10.5 c 128,-1,11
 411 0 411 0 385 0 c 0,12,13
 367 0 367 0 356 12 c 0,14,15
 333 37 333 37 333 80 c 2,16,-1
 334 397 l 1,17,-1
 327 397 l 1,18,-1
 226 80 l 2,19,20
 207 22 207 22 199 11 c 128,-1,21
 191 0 191 0 168 0 c 0,22,23
 151 0 151 0 140 12 c 0,24,25
 118 36 118 36 116 80 c 2,26,-1
 105 537 l 1,27,28
 148 537 148 537 156 531 c 128,-1,29
 164 525 164 525 164 491 c 2,30,-1
 166 80 l 1,31,-1
 174 80 l 1,32,-1
 301 452 l 2,33,34
 312 483 312 483 342.5 483 c 128,-1,35
 373 483 373 483 380 478.5 c 128,-1,36
 387 474 387 474 387 452 c 2,37,-1
 387 80 l 1,38,-1
 395 80 l 1,39,-1
 546 537 l 1,40,-1
 570 537 l 2,0,1
EndSplineSet
EndChar

StartChar: x
Encoding: 120 120 91
Width: 318
GlyphClass: 2
Flags: W
LayerCount: 2
Fore
SplineSet
330 537 m 2,0,1
 356 537 356 537 356 527 c 128,-1,2
 356 517 356 517 354 511 c 0,3,4
 339 469 339 469 237 281 c 1,5,-1
 298 0 l 1,6,-1
 241 0 l 1,7,-1
 197 226 l 1,8,-1
 185 226 l 1,9,-1
 72 0 l 1,10,11
 42 0 42 0 32 1.5 c 128,-1,12
 22 3 22 3 22 10 c 0,13,14
 22 12 22 12 40 46 c 2,15,-1
 166 292 l 1,16,-1
 116 537 l 1,17,18
 158 537 158 537 167 531.5 c 128,-1,19
 176 526 176 526 184 493 c 1,20,-1
 209 347 l 1,21,-1
 221 347 l 1,22,-1
 309 537 l 1,23,-1
 330 537 l 2,0,1
EndSplineSet
EndChar

StartChar: y
Encoding: 121 121 92
Width: 317
GlyphClass: 2
Flags: W
LayerCount: 2
Fore
SplineSet
378 524 m 0,0,1
 370 465 370 465 199 0 c 0,2,3
 195 -10 195 -10 185.5 -37.5 c 128,-1,4
 176 -65 176 -65 172 -75 c 128,-1,5
 168 -85 168 -85 157.5 -107.5 c 128,-1,6
 147 -130 147 -130 138.5 -139 c 128,-1,7
 130 -148 130 -148 115 -163 c 128,-1,8
 100 -178 100 -178 84 -184 c 0,9,10
 41 -200 41 -200 -5 -200 c 1,11,-1
 1 -153 l 1,12,13
 56 -153 56 -153 88.5 -110.5 c 128,-1,14
 121 -68 121 -68 121 -9 c 0,15,16
 121 24 121 24 105 537 c 1,17,18
 148 537 148 537 155.5 531 c 128,-1,19
 163 525 163 525 164 491 c 2,20,-1
 168 70 l 1,21,-1
 181 70 l 1,22,-1
 328 537 l 1,23,-1
 352 537 l 2,24,25
 372 537 372 537 375 533 c 128,-1,26
 378 529 378 529 378 524 c 0,0,1
EndSplineSet
EndChar

StartChar: z
Encoding: 122 122 93
Width: 333
GlyphClass: 2
Flags: W
LayerCount: 2
Fore
SplineSet
191 537 m 2,0,-1
 376 537 l 1,1,-1
 367 483 l 1,2,-1
 107 53 l 1,3,-1
 243 53 l 2,4,5
 278 53 278 53 287.5 50 c 128,-1,6
 297 47 297 47 297 37.5 c 128,-1,7
 297 28 297 28 293 0 c 1,8,-1
 40 0 l 1,9,-1
 48 53 l 1,10,-1
 299 483 l 1,11,-1
 136 483 l 1,12,13
 143 523 143 523 149.5 530 c 128,-1,14
 156 537 156 537 191 537 c 2,0,-1
EndSplineSet
EndChar

StartChar: braceleft
Encoding: 123 123 94
Width: 240
GlyphClass: 2
Flags: W
LayerCount: 2
Fore
SplineSet
128 -70 m 2,0,1
 97 -70 97 -70 88 -67.5 c 128,-1,2
 79 -65 79 -65 79 -57.5 c 128,-1,3
 79 -50 79 -50 83 -24 c 2,4,-1
 116 189 l 1,5,-1
 70 343 l 1,6,-1
 74 369 l 1,7,-1
 169 524 l 1,8,-1
 209 772 l 1,9,-1
 289 772 l 2,10,11
 320 772 320 772 329 769.5 c 128,-1,12
 338 767 338 767 338 759.5 c 128,-1,13
 338 752 338 752 334 726 c 1,14,-1
 254 726 l 1,15,-1
 222 524 l 1,16,-1
 121 356 l 1,17,-1
 169 189 l 1,18,-1
 136 -24 l 1,19,-1
 163 -24 l 2,20,21
 194 -24 194 -24 203 -26.5 c 128,-1,22
 212 -29 212 -29 212 -36.5 c 128,-1,23
 212 -44 212 -44 208 -70 c 1,24,-1
 128 -70 l 2,0,1
EndSplineSet
EndChar

StartChar: bar
Encoding: 124 124 95
Width: 190
GlyphClass: 2
Flags: W
LayerCount: 2
Fore
SplineSet
232 724 m 0,0,1
 234 720 234 720 234 711 c 128,-1,2
 234 702 234 702 231 686 c 2,3,-1
 91 -200 l 1,4,5
 42 -200 42 -200 38 -192 c 0,6,7
 36 -188 36 -188 36 -180 c 128,-1,8
 36 -172 36 -172 39 -154 c 2,9,-1
 179 732 l 1,10,11
 228 732 228 732 232 724 c 0,0,1
EndSplineSet
EndChar

StartChar: braceright
Encoding: 125 125 96
Width: 239
GlyphClass: 2
Flags: W
LayerCount: 2
Fore
SplineSet
88 -70 m 2,0,-1
 8 -70 l 1,1,2
 14 -36 14 -36 21.5 -30 c 128,-1,3
 29 -24 29 -24 69 -24 c 2,4,-1
 96 -24 l 1,5,-1
 129 189 l 1,6,-1
 231 356 l 1,7,-1
 182 524 l 1,8,-1
 214 726 l 1,9,-1
 134 726 l 1,10,11
 140 761 140 761 147.5 766.5 c 128,-1,12
 155 772 155 772 195 772 c 2,13,-1
 275 772 l 1,14,-1
 235 524 l 1,15,-1
 282 369 l 1,16,-1
 278 343 l 1,17,-1
 182 189 l 1,18,-1
 149 -24 l 2,19,20
 144 -58 144 -58 136 -64 c 128,-1,21
 128 -70 128 -70 88 -70 c 2,0,-1
EndSplineSet
EndChar

StartChar: asciitilde
Encoding: 126 126 97
Width: 377
GlyphClass: 2
Flags: W
LayerCount: 2
Fore
SplineSet
163 359 m 1,0,-1
 332 348 l 1,1,2
 352 348 352 348 365 351 c 1,3,-1
 378 349 l 1,4,-1
 374 328 l 2,5,6
 369 305 369 305 362 301.5 c 128,-1,7
 355 298 355 298 311 298 c 1,8,-1
 140 308 l 2,9,10
 125 308 125 308 109 306 c 1,11,-1
 96 308 l 1,12,-1
 100 329 l 2,13,14
 105 352 105 352 112 355.5 c 128,-1,15
 119 359 119 359 163 359 c 1,0,-1
EndSplineSet
EndChar

StartChar: exclamdown
Encoding: 161 161 99
Width: 162
GlyphClass: 2
Flags: W
LayerCount: 2
Fore
SplineSet
186.5 464.5 m 128,-1,1
 171 451 171 451 153 451 c 128,-1,2
 135 451 135 451 123.5 462 c 128,-1,3
 112 473 112 473 112 492 c 128,-1,4
 112 511 112 511 128.5 526.5 c 128,-1,5
 145 542 145 542 164 542 c 128,-1,6
 183 542 183 542 194 531.5 c 128,-1,7
 205 521 205 521 205 504 c 2,8,-1
 205 497 l 1,9,0
 202 478 202 478 186.5 464.5 c 128,-1,1
3 -178 m 1,10,-1
 101 313 l 2,11,12
 108 349 108 349 114.5 354 c 128,-1,13
 121 359 121 359 164 359 c 1,14,-1
 77 -132 l 2,15,16
 71 -165 71 -165 59.5 -171.5 c 128,-1,17
 48 -178 48 -178 3 -178 c 1,10,-1
EndSplineSet
EndChar

StartChar: cent
Encoding: 162 162 100
Width: 344
GlyphClass: 2
Flags: W
LayerCount: 2
Fore
SplineSet
139 -115.5 m 128,-1,1
 131 -113 131 -113 131 -102.5 c 128,-1,2
 131 -92 131 -92 134 -72 c 2,3,-1
 145 -6 l 1,4,5
 95 -1 95 -1 75.5 23.5 c 128,-1,6
 56 48 56 48 56 95 c 128,-1,7
 56 142 56 142 78 279 c 128,-1,8
 100 416 100 416 116 458 c 0,9,10
 142 523 142 523 201 538 c 0,11,12
 215 542 215 542 232 543 c 1,13,-1
 246 634 l 1,14,15
 276 634 276 634 284 631.5 c 128,-1,16
 292 629 292 629 292 617.5 c 128,-1,17
 292 606 292 606 289 588 c 2,18,-1
 281 542 l 1,19,-1
 369 537 l 1,20,21
 363 502 363 502 356 496.5 c 128,-1,22
 349 491 349 491 311 491 c 2,23,-1
 252 491 l 2,24,25
 194 491 194 491 174.5 448 c 128,-1,26
 155 405 155 405 135.5 280.5 c 128,-1,27
 116 156 116 156 116 119 c 128,-1,28
 116 82 116 82 131 64 c 128,-1,29
 146 46 146 46 174 46 c 0,30,31
 232 46 232 46 292 56 c 1,32,-1
 285 10 l 1,33,-1
 195 -5 l 1,34,-1
 177 -118 l 1,35,0
 147 -118 147 -118 139 -115.5 c 128,-1,1
EndSplineSet
EndChar

StartChar: sterling
Encoding: 163 163 101
Width: 381
GlyphClass: 2
Flags: W
LayerCount: 2
Fore
SplineSet
131 218 m 1,0,1
 93 221 93 221 74 221 c 128,-1,2
 55 221 55 221 39 219 c 1,3,-1
 27 221 l 1,4,-1
 30 242 l 2,5,6
 33 264 33 264 41.5 268 c 128,-1,7
 50 272 50 272 75 272 c 128,-1,8
 100 272 100 272 138 270 c 1,9,-1
 134 284 l 1,10,-1
 179 562 l 1,11,12
 226 562 226 562 230 554 c 0,13,14
 232 550 232 550 232 542 c 128,-1,15
 232 534 232 534 229 516 c 2,16,-1
 191 277 l 1,17,-1
 183 264 l 1,18,19
 222 261 222 261 248 261 c 128,-1,20
 274 261 274 261 288 264 c 1,21,-1
 301 262 l 1,22,-1
 298 241 l 2,23,24
 295 219 295 219 286.5 215 c 128,-1,25
 278 211 278 211 250 211 c 128,-1,26
 222 211 222 211 176 213 c 1,27,-1
 179 201 l 1,28,-1
 160 81 l 1,29,-1
 152 56 l 1,30,-1
 281 56 l 2,31,32
 329 56 329 56 333 48 c 0,33,34
 335 44 335 44 335 35 c 128,-1,35
 335 26 335 26 332 10 c 2,36,-1
 330 -1 l 1,37,-1
 89 -1 l 1,38,-1
 122 205 l 1,39,-1
 131 218 l 1,0,1
EndSplineSet
EndChar

StartChar: currency
Encoding: 164 164 102
Width: 486
GlyphClass: 2
Flags: W
LayerCount: 2
Fore
SplineSet
361.5 326.5 m 128,-1,1
 390 353 390 353 390 385 c 128,-1,2
 390 417 390 417 370.5 436 c 128,-1,3
 351 455 351 455 320.5 455 c 128,-1,4
 290 455 290 455 263 432 c 0,5,6
 230 405 230 405 230 371 c 128,-1,7
 230 337 230 337 249 318.5 c 128,-1,8
 268 300 268 300 300.5 300 c 128,-1,0
 333 300 333 300 361.5 326.5 c 128,-1,1
367 269 m 1,9,10
 329 247 329 247 290.5 247 c 128,-1,11
 252 247 252 247 224 266 c 1,12,-1
 138 201 l 1,13,14
 119 223 119 223 119 231.5 c 128,-1,15
 119 240 119 240 152 269 c 2,16,-1
 192 303 l 1,17,18
 176 332 176 332 176 362 c 0,19,20
 176 411 176 411 213 450 c 1,21,-1
 160 525 l 1,22,23
 187 549 187 549 195.5 549 c 128,-1,24
 204 549 204 549 227 522 c 2,25,-1
 256 487 l 1,26,27
 293 508 293 508 332.5 508 c 128,-1,28
 372 508 372 508 402 484 c 1,29,-1
 487 549 l 1,30,31
 506 525 506 525 506 519 c 0,32,33
 505 506 505 506 474 481 c 2,34,-1
 433 447 l 1,35,36
 444 423 444 423 444 397 c 0,37,38
 444 348 444 348 409 305 c 1,39,-1
 462 230 l 1,40,41
 435 206 435 206 424.5 206.5 c 128,-1,42
 414 207 414 207 394 233 c 2,43,-1
 366 268 l 1,44,-1
 367 269 l 1,9,10
EndSplineSet
EndChar

StartChar: yen
Encoding: 165 165 103
Width: 402
GlyphClass: 2
Flags: W
LayerCount: 2
Fore
SplineSet
223 0 m 2,0,1
 190 0 190 0 181.5 2.5 c 128,-1,2
 173 5 173 5 173 16.5 c 128,-1,3
 173 28 173 28 176 46 c 2,4,-1
 181 77 l 1,5,-1
 187 87 l 1,6,7
 146 90 146 90 126.5 90 c 128,-1,8
 107 90 107 90 89 88 c 1,9,-1
 77 90 l 1,10,-1
 80 111 l 2,11,12
 83 133 83 133 91.5 137 c 128,-1,13
 100 141 100 141 126.5 141 c 128,-1,14
 153 141 153 141 195 139 c 1,15,-1
 192 149 l 1,16,-1
 196 171 l 1,17,-1
 202 183 l 1,18,19
 162 186 162 186 141.5 186 c 128,-1,20
 121 186 121 186 105 184 c 1,21,-1
 92 186 l 1,22,-1
 95 207 l 2,23,24
 98 229 98 229 106 233 c 128,-1,25
 114 237 114 237 140 237 c 128,-1,26
 166 237 166 237 212 235 c 1,27,-1
 210 263 l 1,28,-1
 119 537 l 1,29,-1
 134 537 l 2,30,31
 166 537 166 537 173.5 531.5 c 128,-1,32
 181 526 181 526 193 491 c 2,33,-1
 246 333 l 1,34,-1
 258 333 l 1,35,-1
 384 537 l 1,36,-1
 399 537 l 2,37,38
 424 537 424 537 432.5 535.5 c 128,-1,39
 441 534 441 534 441 528 c 2,40,-1
 441 527 l 2,41,42
 441 521 441 521 369 413 c 128,-1,43
 297 305 297 305 269 263 c 1,44,-1
 258 229 l 1,45,46
 297 226 297 226 319.5 226 c 128,-1,47
 342 226 342 226 357 229 c 1,48,-1
 369 227 l 1,49,-1
 366 206 l 2,50,51
 363 184 363 184 354.5 180 c 128,-1,52
 346 176 346 176 319 176 c 128,-1,53
 292 176 292 176 252 178 c 1,54,-1
 254 168 l 1,55,-1
 250 142 l 1,56,-1
 245 133 l 1,57,58
 281 130 281 130 304 130 c 128,-1,59
 327 130 327 130 342 133 c 1,60,-1
 354 131 l 1,61,-1
 351 110 l 2,62,63
 348 88 348 88 339.5 84 c 128,-1,64
 331 80 331 80 303.5 80 c 128,-1,65
 276 80 276 80 236 82 c 1,66,-1
 239 71 l 1,67,-1
 228 0 l 1,68,-1
 223 0 l 2,0,1
EndSplineSet
EndChar

StartChar: brokenbar
Encoding: 166 166 104
Width: 176
GlyphClass: 2
Flags: W
LayerCount: 2
Fore
SplineSet
231 722 m 0,0,1
 233 718 233 718 233 712 c 128,-1,2
 233 706 233 706 231 686 c 1,3,-1
 173 322 l 1,4,5
 135 322 135 322 124.5 324.5 c 128,-1,6
 114 327 114 327 114 335.5 c 128,-1,7
 114 344 114 344 118 368 c 2,8,-1
 175 732 l 1,9,10
 227 732 227 732 231 722 c 0,0,1
149 204 m 0,11,12
 151 200 151 200 151 194 c 128,-1,13
 151 188 151 188 149 168 c 1,14,-1
 91 -196 l 1,15,16
 53 -196 53 -196 42.5 -193.5 c 128,-1,17
 32 -191 32 -191 32 -182.5 c 128,-1,18
 32 -174 32 -174 36 -150 c 2,19,-1
 93 214 l 1,20,21
 145 214 145 214 149 204 c 0,11,12
EndSplineSet
EndChar

StartChar: section
Encoding: 167 167 105
Width: 326
GlyphClass: 2
Flags: W
LayerCount: 2
Fore
SplineSet
319 178 m 1,0,-1
 318 166 l 1,1,2
 314 143 314 143 312 130.5 c 128,-1,3
 310 118 310 118 304 96.5 c 128,-1,4
 298 75 298 75 291 63 c 128,-1,5
 284 51 284 51 272 35.5 c 128,-1,6
 260 20 260 20 244 12 c 0,7,8
 208 -7 208 -7 156 -7 c 0,9,10
 125 -7 125 -7 87.5 5 c 128,-1,11
 50 17 50 17 37 20 c 1,12,-1
 44 66 l 1,13,14
 57 64 57 64 82 58 c 0,15,16
 132 46 132 46 162 46 c 128,-1,17
 192 46 192 46 208.5 54 c 128,-1,18
 225 62 225 62 234 82 c 1,19,20
 248 109 248 109 256 160 c 1,21,-1
 256 165 l 2,22,23
 256 198 256 198 176 268 c 0,24,25
 147 294 147 294 122 330 c 128,-1,26
 97 366 97 366 97 399 c 0,27,28
 97 491 97 491 148 523 c 1,29,30
 128 555 128 555 128 583 c 0,31,32
 128 588 128 588 132 612.5 c 128,-1,33
 136 637 136 637 141 654 c 128,-1,34
 146 671 146 671 161 692 c 0,35,36
 188 731 188 731 285 731 c 1,37,-1
 378 717 l 1,38,39
 370 670 370 670 333 670 c 0,40,41
 328 670 328 670 320 672 c 2,42,-1
 280 678 l 1,43,44
 226 678 226 678 207 658 c 128,-1,45
 188 638 188 638 188 599 c 256,46,47
 188 560 188 560 269 492 c 0,48,49
 299 466 299 466 324.5 431.5 c 128,-1,50
 350 397 350 397 350 363.5 c 128,-1,51
 350 330 350 330 338 289.5 c 128,-1,52
 326 249 326 249 306 225 c 1,53,54
 319 201 319 201 319 178 c 1,0,-1
158 418 m 0,55,56
 157 415 157 415 157 403 c 128,-1,57
 157 391 157 391 171.5 371 c 128,-1,58
 186 351 186 351 222.5 317.5 c 128,-1,59
 259 284 259 284 269 273 c 1,60,61
 287 311 287 311 287 352 c 0,62,63
 287 369 287 369 274.5 386.5 c 128,-1,64
 262 404 262 404 227.5 436.5 c 128,-1,65
 193 469 193 469 184 478 c 1,66,67
 165 466 165 466 158 418 c 0,55,56
EndSplineSet
EndChar

StartChar: dieresis
Encoding: 168 168 106
Width: 341
GlyphClass: 2
Flags: W
LayerCount: 2
Fore
SplineSet
212 720 m 128,-1,1
 230 720 230 720 240.5 709 c 128,-1,2
 251 698 251 698 251 679.5 c 128,-1,3
 251 661 251 661 234.5 645 c 128,-1,4
 218 629 218 629 199.5 629 c 128,-1,5
 181 629 181 629 169.5 640 c 128,-1,6
 158 651 158 651 158 662 c 0,7,8
 158 691 158 691 176 705.5 c 128,-1,0
 194 720 194 720 212 720 c 128,-1,1
354.5 720 m 128,-1,10
 372 720 372 720 383 709 c 128,-1,11
 394 698 394 698 394 679.5 c 128,-1,12
 394 661 394 661 377.5 645 c 128,-1,13
 361 629 361 629 342.5 629 c 128,-1,14
 324 629 324 629 312.5 640 c 128,-1,15
 301 651 301 651 301 662 c 0,16,17
 301 691 301 691 319 705.5 c 128,-1,9
 337 720 337 720 354.5 720 c 128,-1,10
EndSplineSet
EndChar

StartChar: copyright
Encoding: 169 169 107
Width: 653
GlyphClass: 2
Flags: W
LayerCount: 2
Fore
SplineSet
281 172.5 m 128,-1,1
 265 194 265 194 265 232.5 c 128,-1,2
 265 271 265 271 271 306.5 c 128,-1,3
 277 342 277 342 290 377 c 128,-1,4
 303 412 303 412 328.5 433.5 c 128,-1,5
 354 455 354 455 388 455 c 0,6,7
 393 455 393 455 471 450 c 1,8,9
 467 423 467 423 462 418.5 c 128,-1,10
 457 414 457 414 433 414 c 2,11,-1
 390 414 l 2,12,13
 354 414 354 414 332 360.5 c 128,-1,14
 310 307 310 307 310 251.5 c 128,-1,15
 310 196 310 196 344 196 c 1,16,-1
 432 206 l 1,17,-1
 425 164 l 1,18,-1
 337 151 l 1,19,0
 297 151 297 151 281 172.5 c 128,-1,1
661 345 m 0,20,21
 661 209 661 209 562 119.5 c 128,-1,22
 463 30 463 30 326 30 c 0,23,24
 214 30 214 30 148.5 85.5 c 128,-1,25
 83 141 83 141 83 244 c 0,26,27
 83 329 83 329 126.5 408.5 c 128,-1,28
 170 488 170 488 248.5 539 c 128,-1,29
 327 590 327 590 427 590 c 128,-1,30
 527 590 527 590 594 520.5 c 128,-1,31
 661 451 661 451 661 345 c 0,20,21
609 338 m 0,32,33
 609 425 609 425 554.5 482 c 128,-1,34
 500 539 500 539 411 539 c 0,35,36
 301 539 301 539 218 453 c 128,-1,37
 135 367 135 367 135 253 c 0,38,39
 135 169 135 169 188 125 c 128,-1,40
 241 81 241 81 334 81 c 0,41,42
 449 81 449 81 529 153 c 128,-1,43
 609 225 609 225 609 338 c 0,32,33
EndSplineSet
EndChar

StartChar: ordfeminine
Encoding: 170 170 108
Width: 271
GlyphClass: 2
Flags: W
LayerCount: 2
Fore
SplineSet
173 523 m 0,0,1
 163 466 163 466 163 451 c 128,-1,2
 163 436 163 436 166.5 434 c 128,-1,3
 170 432 170 432 182 432 c 1,4,-1
 238 462 l 1,5,-1
 252 550 l 1,6,7
 214 550 214 550 195 545 c 128,-1,8
 176 540 176 540 173 523 c 0,0,1
123.5 400 m 128,-1,10
 117 408 117 408 117 425.5 c 128,-1,11
 117 443 117 443 129 522 c 0,12,13
 141 597 141 597 263 597 c 1,14,-1
 270 643 l 1,15,16
 273 656 273 656 273 668 c 0,17,18
 273 692 273 692 234 692 c 2,19,-1
 199 692 l 2,20,21
 178 692 178 692 172.5 693.5 c 128,-1,22
 167 695 167 695 167 700.5 c 128,-1,23
 167 706 167 706 169 724 c 1,24,-1
 241 733 l 1,25,26
 284 733 284 733 300 721.5 c 128,-1,27
 316 710 316 710 316 685 c 0,28,29
 316 683 316 683 311 643 c 1,30,-1
 272 394 l 1,31,32
 247 394 247 394 240.5 396 c 128,-1,33
 234 398 234 398 234 404.5 c 128,-1,34
 234 411 234 411 236 429 c 1,35,-1
 173 389 l 1,36,37
 149 389 149 389 139.5 390.5 c 128,-1,9
 130 392 130 392 123.5 400 c 128,-1,10
EndSplineSet
EndChar

StartChar: guillemotleft
Encoding: 171 171 109
Width: 323
GlyphClass: 2
Flags: W
LayerCount: 2
Fore
SplineSet
181 135 m 1,0,-1
 126 135 l 1,1,-1
 80 289 l 1,2,-1
 84 315 l 1,3,-1
 180 470 l 1,4,-1
 234 470 l 1,5,-1
 131 302 l 1,6,-1
 181 135 l 1,0,-1
294 135 m 1,7,-1
 239 135 l 1,8,-1
 193 289 l 1,9,-1
 197 315 l 1,10,-1
 293 470 l 1,11,-1
 347 470 l 1,12,-1
 244 302 l 1,13,-1
 294 135 l 1,7,-1
EndSplineSet
EndChar

StartChar: logicalnot
Encoding: 172 172 110
Width: 356
GlyphClass: 2
Flags: W
LayerCount: 2
Fore
SplineSet
284 222 m 1,0,-1
 296 302 l 1,1,-1
 76 302 l 1,2,-1
 85 355 l 1,3,-1
 351 355 l 1,4,-1
 338 275 l 2,5,6
 331 235 331 235 324.5 228.5 c 128,-1,7
 318 222 318 222 284 222 c 1,0,-1
EndSplineSet
EndChar

StartChar: registered
Encoding: 174 174 111
Width: 653
GlyphClass: 2
Flags: W
LayerCount: 2
Fore
SplineSet
454 451 m 128,-1,1
 474 437 474 437 474 404.5 c 128,-1,2
 474 372 474 372 472.5 356 c 128,-1,3
 471 340 471 340 464 320 c 0,4,5
 451 282 451 282 395 282 c 1,6,-1
 440 152 l 1,7,8
 409 152 409 152 400.5 156.5 c 128,-1,9
 392 161 392 161 385 178 c 1,10,-1
 350 281 l 1,11,-1
 336 281 l 1,12,-1
 318 181 l 2,13,14
 314 159 314 159 307.5 155.5 c 128,-1,15
 301 152 301 152 268 152 c 1,16,-1
 316 460 l 1,17,-1
 388 465 l 1,18,0
 434 465 434 465 454 451 c 128,-1,1
370 322 m 2,19,20
 410 322 410 322 419 333.5 c 128,-1,21
 428 345 428 345 428 395 c 0,22,23
 428 410 428 410 418 416.5 c 128,-1,24
 408 423 408 423 382 423 c 2,25,-1
 354 423 l 1,26,-1
 354 418 l 1,27,-1
 346 335 l 1,28,-1
 342 322 l 1,29,-1
 370 322 l 2,19,20
326 0 m 0,30,31
 217 0 217 0 150 69 c 128,-1,32
 83 138 83 138 83 244 c 0,33,34
 83 272 83 272 87 295 c 0,35,36
 107 418 107 418 202 504 c 128,-1,37
 297 590 297 590 412 590 c 128,-1,38
 527 590 527 590 594 520.5 c 128,-1,39
 661 451 661 451 661 345 c 0,40,41
 661 206 661 206 560.5 103 c 128,-1,42
 460 0 460 0 326 0 c 0,30,31
334 51 m 0,43,44
 446 51 446 51 527.5 136.5 c 128,-1,45
 609 222 609 222 609 338 c 0,46,47
 609 425 609 425 554.5 482 c 128,-1,48
 500 539 500 539 405.5 539 c 128,-1,49
 311 539 311 539 233 468 c 0,50,51
 135 379 135 379 135 253 c 0,52,53
 135 165 135 165 190 108 c 128,-1,54
 245 51 245 51 334 51 c 0,43,44
EndSplineSet
EndChar

StartChar: macron
Encoding: 175 175 112
Width: 336
GlyphClass: 2
Flags: W
LayerCount: 2
Fore
SplineSet
379 669 m 1,0,-1
 165 669 l 1,1,-1
 174 720 l 1,2,-1
 388 720 l 1,3,-1
 379 669 l 1,0,-1
EndSplineSet
EndChar

StartChar: degree
Encoding: 176 176 113
Width: 348
GlyphClass: 2
Flags: W
LayerCount: 2
Fore
SplineSet
370.5 699 m 128,-1,1
 403 667 403 667 403 614 c 128,-1,2
 403 561 403 561 355 515.5 c 128,-1,3
 307 470 307 470 253 470 c 128,-1,4
 199 470 199 470 166.5 501.5 c 128,-1,5
 134 533 134 533 134 580 c 0,6,7
 134 647 134 647 184.5 689 c 128,-1,8
 235 731 235 731 286.5 731 c 128,-1,0
 338 731 338 731 370.5 699 c 128,-1,1
319.5 549 m 128,-1,10
 349 575 349 575 349 607 c 128,-1,11
 349 639 349 639 329 658.5 c 128,-1,12
 309 678 309 678 278.5 678 c 128,-1,13
 248 678 248 678 222 656 c 0,14,15
 189 628 189 628 189 593.5 c 128,-1,16
 189 559 189 559 207.5 541 c 128,-1,17
 226 523 226 523 258 523 c 128,-1,9
 290 523 290 523 319.5 549 c 128,-1,10
EndSplineSet
EndChar

StartChar: plusminus
Encoding: 177 177 114
Width: 279
GlyphClass: 2
Flags: W
LayerCount: 2
Fore
SplineSet
224 408 m 1,0,-1
 224 383 l 1,1,-1
 211 316 l 1,2,-1
 160 316 l 1,3,-1
 173 383 l 1,4,-1
 181 408 l 1,5,-1
 96 408 l 1,6,-1
 104 459 l 1,7,-1
 189 459 l 1,8,-1
 189 484 l 1,9,-1
 202 550 l 1,10,-1
 253 550 l 1,11,-1
 240 484 l 1,12,-1
 232 459 l 1,13,-1
 318 459 l 1,14,-1
 310 408 l 1,15,-1
 224 408 l 1,0,-1
280 216 m 1,16,-1
 66 216 l 1,17,-1
 74 267 l 1,18,-1
 288 267 l 1,19,-1
 280 216 l 1,16,-1
EndSplineSet
EndChar

StartChar: twosuperior
Encoding: 178 178 115
Width: 270
GlyphClass: 2
Flags: W
LayerCount: 2
Fore
SplineSet
265 669 m 128,-1,1
 265 691 265 691 235 691 c 2,2,-1
 204 691 l 2,3,4
 203 691 203 691 196 691 c 128,-1,5
 189 691 189 691 184 692 c 0,6,7
 175 693 175 693 175 702.5 c 128,-1,8
 175 712 175 712 178 730 c 1,9,-1
 244 735 l 1,10,11
 285 734 285 734 300.5 722 c 128,-1,12
 316 710 316 710 316 690 c 128,-1,13
 316 670 316 670 312 646.5 c 128,-1,14
 308 623 308 623 280.5 599 c 128,-1,15
 253 575 253 575 225 555 c 128,-1,16
 197 535 197 535 193 517 c 1,17,-1
 185 467 l 1,18,-1
 285 467 l 1,19,-1
 278 423 l 1,20,-1
 130 423 l 1,21,-1
 146 520 l 2,22,23
 150 544 150 544 169.5 564.5 c 128,-1,24
 189 585 189 585 210 597 c 128,-1,25
 231 609 231 609 248 628 c 128,-1,0
 265 647 265 647 265 669 c 128,-1,1
EndSplineSet
EndChar

StartChar: threesuperior
Encoding: 179 179 116
Width: 256
GlyphClass: 2
Flags: W
LayerCount: 2
Fore
SplineSet
138 466 m 1,0,1
 191 461 191 461 205.5 461 c 128,-1,2
 220 461 220 461 225.5 473.5 c 128,-1,3
 231 486 231 486 237.5 528.5 c 128,-1,4
 244 571 244 571 244 584.5 c 128,-1,5
 244 598 244 598 239.5 602 c 128,-1,6
 235 606 235 606 224 606 c 2,7,-1
 189 606 l 1,8,-1
 244 688 l 1,9,-1
 173 688 l 1,10,-1
 180 732 l 1,11,-1
 317 732 l 1,12,-1
 250 638 l 1,13,14
 275 631 275 631 284 621.5 c 128,-1,15
 293 612 293 612 293 596 c 128,-1,16
 293 580 293 580 284 521.5 c 128,-1,17
 275 463 275 463 259 440 c 128,-1,18
 243 417 243 417 196 417 c 0,19,20
 188 417 188 417 132 425 c 1,21,-1
 138 466 l 1,0,1
EndSplineSet
EndChar

StartChar: acute
Encoding: 180 180 117
Width: 173
GlyphClass: 2
Flags: W
LayerCount: 2
Fore
SplineSet
274 701 m 1,0,-1
 140 587 l 1,1,-1
 111 623 l 1,2,-1
 191 699 l 1,3,4
 230 732 230 732 238.5 732 c 128,-1,5
 247 732 247 732 274 701 c 1,0,-1
EndSplineSet
EndChar

StartChar: mu
Encoding: 181 181 118
Width: 380
GlyphClass: 2
Flags: W
LayerCount: 2
Fore
SplineSet
198 531 m 0,0,1
 200 527 200 527 200 519 c 128,-1,2
 200 511 200 511 197 493 c 2,3,-1
 135 107 l 1,4,-1
 126 85 l 1,5,-1
 220 48 l 1,6,7
 263 48 263 48 282 75 c 0,8,9
 294 91 294 91 301.5 105 c 128,-1,10
 309 119 309 119 316 151 c 0,11,12
 328 201 328 201 339 272 c 2,13,-1
 374 493 l 2,14,15
 379 528 379 528 387.5 533.5 c 128,-1,16
 396 539 396 539 440 539 c 1,17,-1
 398 273 l 1,18,19
 375 118 375 118 356 80 c 0,20,21
 331 27 331 27 305 15 c 0,22,23
 262 -5 262 -5 212 -5 c 1,24,-1
 118 34 l 1,25,-1
 118 4 l 1,26,-1
 94 -147 l 2,27,28
 89 -181 89 -181 80.5 -187 c 128,-1,29
 72 -193 72 -193 29 -193 c 1,30,-1
 145 539 l 1,31,32
 194 539 194 539 198 531 c 0,0,1
EndSplineSet
EndChar

StartChar: paragraph
Encoding: 182 182 119
Width: 510
GlyphClass: 2
Flags: W
LayerCount: 2
Fore
SplineSet
123 580 m 0,0,1
 123 645 123 645 172.5 687.5 c 128,-1,2
 222 730 222 730 276 731 c 1,3,-1
 595 731 l 1,4,-1
 585 668 l 1,5,-1
 476 668 l 1,6,-1
 478 649 l 1,7,-1
 376 0 l 1,8,-1
 313 0 l 1,9,-1
 415 649 l 1,10,-1
 423 668 l 1,11,-1
 324 668 l 1,12,-1
 326 649 l 1,13,-1
 224 0 l 1,14,-1
 161 0 l 1,15,-1
 235 470 l 1,16,17
 187 471 187 471 155 502.5 c 128,-1,18
 123 534 123 534 123 580 c 0,0,1
EndSplineSet
EndChar

StartChar: periodcentered
Encoding: 183 183 120
Width: 176
GlyphClass: 2
Flags: W
LayerCount: 2
Fore
SplineSet
142 346 m 128,-1,1
 160 346 160 346 171 335.5 c 128,-1,2
 182 325 182 325 182 306 c 128,-1,3
 182 287 182 287 165.5 271 c 128,-1,4
 149 255 149 255 130.5 255 c 128,-1,5
 112 255 112 255 100.5 266 c 128,-1,6
 89 277 89 277 89 288 c 0,7,8
 89 317 89 317 106.5 331.5 c 128,-1,0
 124 346 124 346 142 346 c 128,-1,1
EndSplineSet
EndChar

StartChar: cedilla
Encoding: 184 184 121
Width: 177
GlyphClass: 2
Flags: W
LayerCount: 2
Fore
SplineSet
68 -155 m 2,0,-1
 33 -155 l 2,1,2
 -7 -155 -7 -155 -11 -151 c 128,-1,3
 -15 -147 -15 -147 -15 -136.5 c 128,-1,4
 -15 -126 -15 -126 -13 -109 c 1,5,-1
 74 -109 l 1,6,-1
 92 0 l 1,7,-1
 138 0 l 1,8,-1
 120 -109 l 2,9,10
 115 -139 115 -139 106.5 -147 c 128,-1,11
 98 -155 98 -155 68 -155 c 2,0,-1
EndSplineSet
EndChar

StartChar: onesuperior
Encoding: 185 185 122
Width: 184
GlyphClass: 2
Flags: W
LayerCount: 2
Fore
SplineSet
216 733 m 2,0,1
 234 733 234 733 239.5 731 c 128,-1,2
 245 729 245 729 245 723.5 c 128,-1,3
 245 718 245 718 241 690 c 2,4,-1
 198 423 l 1,5,-1
 149 423 l 1,6,-1
 191 687 l 1,7,-1
 146 676 l 1,8,-1
 153 722 l 1,9,-1
 188 733 l 1,10,-1
 216 733 l 2,0,1
EndSplineSet
EndChar

StartChar: ordmasculine
Encoding: 186 186 123
Width: 282
GlyphClass: 2
Flags: W
LayerCount: 2
Fore
SplineSet
274.5 424 m 128,-1,1
 252 391 252 391 204 391 c 128,-1,2
 156 391 156 391 139.5 406 c 128,-1,3
 123 421 123 421 123 459 c 128,-1,4
 123 497 123 497 137.5 587 c 128,-1,5
 152 677 152 677 172 704.5 c 128,-1,6
 192 732 192 732 242.5 732 c 128,-1,7
 293 732 293 732 309 720 c 128,-1,8
 325 708 325 708 325 672.5 c 128,-1,9
 325 637 325 637 311 547 c 128,-1,0
 297 457 297 457 274.5 424 c 128,-1,1
178 449.5 m 128,-1,11
 186 442 186 442 209.5 442 c 128,-1,12
 233 442 233 442 244 462.5 c 128,-1,13
 255 483 255 483 266 553 c 128,-1,14
 277 623 277 623 277 646.5 c 128,-1,15
 277 670 277 670 269.5 675.5 c 128,-1,16
 262 681 262 681 242 681 c 128,-1,17
 222 681 222 681 214 676 c 0,18,19
 196 666 196 666 183 582.5 c 128,-1,20
 170 499 170 499 170 478 c 128,-1,10
 170 457 170 457 178 449.5 c 128,-1,11
EndSplineSet
EndChar

StartChar: guillemotright
Encoding: 187 187 124
Width: 323
GlyphClass: 2
Flags: W
LayerCount: 2
Fore
SplineSet
239 135 m 1,0,-1
 184 135 l 1,1,-1
 286 302 l 1,2,-1
 237 470 l 1,3,-1
 291 470 l 1,4,-1
 337 315 l 1,5,-1
 333 289 l 1,6,-1
 239 135 l 1,0,-1
126 135 m 1,7,-1
 71 135 l 1,8,-1
 173 302 l 1,9,-1
 124 470 l 1,10,-1
 178 470 l 1,11,-1
 224 315 l 1,12,-1
 220 289 l 1,13,-1
 126 135 l 1,7,-1
EndSplineSet
EndChar

StartChar: onequarter
Encoding: 188 188 125
Width: 277
GlyphClass: 2
Flags: W
LayerCount: 2
Fore
SplineSet
177 0 m 1,0,-1
 137 0 l 1,1,-1
 146 57 l 1,2,-1
 153 75 l 1,3,-1
 28 75 l 1,4,-1
 177 306 l 1,5,-1
 225 306 l 1,6,-1
 197 128 l 1,7,-1
 189 113 l 1,8,-1
 217 113 l 1,9,-1
 211 75 l 1,10,-1
 183 75 l 1,11,-1
 186 57 l 1,12,-1
 177 0 l 1,0,-1
159 113 m 1,13,-1
 157 128 l 1,14,-1
 173 229 l 1,15,-1
 94 113 l 1,16,-1
 159 113 l 1,13,-1
255 733 m 2,17,18
 273 733 273 733 278.5 731 c 128,-1,19
 284 729 284 729 284 723.5 c 128,-1,20
 284 718 284 718 280 690 c 2,21,-1
 237 423 l 1,22,-1
 188 423 l 1,23,-1
 230 687 l 1,24,-1
 184 676 l 1,25,-1
 191 722 l 1,26,-1
 227 733 l 1,27,-1
 255 733 l 2,17,18
296 342 m 1,28,-1
 93 342 l 1,29,-1
 100 389 l 1,30,-1
 303 389 l 1,31,-1
 296 342 l 1,28,-1
EndSplineSet
EndChar

StartChar: onehalf
Encoding: 189 189 126
Width: 302
GlyphClass: 2
Flags: W
LayerCount: 2
Fore
SplineSet
219 246 m 0,0,1
 219 268 219 268 189 268 c 2,2,-1
 158 268 l 2,3,4
 157 268 157 268 150 268 c 128,-1,5
 143 268 143 268 138 268 c 1,6,7
 129 270 129 270 129 279.5 c 128,-1,8
 129 289 129 289 132 307 c 1,9,-1
 198 312 l 1,10,11
 239 311 239 311 254.5 299 c 128,-1,12
 270 287 270 287 270 267 c 128,-1,13
 270 247 270 247 266 223.5 c 128,-1,14
 262 200 262 200 234.5 176 c 128,-1,15
 207 152 207 152 179 132 c 128,-1,16
 151 112 151 112 147 94 c 1,17,-1
 139 44 l 1,18,-1
 239 44 l 1,19,-1
 233 0 l 1,20,-1
 85 0 l 1,21,-1
 100 97 l 2,22,23
 104 123 104 123 132 147 c 128,-1,24
 160 171 160 171 187.5 192.5 c 128,-1,25
 215 214 215 214 218 232 c 0,26,27
 219 237 219 237 219 246 c 0,0,1
272 733 m 2,28,29
 290 733 290 733 295.5 731 c 128,-1,30
 301 729 301 729 301 723.5 c 128,-1,31
 301 718 301 718 297 690 c 2,32,-1
 254 423 l 1,33,-1
 205 423 l 1,34,-1
 247 687 l 1,35,-1
 202 676 l 1,36,-1
 209 722 l 1,37,-1
 244 733 l 1,38,-1
 272 733 l 2,28,29
316 342 m 1,39,-1
 113 342 l 1,40,-1
 120 389 l 1,41,-1
 323 389 l 1,42,-1
 316 342 l 1,39,-1
EndSplineSet
EndChar

StartChar: threequarters
Encoding: 190 190 127
Width: 282
GlyphClass: 2
Flags: W
LayerCount: 2
Fore
SplineSet
296 342 m 1,0,-1
 93 342 l 1,1,-1
 100 389 l 1,2,-1
 303 389 l 1,3,-1
 296 342 l 1,0,-1
181 0 m 1,4,-1
 141 0 l 1,5,-1
 150 57 l 1,6,-1
 157 75 l 1,7,-1
 32 75 l 1,8,-1
 181 306 l 1,9,-1
 229 306 l 1,10,-1
 201 128 l 1,11,-1
 193 113 l 1,12,-1
 221 113 l 1,13,-1
 215 75 l 1,14,-1
 187 75 l 1,15,-1
 190 57 l 1,16,-1
 181 0 l 1,4,-1
163 113 m 1,17,-1
 161 128 l 1,18,-1
 177 229 l 1,19,-1
 98 113 l 1,20,-1
 163 113 l 1,17,-1
138 466 m 1,21,22
 191 461 191 461 205.5 461 c 128,-1,23
 220 461 220 461 225.5 473.5 c 128,-1,24
 231 486 231 486 237.5 528.5 c 128,-1,25
 244 571 244 571 244 584.5 c 128,-1,26
 244 598 244 598 239.5 602 c 128,-1,27
 235 606 235 606 224 606 c 2,28,-1
 189 606 l 1,29,-1
 244 688 l 1,30,-1
 173 688 l 1,31,-1
 180 732 l 1,32,-1
 317 732 l 1,33,-1
 250 638 l 1,34,35
 275 630 275 630 284 621 c 128,-1,36
 293 612 293 612 293 596 c 128,-1,37
 293 580 293 580 284 521.5 c 128,-1,38
 275 463 275 463 259 440 c 128,-1,39
 243 417 243 417 196 417 c 0,40,41
 188 417 188 417 132 425 c 1,42,-1
 138 466 l 1,21,22
EndSplineSet
EndChar

StartChar: questiondown
Encoding: 191 191 128
Width: 339
GlyphClass: 2
Flags: W
LayerCount: 2
Fore
SplineSet
346.5 531 m 128,-1,1
 358 520 358 520 358 501.5 c 128,-1,2
 358 483 358 483 341.5 467 c 128,-1,3
 325 451 325 451 306 451 c 128,-1,4
 287 451 287 451 276 461.5 c 128,-1,5
 265 472 265 472 265 491 c 128,-1,6
 265 510 265 510 281.5 526 c 128,-1,7
 298 542 298 542 316.5 542 c 128,-1,0
 335 542 335 542 346.5 531 c 128,-1,1
25 -99 m 0,8,9
 25 -82 25 -82 33 -29.5 c 128,-1,10
 41 23 41 23 75.5 74.5 c 128,-1,11
 110 126 110 126 147 162 c 0,12,13
 246 257 246 257 255 313 c 2,14,-1
 260 344 l 1,15,-1
 318 344 l 1,16,-1
 313 313 l 2,17,18
 302 242 302 242 232 165 c 0,19,20
 203 133 203 133 174 102 c 0,21,22
 104 27 104 27 95 -31 c 0,23,24
 91 -59 91 -59 91 -69 c 0,25,26
 91 -101 91 -101 112.5 -117 c 128,-1,27
 134 -133 134 -133 191 -133 c 2,28,-1
 231 -133 l 2,29,30
 260 -133 260 -133 268.5 -135.5 c 128,-1,31
 277 -138 277 -138 277 -146 c 128,-1,32
 277 -154 277 -154 273 -180 c 1,33,-1
 176 -190 l 1,34,35
 89 -190 89 -190 57 -168 c 128,-1,36
 25 -146 25 -146 25 -99 c 0,8,9
EndSplineSet
EndChar

StartChar: Aacute
Encoding: 193 193 130
Width: 435
GlyphClass: 2
Flags: W
LayerCount: 2
Fore
SplineSet
405 0 m 2,0,1
 360 0 360 0 352 6 c 128,-1,2
 344 12 344 12 342 46 c 2,3,-1
 329 245 l 1,4,-1
 177 245 l 1,5,-1
 85 0 l 1,6,-1
 80 0 l 2,7,8
 47 0 47 0 37 2 c 128,-1,9
 27 4 27 4 27 13 c 2,10,-1
 27 16 l 2,11,12
 27 21 27 21 104.5 221 c 128,-1,13
 182 421 182 421 297 720 c 1,14,-1
 361 720 l 1,15,-1
 410 0 l 1,16,-1
 405 0 l 2,0,1
318 592 m 1,17,-1
 299 592 l 1,18,-1
 208 325 l 1,19,-1
 195 300 l 1,20,-1
 331 300 l 1,21,-1
 318 325 l 1,22,-1
 318 592 l 1,17,-1
486 896 m 1,23,-1
 352 782 l 1,24,-1
 323 818 l 1,25,-1
 403 894 l 1,26,27
 442 927 442 927 450.5 927 c 128,-1,28
 459 927 459 927 486 896 c 1,23,-1
EndSplineSet
EndChar

StartChar: Atilde
Encoding: 195 195 132
Width: 435
GlyphClass: 2
Flags: W
LayerCount: 2
Fore
SplineSet
405 0 m 2,0,1
 360 0 360 0 352 6 c 128,-1,2
 344 12 344 12 342 46 c 2,3,-1
 329 245 l 1,4,-1
 177 245 l 1,5,-1
 85 0 l 1,6,-1
 80 0 l 2,7,8
 47 0 47 0 37 2 c 128,-1,9
 27 4 27 4 27 13 c 2,10,-1
 27 16 l 2,11,12
 27 21 27 21 104.5 221 c 128,-1,13
 182 421 182 421 297 720 c 1,14,-1
 361 720 l 1,15,-1
 410 0 l 1,16,-1
 405 0 l 2,0,1
318 592 m 1,17,-1
 299 592 l 1,18,-1
 208 325 l 1,19,-1
 195 300 l 1,20,-1
 331 300 l 1,21,-1
 318 325 l 1,22,-1
 318 592 l 1,17,-1
306 847 m 1,23,-1
 422 843 l 2,24,25
 449 843 449 843 469 847 c 1,26,-1
 481 845 l 1,27,-1
 478 824 l 2,28,29
 475 802 475 802 466.5 798 c 128,-1,30
 458 794 458 794 414 794 c 1,31,-1
 298 797 l 2,32,33
 265 797 265 797 251 794 c 1,34,-1
 238 796 l 1,35,-1
 242 817 l 2,36,37
 247 840 247 840 254.5 843.5 c 128,-1,38
 262 847 262 847 306 847 c 1,23,-1
EndSplineSet
EndChar

StartChar: Adieresis
Encoding: 196 196 133
Width: 435
GlyphClass: 2
Flags: W
LayerCount: 2
Fore
SplineSet
405 0 m 2,0,1
 360 0 360 0 352 6 c 128,-1,2
 344 12 344 12 342 46 c 2,3,-1
 329 245 l 1,4,-1
 177 245 l 1,5,-1
 85 0 l 1,6,-1
 80 0 l 2,7,8
 47 0 47 0 37 2 c 128,-1,9
 27 4 27 4 27 13 c 2,10,-1
 27 16 l 2,11,12
 27 21 27 21 104.5 221 c 128,-1,13
 182 421 182 421 297 720 c 1,14,-1
 361 720 l 1,15,-1
 410 0 l 1,16,-1
 405 0 l 2,0,1
318 592 m 1,17,-1
 299 592 l 1,18,-1
 208 325 l 1,19,-1
 195 300 l 1,20,-1
 331 300 l 1,21,-1
 318 325 l 1,22,-1
 318 592 l 1,17,-1
286 914 m 128,-1,24
 304 914 304 914 314.5 903 c 128,-1,25
 325 892 325 892 325 873.5 c 128,-1,26
 325 855 325 855 308.5 839 c 128,-1,27
 292 823 292 823 273.5 823 c 128,-1,28
 255 823 255 823 243.5 834 c 128,-1,29
 232 845 232 845 232 856 c 0,30,31
 232 885 232 885 250 899.5 c 128,-1,23
 268 914 268 914 286 914 c 128,-1,24
428.5 914 m 128,-1,33
 446 914 446 914 457 903 c 128,-1,34
 468 892 468 892 468 873.5 c 128,-1,35
 468 855 468 855 451.5 839 c 128,-1,36
 435 823 435 823 416.5 823 c 128,-1,37
 398 823 398 823 386.5 834 c 128,-1,38
 375 845 375 845 375 856 c 0,39,40
 375 885 375 885 393 899.5 c 128,-1,32
 411 914 411 914 428.5 914 c 128,-1,33
EndSplineSet
EndChar

StartChar: AE
Encoding: 198 198 135
Width: 629
GlyphClass: 2
Flags: W
LayerCount: 2
Fore
SplineSet
104 0 m 2,0,1
 71 0 71 0 61 2 c 128,-1,2
 51 4 51 4 51 13 c 1,3,4
 50 19 50 19 61 46 c 2,5,-1
 311 720 l 1,6,-1
 694 720 l 1,7,-1
 685 667 l 1,8,-1
 474 667 l 1,9,-1
 474 642 l 1,10,-1
 443 443 l 1,11,-1
 435 418 l 1,12,-1
 632 418 l 1,13,-1
 623 361 l 1,14,-1
 426 361 l 1,15,-1
 426 336 l 1,16,-1
 385 82 l 1,17,-1
 378 57 l 1,18,-1
 599 57 l 1,19,-1
 590 0 l 1,20,-1
 307 0 l 1,21,-1
 341 220 l 1,22,-1
 349 245 l 1,23,-1
 201 245 l 1,24,-1
 109 0 l 1,25,-1
 104 0 l 2,0,1
358 300 m 1,26,-1
 358 325 l 1,27,-1
 412 667 l 1,28,-1
 345 667 l 1,29,-1
 232 325 l 1,30,-1
 219 300 l 1,31,-1
 358 300 l 1,26,-1
EndSplineSet
EndChar

StartChar: Ccedilla
Encoding: 199 199 136
Width: 377
GlyphClass: 2
Flags: W
LayerCount: 2
Fore
SplineSet
403 668 m 1,0,-1
 391 669 l 1,1,-1
 342 675 l 2,2,3
 337 676 337 676 332 676 c 0,4,5
 291 676 291 676 256 622 c 128,-1,6
 221 568 221 568 202 480 c 0,7,8
 163 306 163 306 163 174 c 0,9,10
 163 117 163 117 181.5 87 c 128,-1,11
 200 57 200 57 245 57 c 0,12,13
 268 57 268 57 300.5 61.5 c 128,-1,14
 333 66 333 66 347 67 c 1,15,-1
 338 10 l 1,16,17
 324 8 324 8 298.5 2.5 c 128,-1,18
 273 -3 273 -3 258 -5 c 1,19,-1
 241 -109 l 2,20,21
 236 -139 236 -139 227.5 -147 c 128,-1,22
 219 -155 219 -155 189 -155 c 2,23,-1
 154 -155 l 2,24,25
 114 -155 114 -155 110 -151 c 128,-1,26
 106 -147 106 -147 106 -136.5 c 128,-1,27
 106 -126 106 -126 108 -109 c 1,28,-1
 195 -109 l 1,29,-1
 212 -6 l 1,30,31
 149 0 149 0 123.5 40.5 c 128,-1,32
 98 81 98 81 98 149 c 128,-1,33
 98 217 98 217 104 287.5 c 128,-1,34
 110 358 110 358 127.5 443 c 128,-1,35
 145 528 145 528 171.5 592.5 c 128,-1,36
 198 657 198 657 241.5 695 c 128,-1,37
 285 733 285 733 334 733 c 0,38,39
 342 733 342 733 351 732 c 2,40,-1
 448 712 l 1,41,42
 441 668 441 668 403 668 c 1,0,-1
EndSplineSet
EndChar

StartChar: Egrave
Encoding: 200 200 137
Width: 385
GlyphClass: 2
Flags: W
LayerCount: 2
Fore
SplineSet
242 667 m 1,0,-1
 242 642 l 1,1,-1
 211 443 l 1,2,-1
 203 418 l 1,3,-1
 390 418 l 1,4,-1
 381 361 l 1,5,-1
 194 361 l 1,6,-1
 194 336 l 1,7,-1
 153 82 l 1,8,-1
 146 57 l 1,9,-1
 357 57 l 1,10,-1
 348 0 l 1,11,-1
 75 0 l 1,12,-1
 189 720 l 1,13,-1
 452 720 l 1,14,-1
 443 667 l 1,15,-1
 242 667 l 1,0,-1
277 903 m 2,16,17
 304 927 304 927 313.5 927 c 128,-1,18
 323 927 323 927 350 894 c 1,19,-1
 406 818 l 1,20,-1
 365 782 l 1,21,-1
 269 896 l 1,22,-1
 277 903 l 2,16,17
EndSplineSet
EndChar

StartChar: Eacute
Encoding: 201 201 138
Width: 385
GlyphClass: 2
Flags: W
LayerCount: 2
Fore
SplineSet
242 667 m 1,0,-1
 242 642 l 1,1,-1
 211 443 l 1,2,-1
 203 418 l 1,3,-1
 390 418 l 1,4,-1
 381 361 l 1,5,-1
 194 361 l 1,6,-1
 194 336 l 1,7,-1
 153 82 l 1,8,-1
 146 57 l 1,9,-1
 357 57 l 1,10,-1
 348 0 l 1,11,-1
 75 0 l 1,12,-1
 189 720 l 1,13,-1
 452 720 l 1,14,-1
 443 667 l 1,15,-1
 242 667 l 1,0,-1
477 896 m 1,16,-1
 343 782 l 1,17,-1
 314 818 l 1,18,-1
 394 894 l 1,19,20
 433 927 433 927 441.5 927 c 128,-1,21
 450 927 450 927 477 896 c 1,16,-1
EndSplineSet
EndChar

StartChar: Ecircumflex
Encoding: 202 202 139
Width: 385
GlyphClass: 2
Flags: W
LayerCount: 2
Fore
SplineSet
242 667 m 1,0,-1
 242 642 l 1,1,-1
 211 443 l 1,2,-1
 203 418 l 1,3,-1
 390 418 l 1,4,-1
 381 361 l 1,5,-1
 194 361 l 1,6,-1
 194 336 l 1,7,-1
 153 82 l 1,8,-1
 146 57 l 1,9,-1
 357 57 l 1,10,-1
 348 0 l 1,11,-1
 75 0 l 1,12,-1
 189 720 l 1,13,-1
 452 720 l 1,14,-1
 443 667 l 1,15,-1
 242 667 l 1,0,-1
449 812 m 1,16,-1
 342 878 l 1,17,-1
 214 812 l 1,18,-1
 223 867 l 1,19,-1
 336 927 l 1,20,-1
 362 927 l 1,21,-1
 458 866 l 1,22,-1
 449 812 l 1,16,-1
EndSplineSet
EndChar

StartChar: Edieresis
Encoding: 203 203 140
Width: 385
GlyphClass: 2
Flags: W
LayerCount: 2
Fore
SplineSet
242 667 m 1,0,-1
 242 642 l 1,1,-1
 211 443 l 1,2,-1
 203 418 l 1,3,-1
 390 418 l 1,4,-1
 381 361 l 1,5,-1
 194 361 l 1,6,-1
 194 336 l 1,7,-1
 153 82 l 1,8,-1
 146 57 l 1,9,-1
 357 57 l 1,10,-1
 348 0 l 1,11,-1
 75 0 l 1,12,-1
 189 720 l 1,13,-1
 452 720 l 1,14,-1
 443 667 l 1,15,-1
 242 667 l 1,0,-1
286.5 915 m 128,-1,17
 304 915 304 915 315 904.5 c 128,-1,18
 326 894 326 894 326 875 c 128,-1,19
 326 856 326 856 309.5 840 c 128,-1,20
 293 824 293 824 274.5 824 c 128,-1,21
 256 824 256 824 244.5 835 c 128,-1,22
 233 846 233 846 233 857 c 0,23,24
 233 886 233 886 251 900.5 c 128,-1,16
 269 915 269 915 286.5 915 c 128,-1,17
430 915 m 128,-1,26
 448 915 448 915 458.5 904.5 c 128,-1,27
 469 894 469 894 469 875 c 128,-1,28
 469 856 469 856 452.5 840 c 128,-1,29
 436 824 436 824 417.5 824 c 128,-1,30
 399 824 399 824 387.5 835 c 128,-1,31
 376 846 376 846 376 857 c 0,32,33
 376 886 376 886 394 900.5 c 128,-1,25
 412 915 412 915 430 915 c 128,-1,26
EndSplineSet
EndChar

StartChar: Iacute
Encoding: 205 205 142
Width: 213
GlyphClass: 2
Flags: W
LayerCount: 2
Fore
SplineSet
133 0 m 2,0,1
 85 0 85 0 81 8 c 0,2,3
 79 12 79 12 79 20 c 128,-1,4
 79 28 79 28 189 720 c 1,5,-1
 194 720 l 2,6,7
 241 720 241 720 245 712 c 0,8,9
 247 708 247 708 247 700 c 128,-1,10
 247 692 247 692 138 0 c 1,11,-1
 133 0 l 2,0,1
378 896 m 1,12,-1
 244 782 l 1,13,-1
 215 818 l 1,14,-1
 295 894 l 1,15,16
 334 927 334 927 342.5 927 c 128,-1,17
 351 927 351 927 378 896 c 1,12,-1
EndSplineSet
EndChar

StartChar: Icircumflex
Encoding: 206 206 143
Width: 213
GlyphClass: 2
Flags: W
LayerCount: 2
Fore
SplineSet
133 0 m 2,0,1
 85 0 85 0 81 8 c 0,2,3
 79 12 79 12 79 20 c 128,-1,4
 79 28 79 28 189 720 c 1,5,-1
 194 720 l 2,6,7
 241 720 241 720 245 712 c 0,8,9
 247 708 247 708 247 700 c 128,-1,10
 247 692 247 692 138 0 c 1,11,-1
 133 0 l 2,0,1
354 812 m 1,12,-1
 247 878 l 1,13,-1
 119 812 l 1,14,-1
 128 867 l 1,15,-1
 241 927 l 1,16,-1
 267 927 l 1,17,-1
 363 866 l 1,18,-1
 354 812 l 1,12,-1
EndSplineSet
EndChar

StartChar: Idieresis
Encoding: 207 207 144
Width: 213
GlyphClass: 2
Flags: W
LayerCount: 2
Fore
SplineSet
133 0 m 2,0,1
 85 0 85 0 81 8 c 0,2,3
 79 12 79 12 79 20 c 128,-1,4
 79 28 79 28 189 720 c 1,5,-1
 194 720 l 2,6,7
 241 720 241 720 245 712 c 0,8,9
 247 708 247 708 247 700 c 128,-1,10
 247 692 247 692 138 0 c 1,11,-1
 133 0 l 2,0,1
180 915 m 128,-1,13
 198 915 198 915 208.5 904.5 c 128,-1,14
 219 894 219 894 219 875 c 128,-1,15
 219 856 219 856 202.5 840 c 128,-1,16
 186 824 186 824 167.5 824 c 128,-1,17
 149 824 149 824 137.5 835 c 128,-1,18
 126 846 126 846 126 857 c 0,19,20
 126 886 126 886 144 900.5 c 128,-1,12
 162 915 162 915 180 915 c 128,-1,13
322.5 915 m 128,-1,22
 340 915 340 915 351 904.5 c 128,-1,23
 362 894 362 894 362 875 c 128,-1,24
 362 856 362 856 345.5 840 c 128,-1,25
 329 824 329 824 310.5 824 c 128,-1,26
 292 824 292 824 280.5 835 c 128,-1,27
 269 846 269 846 269 857 c 0,28,29
 269 886 269 886 287 900.5 c 128,-1,21
 305 915 305 915 322.5 915 c 128,-1,22
EndSplineSet
EndChar

StartChar: Eth
Encoding: 208 208 145
Width: 463
GlyphClass: 2
Flags: W
LayerCount: 2
Fore
SplineSet
462 691.5 m 128,-1,1
 493 651 493 651 493 586.5 c 128,-1,2
 493 522 493 522 476.5 415.5 c 128,-1,3
 460 309 460 309 455 279.5 c 128,-1,4
 450 250 450 250 439.5 203 c 128,-1,5
 429 156 429 156 419 131.5 c 128,-1,6
 409 107 409 107 391.5 76 c 128,-1,7
 374 45 374 45 354 30 c 0,8,9
 303 -7 303 -7 239 -7 c 1,10,-1
 60 0 l 1,11,-1
 174 722 l 1,12,-1
 356 732 l 1,13,0
 431 732 431 732 462 691.5 c 128,-1,1
248 50 m 2,14,15
 289 50 289 50 314 76 c 0,16,17
 344 106 344 106 355.5 138.5 c 128,-1,18
 367 171 367 171 372.5 190 c 128,-1,19
 378 209 378 209 385 245 c 128,-1,20
 392 281 392 281 395.5 302.5 c 128,-1,21
 399 324 399 324 413.5 413 c 128,-1,22
 428 502 428 502 428 559 c 128,-1,23
 428 616 428 616 409.5 645.5 c 128,-1,24
 391 675 391 675 347 675 c 2,25,-1
 220 675 l 1,26,-1
 223 636 l 1,27,-1
 194 454 l 1,28,-1
 184 420 l 1,29,-1
 312 420 l 1,30,-1
 304 369 l 1,31,-1
 175 369 l 1,32,-1
 175 331 l 1,33,-1
 135 78 l 1,34,-1
 125 50 l 1,35,-1
 248 50 l 2,14,15
EndSplineSet
EndChar

StartChar: Ntilde
Encoding: 209 209 146
Width: 455
GlyphClass: 2
Flags: W
LayerCount: 2
Fore
SplineSet
381 0 m 2,0,1
 338 0 338 0 329 6 c 128,-1,2
 320 12 320 12 313 46 c 2,3,-1
 223 521 l 1,4,-1
 223 548 l 1,5,-1
 218 548 l 1,6,-1
 139 46 l 2,7,8
 134 12 134 12 125.5 6 c 128,-1,9
 117 0 117 0 74 0 c 2,10,-1
 70 0 l 1,11,-1
 184 720 l 1,12,-1
 189 720 l 2,13,14
 232 720 232 720 240.5 714 c 128,-1,15
 249 708 249 708 255 674 c 2,16,-1
 343 188 l 1,17,-1
 343 161 l 1,18,-1
 348 161 l 1,19,-1
 437 720 l 1,20,-1
 441 720 l 2,21,22
 488 720 488 720 492 712 c 0,23,24
 494 708 494 708 494 700 c 128,-1,25
 494 692 494 692 385 0 c 1,26,-1
 381 0 l 2,0,1
306 847 m 1,27,-1
 422 843 l 2,28,29
 449 843 449 843 469 847 c 1,30,-1
 481 845 l 1,31,-1
 478 824 l 2,32,33
 475 802 475 802 466.5 798 c 128,-1,34
 458 794 458 794 414 794 c 1,35,-1
 298 797 l 2,36,37
 265 797 265 797 251 794 c 1,38,-1
 238 796 l 1,39,-1
 242 817 l 2,40,41
 247 840 247 840 254.5 843.5 c 128,-1,42
 262 847 262 847 306 847 c 1,27,-1
EndSplineSet
EndChar

StartChar: Ograve
Encoding: 210 210 147
Width: 481
GlyphClass: 2
Flags: W
LayerCount: 2
Fore
SplineSet
356 47.5 m 128,-1,1
 305 -7 305 -7 235 -7 c 128,-1,2
 165 -7 165 -7 133.5 35.5 c 128,-1,3
 102 78 102 78 102 170 c 128,-1,4
 102 262 102 262 116 356.5 c 128,-1,5
 130 451 130 451 158.5 537.5 c 128,-1,6
 187 624 187 624 238.5 678 c 128,-1,7
 290 732 290 732 360 732 c 128,-1,8
 430 732 430 732 461.5 691.5 c 128,-1,9
 493 651 493 651 493 559.5 c 128,-1,10
 493 468 493 468 478.5 372.5 c 128,-1,11
 464 277 464 277 435.5 189.5 c 128,-1,0
 407 102 407 102 356 47.5 c 128,-1,1
188 82.5 m 128,-1,13
 206 50 206 50 248.5 50 c 128,-1,14
 291 50 291 50 326 103.5 c 128,-1,15
 361 157 361 157 381.5 237 c 128,-1,16
 402 317 402 317 413 398 c 128,-1,17
 424 479 424 479 424 545 c 128,-1,18
 424 611 424 611 406 643 c 128,-1,19
 388 675 388 675 346.5 675 c 128,-1,20
 305 675 305 675 269.5 621.5 c 128,-1,21
 234 568 234 568 213 488 c 0,22,23
 170 324 170 324 170 181 c 0,24,12
 170 115 170 115 188 82.5 c 128,-1,13
295 903 m 2,25,26
 322 927 322 927 331.5 927 c 128,-1,27
 341 927 341 927 368 894 c 1,28,-1
 424 818 l 1,29,-1
 383 782 l 1,30,-1
 287 896 l 1,31,-1
 295 903 l 2,25,26
EndSplineSet
EndChar

StartChar: Oacute
Encoding: 211 211 148
Width: 481
GlyphClass: 2
Flags: W
LayerCount: 2
Fore
SplineSet
356 47.5 m 128,-1,1
 305 -7 305 -7 235 -7 c 128,-1,2
 165 -7 165 -7 133.5 35.5 c 128,-1,3
 102 78 102 78 102 170 c 128,-1,4
 102 262 102 262 116 356.5 c 128,-1,5
 130 451 130 451 158.5 537.5 c 128,-1,6
 187 624 187 624 238.5 678 c 128,-1,7
 290 732 290 732 360 732 c 128,-1,8
 430 732 430 732 461.5 691.5 c 128,-1,9
 493 651 493 651 493 559.5 c 128,-1,10
 493 468 493 468 478.5 372.5 c 128,-1,11
 464 277 464 277 435.5 189.5 c 128,-1,0
 407 102 407 102 356 47.5 c 128,-1,1
188 82.5 m 128,-1,13
 206 50 206 50 248.5 50 c 128,-1,14
 291 50 291 50 326 103.5 c 128,-1,15
 361 157 361 157 381.5 237 c 128,-1,16
 402 317 402 317 413 398 c 128,-1,17
 424 479 424 479 424 545 c 128,-1,18
 424 611 424 611 406 643 c 128,-1,19
 388 675 388 675 346.5 675 c 128,-1,20
 305 675 305 675 269.5 621.5 c 128,-1,21
 234 568 234 568 213 488 c 0,22,23
 170 324 170 324 170 181 c 0,24,12
 170 115 170 115 188 82.5 c 128,-1,13
484 896 m 1,25,-1
 350 782 l 1,26,-1
 321 818 l 1,27,-1
 401 894 l 1,28,29
 440 927 440 927 448.5 927 c 128,-1,30
 457 927 457 927 484 896 c 1,25,-1
EndSplineSet
EndChar

StartChar: Ocircumflex
Encoding: 212 212 149
Width: 481
GlyphClass: 2
Flags: W
LayerCount: 2
Fore
SplineSet
356 47.5 m 128,-1,1
 305 -7 305 -7 235 -7 c 128,-1,2
 165 -7 165 -7 133.5 35.5 c 128,-1,3
 102 78 102 78 102 170 c 128,-1,4
 102 262 102 262 116 356.5 c 128,-1,5
 130 451 130 451 158.5 537.5 c 128,-1,6
 187 624 187 624 238.5 678 c 128,-1,7
 290 732 290 732 360 732 c 128,-1,8
 430 732 430 732 461.5 691.5 c 128,-1,9
 493 651 493 651 493 559.5 c 128,-1,10
 493 468 493 468 478.5 372.5 c 128,-1,11
 464 277 464 277 435.5 189.5 c 128,-1,0
 407 102 407 102 356 47.5 c 128,-1,1
188 82.5 m 128,-1,13
 206 50 206 50 248.5 50 c 128,-1,14
 291 50 291 50 326 103.5 c 128,-1,15
 361 157 361 157 381.5 237 c 128,-1,16
 402 317 402 317 413 398 c 128,-1,17
 424 479 424 479 424 545 c 128,-1,18
 424 611 424 611 406 643 c 128,-1,19
 388 675 388 675 346.5 675 c 128,-1,20
 305 675 305 675 269.5 621.5 c 128,-1,21
 234 568 234 568 213 488 c 0,22,23
 170 324 170 324 170 181 c 0,24,12
 170 115 170 115 188 82.5 c 128,-1,13
500 812 m 1,25,-1
 393 878 l 1,26,-1
 265 812 l 1,27,-1
 274 867 l 1,28,-1
 387 927 l 1,29,-1
 413 927 l 1,30,-1
 509 866 l 1,31,-1
 500 812 l 1,25,-1
EndSplineSet
EndChar

StartChar: Odieresis
Encoding: 214 214 151
Width: 481
GlyphClass: 2
Flags: W
LayerCount: 2
Fore
SplineSet
356 47.5 m 128,-1,1
 305 -7 305 -7 235 -7 c 128,-1,2
 165 -7 165 -7 133.5 35.5 c 128,-1,3
 102 78 102 78 102 170 c 128,-1,4
 102 262 102 262 116 356.5 c 128,-1,5
 130 451 130 451 158.5 537.5 c 128,-1,6
 187 624 187 624 238.5 678 c 128,-1,7
 290 732 290 732 360 732 c 128,-1,8
 430 732 430 732 461.5 691.5 c 128,-1,9
 493 651 493 651 493 559.5 c 128,-1,10
 493 468 493 468 478.5 372.5 c 128,-1,11
 464 277 464 277 435.5 189.5 c 128,-1,0
 407 102 407 102 356 47.5 c 128,-1,1
188 82.5 m 128,-1,13
 206 50 206 50 248.5 50 c 128,-1,14
 291 50 291 50 326 103.5 c 128,-1,15
 361 157 361 157 381.5 237 c 128,-1,16
 402 317 402 317 413 398 c 128,-1,17
 424 479 424 479 424 545 c 128,-1,18
 424 611 424 611 406 643 c 128,-1,19
 388 675 388 675 346.5 675 c 128,-1,20
 305 675 305 675 269.5 621.5 c 128,-1,21
 234 568 234 568 213 488 c 0,22,23
 170 324 170 324 170 181 c 0,24,12
 170 115 170 115 188 82.5 c 128,-1,13
314 915 m 128,-1,26
 332 915 332 915 342.5 904.5 c 128,-1,27
 353 894 353 894 353 875 c 128,-1,28
 353 856 353 856 336.5 840 c 128,-1,29
 320 824 320 824 301.5 824 c 128,-1,30
 283 824 283 824 271.5 835 c 128,-1,31
 260 846 260 846 260 857 c 0,32,33
 260 886 260 886 278 900.5 c 128,-1,25
 296 915 296 915 314 915 c 128,-1,26
456.5 915 m 128,-1,35
 474 915 474 915 485 904.5 c 128,-1,36
 496 894 496 894 496 875 c 128,-1,37
 496 856 496 856 479.5 840 c 128,-1,38
 463 824 463 824 444.5 824 c 128,-1,39
 426 824 426 824 414.5 835 c 128,-1,40
 403 846 403 846 403 857 c 0,41,42
 403 886 403 886 421 900.5 c 128,-1,34
 439 915 439 915 456.5 915 c 128,-1,35
EndSplineSet
EndChar

StartChar: multiply
Encoding: 215 215 152
Width: 271
GlyphClass: 2
Flags: W
LayerCount: 2
Fore
SplineSet
259 245 m 1,0,-1
 222 209 l 1,1,-1
 184 266 l 1,2,-1
 172 289 l 1,3,-1
 105 222 l 1,4,-1
 75 263 l 1,5,-1
 142 331 l 1,6,-1
 124 348 l 1,7,-1
 87 404 l 1,8,-1
 123 440 l 1,9,-1
 160 384 l 1,10,-1
 172 361 l 1,11,-1
 240 429 l 1,12,-1
 271 387 l 1,13,-1
 203 319 l 1,14,-1
 220 302 l 1,15,-1
 259 245 l 1,0,-1
EndSplineSet
EndChar

StartChar: Oslash
Encoding: 216 216 153
Width: 476
GlyphClass: 2
Flags: W
LayerCount: 2
Fore
SplineSet
126 59 m 1,0,1
 108 98 108 98 108 171 c 128,-1,2
 108 244 108 244 128 366 c 0,3,4
 160 567 160 567 209 649.5 c 128,-1,5
 258 732 258 732 362 732 c 0,6,7
 389 732 389 732 410 726 c 1,8,-1
 454 802 l 1,9,-1
 522 802 l 1,10,-1
 463 697 l 1,11,12
 499 657 499 657 499 562 c 0,13,14
 499 498 499 498 479 366 c 0,15,16
 447 164 447 164 398 78.5 c 128,-1,17
 349 -7 349 -7 245 -7 c 0,18,19
 197 -7 197 -7 167 11 c 1,20,-1
 133 -50 l 1,21,-1
 65 -50 l 1,22,-1
 126 59 l 1,0,1
254 50 m 0,23,24
 318 50 318 50 354.5 127.5 c 128,-1,25
 391 205 391 205 412 337.5 c 128,-1,26
 433 470 433 470 433 538 c 0,27,28
 433 675 433 675 353 675 c 0,29,30
 290 675 290 675 253 599.5 c 128,-1,31
 216 524 216 524 194.5 387.5 c 128,-1,32
 173 251 173 251 173 188 c 0,33,34
 173 50 173 50 254 50 c 0,23,24
EndSplineSet
EndChar

StartChar: Ugrave
Encoding: 217 217 154
Width: 468
GlyphClass: 2
Flags: W
LayerCount: 2
Fore
SplineSet
454 720 m 2,0,1
 501 720 501 720 505 712 c 0,2,3
 507 708 507 708 507 700 c 128,-1,4
 507 692 507 692 504 674 c 0,5,6
 433 217 433 217 391 105 c 128,-1,7
 349 -7 349 -7 233 -7 c 0,8,9
 159 -7 159 -7 130 22 c 128,-1,10
 101 51 101 51 101 114 c 0,11,12
 101 148 101 148 114 235.5 c 128,-1,13
 127 323 127 323 190 720 c 1,14,-1
 197 720 l 2,15,16
 244 720 244 720 248 712 c 0,17,18
 250 708 250 708 250 700 c 128,-1,19
 250 692 250 692 208 426 c 128,-1,20
 166 160 166 160 166.5 124 c 128,-1,21
 167 88 167 88 183.5 69 c 128,-1,22
 200 50 200 50 245.5 50 c 128,-1,23
 291 50 291 50 315 87 c 0,24,25
 350 141 350 141 390 368 c 0,26,27
 407 466 407 466 447 720 c 1,28,-1
 454 720 l 2,0,1
298 903 m 2,29,30
 325 927 325 927 334.5 927 c 128,-1,31
 344 927 344 927 371 894 c 1,32,-1
 427 818 l 1,33,-1
 386 782 l 1,34,-1
 290 896 l 1,35,-1
 298 903 l 2,29,30
EndSplineSet
EndChar

StartChar: Uacute
Encoding: 218 218 155
Width: 468
GlyphClass: 2
Flags: W
LayerCount: 2
Fore
SplineSet
454 720 m 2,0,1
 501 720 501 720 505 712 c 0,2,3
 507 708 507 708 507 700 c 128,-1,4
 507 692 507 692 504 674 c 0,5,6
 433 217 433 217 391 105 c 128,-1,7
 349 -7 349 -7 233 -7 c 0,8,9
 159 -7 159 -7 130 22 c 128,-1,10
 101 51 101 51 101 114 c 0,11,12
 101 148 101 148 114 235.5 c 128,-1,13
 127 323 127 323 190 720 c 1,14,-1
 197 720 l 2,15,16
 244 720 244 720 248 712 c 0,17,18
 250 708 250 708 250 700 c 128,-1,19
 250 692 250 692 208 426 c 128,-1,20
 166 160 166 160 166.5 124 c 128,-1,21
 167 88 167 88 183.5 69 c 128,-1,22
 200 50 200 50 245.5 50 c 128,-1,23
 291 50 291 50 315 87 c 0,24,25
 350 141 350 141 390 368 c 0,26,27
 407 466 407 466 447 720 c 1,28,-1
 454 720 l 2,0,1
487 896 m 1,29,-1
 353 782 l 1,30,-1
 324 818 l 1,31,-1
 404 894 l 1,32,33
 443 927 443 927 451.5 927 c 128,-1,34
 460 927 460 927 487 896 c 1,29,-1
EndSplineSet
EndChar

StartChar: Udieresis
Encoding: 220 220 157
Width: 468
GlyphClass: 2
Flags: W
LayerCount: 2
Fore
SplineSet
454 720 m 2,0,1
 501 720 501 720 505 712 c 0,2,3
 507 708 507 708 507 700 c 128,-1,4
 507 692 507 692 504 674 c 0,5,6
 433 217 433 217 391 105 c 128,-1,7
 349 -7 349 -7 233 -7 c 0,8,9
 159 -7 159 -7 130 22 c 128,-1,10
 101 51 101 51 101 114 c 0,11,12
 101 148 101 148 114 235.5 c 128,-1,13
 127 323 127 323 190 720 c 1,14,-1
 197 720 l 2,15,16
 244 720 244 720 248 712 c 0,17,18
 250 708 250 708 250 700 c 128,-1,19
 250 692 250 692 208 426 c 128,-1,20
 166 160 166 160 166.5 124 c 128,-1,21
 167 88 167 88 183.5 69 c 128,-1,22
 200 50 200 50 245.5 50 c 128,-1,23
 291 50 291 50 315 87 c 0,24,25
 350 141 350 141 390 368 c 0,26,27
 407 466 407 466 447 720 c 1,28,-1
 454 720 l 2,0,1
312.5 915 m 128,-1,30
 330 915 330 915 341 904.5 c 128,-1,31
 352 894 352 894 352 875 c 128,-1,32
 352 856 352 856 335.5 840 c 128,-1,33
 319 824 319 824 300.5 824 c 128,-1,34
 282 824 282 824 270.5 835 c 128,-1,35
 259 846 259 846 259 857 c 0,36,37
 259 886 259 886 277 900.5 c 128,-1,29
 295 915 295 915 312.5 915 c 128,-1,30
456 915 m 128,-1,39
 474 915 474 915 484.5 904.5 c 128,-1,40
 495 894 495 894 495 875 c 128,-1,41
 495 856 495 856 478.5 840 c 128,-1,42
 462 824 462 824 443.5 824 c 128,-1,43
 425 824 425 824 413.5 835 c 128,-1,44
 402 846 402 846 402 857 c 0,45,46
 402 886 402 886 420 900.5 c 128,-1,38
 438 915 438 915 456 915 c 128,-1,39
EndSplineSet
EndChar

StartChar: Thorn
Encoding: 222 222 159
Width: 395
GlyphClass: 2
Flags: W
LayerCount: 2
Fore
SplineSet
34 -192 m 0,0,1
 32 -188 32 -188 32 -180 c 128,-1,2
 32 -172 32 -172 35 -154 c 2,3,-1
 169 690 l 2,4,5
 174 724 174 724 182 730 c 128,-1,6
 190 736 190 736 234 736 c 1,7,-1
 209 577 l 1,8,-1
 313 604 l 1,9,10
 375 604 375 604 400 576.5 c 128,-1,11
 425 549 425 549 425 497 c 128,-1,12
 425 445 425 445 411 357 c 128,-1,13
 397 269 397 269 393 244.5 c 128,-1,14
 389 220 389 220 381 182.5 c 128,-1,15
 373 145 373 145 366.5 126 c 128,-1,16
 360 107 360 107 349 81 c 128,-1,17
 338 55 338 55 326 42.5 c 128,-1,18
 314 30 314 30 297 16 c 0,19,20
 267 -7 267 -7 212 -7 c 1,21,-1
 124 39 l 1,22,-1
 86 -200 l 1,23,24
 38 -200 38 -200 34 -192 c 0,0,1
364 467 m 128,-1,26
 364 509 364 509 349.5 530 c 128,-1,27
 335 551 335 551 300 551 c 1,28,-1
 198 526 l 1,29,-1
 198 501 l 1,30,-1
 137 116 l 1,31,-1
 128 91 l 1,32,-1
 219 46 l 1,33,34
 278 46 278 46 307 129 c 0,35,36
 323 176 323 176 343.5 300.5 c 128,-1,25
 364 425 364 425 364 467 c 128,-1,26
EndSplineSet
EndChar

StartChar: germandbls
Encoding: 223 223 160
Width: 524
GlyphClass: 2
Flags: W
LayerCount: 2
Fore
SplineSet
499 664 m 1,0,-1
 498 654 l 1,1,2
 488 591 488 591 480 557 c 128,-1,3
 472 523 472 523 459 507.5 c 128,-1,4
 446 492 446 492 435.5 489 c 128,-1,5
 425 486 425 486 400 486 c 0,6,7
 345 486 345 486 345 400 c 0,8,9
 345 378 345 378 370.5 350 c 128,-1,10
 396 322 396 322 426 299 c 128,-1,11
 456 276 456 276 481.5 240.5 c 128,-1,12
 507 205 507 205 507 169 c 0,13,14
 507 158 507 158 504.5 143.5 c 128,-1,15
 502 129 502 129 500 117 c 128,-1,16
 498 105 498 105 492 85.5 c 128,-1,17
 486 66 486 66 479.5 55 c 128,-1,18
 473 44 473 44 461 30.5 c 128,-1,19
 449 17 449 17 434 10 c 0,20,21
 396 -7 396 -7 345 -7 c 1,22,-1
 223 0 l 1,23,-1
 231 53 l 1,24,-1
 356 53 l 2,25,26
 404 53 404 53 419 82 c 0,27,28
 430 104 430 104 437 149 c 1,29,-1
 439 160 l 1,30,-1
 439 167 l 2,31,32
 439 188 439 188 415 215.5 c 128,-1,33
 391 243 391 243 361.5 266 c 128,-1,34
 332 289 332 289 308 322.5 c 128,-1,35
 284 356 284 356 284 389 c 0,36,37
 284 449 284 449 311 494.5 c 128,-1,38
 338 540 338 540 398 540 c 0,39,40
 408 540 408 540 413 544 c 0,41,42
 425 552 425 552 440 641 c 1,43,-1
 440 647 l 2,44,45
 440 679 440 679 372 679 c 2,46,-1
 325 679 l 2,47,48
 253 679 253 679 239 666.5 c 128,-1,49
 225 654 225 654 213 577 c 2,50,-1
 130 58 l 2,51,52
 123 15 123 15 113.5 7.5 c 128,-1,53
 104 0 104 0 59 0 c 1,54,-1
 151 577 l 2,55,56
 156 606 156 606 157.5 616.5 c 128,-1,57
 159 627 159 627 163.5 647.5 c 128,-1,58
 168 668 168 668 170.5 673.5 c 128,-1,59
 173 679 173 679 179.5 692 c 128,-1,60
 186 705 186 705 191 707.5 c 128,-1,61
 196 710 196 710 207 717.5 c 128,-1,62
 218 725 218 725 228 725 c 2,63,-1
 290 731 l 1,64,-1
 386 731 l 2,65,66
 456 731 456 731 487 696 c 0,67,68
 499 683 499 683 499 664 c 1,0,-1
EndSplineSet
EndChar

StartChar: agrave
Encoding: 224 224 161
Width: 352
GlyphClass: 2
Flags: W
LayerCount: 2
Fore
SplineSet
47 15 m 128,-1,1
 29 37 29 37 29 93.5 c 128,-1,2
 29 150 29 150 37 220 c 128,-1,3
 45 290 45 290 62.5 368 c 128,-1,4
 80 446 80 446 115.5 498 c 128,-1,5
 151 550 151 550 198 550 c 0,6,7
 214 550 214 550 232.5 543.5 c 128,-1,8
 251 537 251 537 277 529 c 128,-1,9
 303 521 303 521 315 517 c 128,-1,10
 327 513 327 513 340 508 c 1,11,12
 361 498 361 498 361 485 c 0,13,14
 361 481 361 481 286 0 c 1,15,16
 251 0 251 0 240 3.5 c 128,-1,17
 229 7 229 7 231 21 c 2,18,-1
 240 87 l 1,19,-1
 124 -7 l 1,20,0
 65 -7 65 -7 47 15 c 128,-1,1
204 493 m 0,21,22
 166 493 166 493 138 409 c 128,-1,23
 110 325 110 325 100 242.5 c 128,-1,24
 90 160 90 160 90 117.5 c 128,-1,25
 90 75 90 75 97 63.5 c 128,-1,26
 104 52 104 52 134 52 c 1,27,-1
 252 138 l 1,28,-1
 252 163 l 1,29,-1
 297 440 l 1,30,-1
 305 465 l 1,31,32
 219 493 219 493 204 493 c 0,21,22
230 714 m 2,33,34
 257 738 257 738 266.5 738 c 128,-1,35
 276 738 276 738 303 705 c 1,36,-1
 359 629 l 1,37,-1
 318 593 l 1,38,-1
 222 707 l 1,39,-1
 230 714 l 2,33,34
EndSplineSet
EndChar

StartChar: aacute
Encoding: 225 225 162
Width: 352
GlyphClass: 2
Flags: W
LayerCount: 2
Fore
SplineSet
47 15 m 128,-1,1
 29 37 29 37 29 93.5 c 128,-1,2
 29 150 29 150 37 220 c 128,-1,3
 45 290 45 290 62.5 368 c 128,-1,4
 80 446 80 446 115.5 498 c 128,-1,5
 151 550 151 550 198 550 c 0,6,7
 214 550 214 550 232.5 543.5 c 128,-1,8
 251 537 251 537 277 529 c 128,-1,9
 303 521 303 521 315 517 c 128,-1,10
 327 513 327 513 340 508 c 1,11,12
 361 498 361 498 361 485 c 0,13,14
 361 481 361 481 286 0 c 1,15,16
 251 0 251 0 240 3.5 c 128,-1,17
 229 7 229 7 231 21 c 2,18,-1
 240 87 l 1,19,-1
 124 -7 l 1,20,0
 65 -7 65 -7 47 15 c 128,-1,1
204 493 m 0,21,22
 166 493 166 493 138 409 c 128,-1,23
 110 325 110 325 100 242.5 c 128,-1,24
 90 160 90 160 90 117.5 c 128,-1,25
 90 75 90 75 97 63.5 c 128,-1,26
 104 52 104 52 134 52 c 1,27,-1
 252 138 l 1,28,-1
 252 163 l 1,29,-1
 297 440 l 1,30,-1
 305 465 l 1,31,32
 219 493 219 493 204 493 c 0,21,22
401 707 m 1,33,-1
 267 593 l 1,34,-1
 238 629 l 1,35,-1
 318 705 l 1,36,37
 357 738 357 738 365.5 738 c 128,-1,38
 374 738 374 738 401 707 c 1,33,-1
EndSplineSet
EndChar

StartChar: acircumflex
Encoding: 226 226 163
Width: 352
GlyphClass: 2
Flags: W
LayerCount: 2
Fore
SplineSet
47 15 m 128,-1,1
 29 37 29 37 29 93.5 c 128,-1,2
 29 150 29 150 37 220 c 128,-1,3
 45 290 45 290 62.5 368 c 128,-1,4
 80 446 80 446 115.5 498 c 128,-1,5
 151 550 151 550 198 550 c 0,6,7
 214 550 214 550 232.5 543.5 c 128,-1,8
 251 537 251 537 277 529 c 128,-1,9
 303 521 303 521 315 517 c 128,-1,10
 327 513 327 513 340 508 c 1,11,12
 361 498 361 498 361 485 c 0,13,14
 361 481 361 481 286 0 c 1,15,16
 251 0 251 0 240 3.5 c 128,-1,17
 229 7 229 7 231 21 c 2,18,-1
 240 87 l 1,19,-1
 124 -7 l 1,20,0
 65 -7 65 -7 47 15 c 128,-1,1
204 493 m 0,21,22
 166 493 166 493 138 409 c 128,-1,23
 110 325 110 325 100 242.5 c 128,-1,24
 90 160 90 160 90 117.5 c 128,-1,25
 90 75 90 75 97 63.5 c 128,-1,26
 104 52 104 52 134 52 c 1,27,-1
 252 138 l 1,28,-1
 252 163 l 1,29,-1
 297 440 l 1,30,-1
 305 465 l 1,31,32
 219 493 219 493 204 493 c 0,21,22
384 627 m 1,33,-1
 277 693 l 1,34,-1
 149 627 l 1,35,-1
 158 682 l 1,36,-1
 271 742 l 1,37,-1
 297 742 l 1,38,-1
 393 681 l 1,39,-1
 384 627 l 1,33,-1
EndSplineSet
EndChar

StartChar: atilde
Encoding: 227 227 164
Width: 352
GlyphClass: 2
Flags: W
LayerCount: 2
Fore
SplineSet
47 15 m 128,-1,1
 29 37 29 37 29 93.5 c 128,-1,2
 29 150 29 150 37 220 c 128,-1,3
 45 290 45 290 62.5 368 c 128,-1,4
 80 446 80 446 115.5 498 c 128,-1,5
 151 550 151 550 198 550 c 0,6,7
 214 550 214 550 232.5 543.5 c 128,-1,8
 251 537 251 537 277 529 c 128,-1,9
 303 521 303 521 315 517 c 128,-1,10
 327 513 327 513 340 508 c 1,11,12
 361 498 361 498 361 485 c 0,13,14
 361 481 361 481 286 0 c 1,15,16
 251 0 251 0 240 3.5 c 128,-1,17
 229 7 229 7 231 21 c 2,18,-1
 240 87 l 1,19,-1
 124 -7 l 1,20,0
 65 -7 65 -7 47 15 c 128,-1,1
204 493 m 0,21,22
 166 493 166 493 138 409 c 128,-1,23
 110 325 110 325 100 242.5 c 128,-1,24
 90 160 90 160 90 117.5 c 128,-1,25
 90 75 90 75 97 63.5 c 128,-1,26
 104 52 104 52 134 52 c 1,27,-1
 252 138 l 1,28,-1
 252 163 l 1,29,-1
 297 440 l 1,30,-1
 305 465 l 1,31,32
 219 493 219 493 204 493 c 0,21,22
215 692 m 1,33,-1
 331 688 l 2,34,35
 358 688 358 688 378 692 c 1,36,-1
 390 690 l 1,37,-1
 387 669 l 2,38,39
 384 647 384 647 375.5 643 c 128,-1,40
 367 639 367 639 323 639 c 1,41,-1
 207 642 l 2,42,43
 174 642 174 642 160 639 c 1,44,-1
 147 641 l 1,45,-1
 151 662 l 2,46,47
 156 685 156 685 163 688.5 c 128,-1,48
 170 692 170 692 215 692 c 1,33,-1
EndSplineSet
EndChar

StartChar: adieresis
Encoding: 228 228 165
Width: 352
GlyphClass: 2
Flags: W
LayerCount: 2
Fore
SplineSet
47 15 m 128,-1,1
 29 37 29 37 29 93.5 c 128,-1,2
 29 150 29 150 37 220 c 128,-1,3
 45 290 45 290 62.5 368 c 128,-1,4
 80 446 80 446 115.5 498 c 128,-1,5
 151 550 151 550 198 550 c 0,6,7
 214 550 214 550 232.5 543.5 c 128,-1,8
 251 537 251 537 277 529 c 128,-1,9
 303 521 303 521 315 517 c 128,-1,10
 327 513 327 513 340 508 c 1,11,12
 361 498 361 498 361 485 c 0,13,14
 361 481 361 481 286 0 c 1,15,16
 251 0 251 0 240 3.5 c 128,-1,17
 229 7 229 7 231 21 c 2,18,-1
 240 87 l 1,19,-1
 124 -7 l 1,20,0
 65 -7 65 -7 47 15 c 128,-1,1
204 493 m 0,21,22
 166 493 166 493 138 409 c 128,-1,23
 110 325 110 325 100 242.5 c 128,-1,24
 90 160 90 160 90 117.5 c 128,-1,25
 90 75 90 75 97 63.5 c 128,-1,26
 104 52 104 52 134 52 c 1,27,-1
 252 138 l 1,28,-1
 252 163 l 1,29,-1
 297 440 l 1,30,-1
 305 465 l 1,31,32
 219 493 219 493 204 493 c 0,21,22
228 711 m 128,-1,34
 246 711 246 711 256.5 700.5 c 128,-1,35
 267 690 267 690 267 671 c 128,-1,36
 267 652 267 652 250.5 636 c 128,-1,37
 234 620 234 620 215.5 620 c 128,-1,38
 197 620 197 620 185.5 631 c 128,-1,39
 174 642 174 642 174 653 c 0,40,41
 174 682 174 682 192 696.5 c 128,-1,33
 210 711 210 711 228 711 c 128,-1,34
370.5 711 m 128,-1,43
 388 711 388 711 399 700.5 c 128,-1,44
 410 690 410 690 410 671 c 128,-1,45
 410 652 410 652 393.5 636 c 128,-1,46
 377 620 377 620 358.5 620 c 128,-1,47
 340 620 340 620 328.5 631 c 128,-1,48
 317 642 317 642 317 653 c 0,49,50
 317 682 317 682 335 696.5 c 128,-1,42
 353 711 353 711 370.5 711 c 128,-1,43
EndSplineSet
EndChar

StartChar: aring
Encoding: 229 229 166
Width: 352
GlyphClass: 2
Flags: W
LayerCount: 2
Fore
SplineSet
47 15 m 128,-1,1
 29 37 29 37 29 93.5 c 128,-1,2
 29 150 29 150 37 220 c 128,-1,3
 45 290 45 290 62.5 368 c 128,-1,4
 80 446 80 446 115.5 498 c 128,-1,5
 151 550 151 550 198 550 c 0,6,7
 214 550 214 550 232.5 543.5 c 128,-1,8
 251 537 251 537 277 529 c 128,-1,9
 303 521 303 521 315 517 c 128,-1,10
 327 513 327 513 340 508 c 1,11,12
 361 498 361 498 361 485 c 0,13,14
 361 481 361 481 286 0 c 1,15,16
 251 0 251 0 240 3.5 c 128,-1,17
 229 7 229 7 231 21 c 2,18,-1
 240 87 l 1,19,-1
 124 -7 l 1,20,0
 65 -7 65 -7 47 15 c 128,-1,1
204 493 m 0,21,22
 166 493 166 493 138 409 c 128,-1,23
 110 325 110 325 100 242.5 c 128,-1,24
 90 160 90 160 90 117.5 c 128,-1,25
 90 75 90 75 97 63.5 c 128,-1,26
 104 52 104 52 134 52 c 1,27,-1
 252 138 l 1,28,-1
 252 163 l 1,29,-1
 297 440 l 1,30,-1
 305 465 l 1,31,32
 219 493 219 493 204 493 c 0,21,22
330.5 729.5 m 128,-1,34
 351 710 351 710 351 676.5 c 128,-1,35
 351 643 351 643 321 614.5 c 128,-1,36
 291 586 291 586 257 586 c 128,-1,37
 223 586 223 586 203 606 c 128,-1,38
 183 626 183 626 183 659 c 128,-1,39
 183 692 183 692 212.5 720.5 c 128,-1,40
 242 749 242 749 276 749 c 128,-1,33
 310 749 310 749 330.5 729.5 c 128,-1,34
235 637 m 128,-1,42
 245 627 245 627 262.5 627 c 128,-1,43
 280 627 280 627 294 641.5 c 128,-1,44
 308 656 308 656 308 672.5 c 128,-1,45
 308 689 308 689 298.5 698.5 c 128,-1,46
 289 708 289 708 272.5 708 c 128,-1,47
 256 708 256 708 240.5 694 c 128,-1,48
 225 680 225 680 225 663.5 c 128,-1,41
 225 647 225 647 235 637 c 128,-1,42
EndSplineSet
EndChar

StartChar: ae
Encoding: 230 230 167
Width: 588
GlyphClass: 2
Flags: W
LayerCount: 2
Fore
SplineSet
496 375 m 1,0,1
 501 412 501 412 501 438 c 0,2,3
 501 491 501 491 441 491 c 0,4,5
 412 491 412 491 403 479 c 128,-1,6
 394 467 394 467 389.5 460 c 128,-1,7
 385 453 385 453 381 432 c 0,8,9
 377 410 377 410 368 355 c 1,10,-1
 360 330 l 1,11,-1
 494 330 l 1,12,-1
 496 375 l 1,0,1
504 10 m 1,13,14
 415 -7 415 -7 365.5 -7 c 128,-1,15
 316 -7 316 -7 301 6.5 c 128,-1,16
 286 20 286 20 277 57 c 1,17,-1
 143 -7 l 1,18,19
 104 -7 104 -7 89 7 c 128,-1,20
 74 21 74 21 74 56 c 128,-1,21
 74 91 74 91 96 225 c 0,22,23
 113 332 113 332 298 332 c 2,24,-1
 302 332 l 1,25,-1
 302 357 l 1,26,-1
 311 415 l 2,27,28
 312 422 312 422 315.5 438 c 128,-1,29
 319 454 319 454 319 461 c 0,30,31
 319 491 319 491 270 491 c 1,32,33
 205 482 205 482 202 482 c 0,34,35
 172 482 172 482 172 512 c 0,36,37
 172 515 172 515 174 527 c 1,38,-1
 279 544 l 1,39,40
 349 544 349 544 369 513 c 1,41,42
 406 544 406 544 450 544 c 0,43,44
 514 544 514 544 538 522.5 c 128,-1,45
 562 501 562 501 562 462.5 c 128,-1,46
 562 424 562 424 549 335 c 1,47,-1
 545 276 l 1,48,-1
 345 276 l 1,49,-1
 345 251 l 1,50,51
 327 136 327 136 327 105 c 128,-1,52
 327 74 327 74 337 60 c 128,-1,53
 347 46 347 46 371 46 c 0,54,55
 425 46 425 46 512 59 c 1,56,-1
 504 10 l 1,13,14
289 276 m 2,57,58
 229 276 229 276 194 267.5 c 128,-1,59
 159 259 159 259 155 233 c 0,60,61
 150 201 150 201 144 162 c 0,62,63
 131 86 131 86 131 71 c 0,64,65
 131 46 131 46 151 46 c 1,66,-1
 260 93 l 1,67,-1
 285 251 l 1,68,-1
 293 276 l 1,69,-1
 289 276 l 2,57,58
EndSplineSet
EndChar

StartChar: ccedilla
Encoding: 231 231 168
Width: 335
GlyphClass: 2
Flags: W
LayerCount: 2
Fore
SplineSet
306 486 m 1,0,-1
 240 496 l 1,1,2
 205 496 205 496 178.5 413 c 128,-1,3
 152 330 152 330 142 247.5 c 128,-1,4
 132 165 132 165 132 122 c 128,-1,5
 132 79 132 79 144.5 62.5 c 128,-1,6
 157 46 157 46 188 46 c 1,7,-1
 276 56 l 1,8,-1
 269 10 l 1,9,-1
 196 -3 l 1,10,-1
 179 -109 l 2,11,12
 174 -139 174 -139 165.5 -147 c 128,-1,13
 157 -155 157 -155 127 -155 c 2,14,-1
 92 -155 l 2,15,16
 52 -155 52 -155 48 -151 c 128,-1,17
 44 -147 44 -147 44 -136.5 c 128,-1,18
 44 -126 44 -126 46 -109 c 1,19,-1
 133 -109 l 1,20,-1
 150 -5 l 1,21,22
 107 -1 107 -1 89 23 c 128,-1,23
 71 47 71 47 71 99 c 128,-1,24
 71 151 71 151 78.5 220 c 128,-1,25
 86 289 86 289 103 367 c 128,-1,26
 120 445 120 445 154.5 497.5 c 128,-1,27
 189 550 189 550 235 550 c 0,28,29
 245 550 245 550 348 531 c 1,30,31
 340 486 340 486 306 486 c 1,0,-1
EndSplineSet
EndChar

StartChar: egrave
Encoding: 232 232 169
Width: 353
GlyphClass: 2
Flags: W
LayerCount: 2
Fore
SplineSet
307 10 m 1,0,1
 228 -7 228 -7 174.5 -7 c 128,-1,2
 121 -7 121 -7 96 16 c 128,-1,3
 71 39 71 39 71 85.5 c 128,-1,4
 71 132 71 132 85 221.5 c 128,-1,5
 99 311 99 311 102.5 333 c 128,-1,6
 106 355 106 355 113.5 390 c 128,-1,7
 121 425 121 425 127 440 c 128,-1,8
 133 455 133 455 143 477.5 c 128,-1,9
 153 500 153 500 164.5 508.5 c 128,-1,10
 176 517 176 517 192 528 c 0,11,12
 217 544 217 544 272.5 544 c 128,-1,13
 328 544 328 544 348.5 521.5 c 128,-1,14
 369 499 369 499 369 452 c 0,15,16
 369 407 369 407 352 346 c 0,17,18
 341 310 341 310 313 286.5 c 128,-1,19
 285 263 285 263 244 263 c 2,20,-1
 145 263 l 1,21,-1
 145 238 l 1,22,23
 130 148 130 148 130 113 c 128,-1,24
 130 78 130 78 144.5 63 c 128,-1,25
 159 48 159 48 208 48 c 128,-1,26
 257 48 257 48 315 61 c 1,27,-1
 307 10 l 1,0,1
236 317 m 2,28,29
 258 317 258 317 274 331 c 128,-1,30
 290 345 290 345 297 366 c 0,31,32
 310 404 310 404 310 430 c 0,33,34
 310 491 310 491 266 491 c 0,35,36
 225 491 225 491 203 468 c 0,37,38
 188 452 188 452 180.5 415.5 c 128,-1,39
 173 379 173 379 168 342 c 1,40,-1
 160 317 l 1,41,-1
 236 317 l 2,28,29
216 716 m 2,42,43
 243 740 243 740 252.5 740 c 128,-1,44
 262 740 262 740 289 707 c 1,45,-1
 345 631 l 1,46,-1
 304 595 l 1,47,-1
 208 709 l 1,48,-1
 216 716 l 2,42,43
EndSplineSet
EndChar

StartChar: igrave
Encoding: 236 236 173
Width: 211
GlyphClass: 2
Flags: W
LayerCount: 2
Fore
SplineSet
202 534.5 m 128,-1,1
 212 532 212 532 212 523.5 c 128,-1,2
 212 515 212 515 208 491 c 2,3,-1
 130 -4 l 1,4,5
 81 -4 81 -4 77 4 c 0,6,7
 75 8 75 8 75 16 c 128,-1,8
 75 24 75 24 78 42 c 2,9,-1
 157 537 l 1,10,0
 192 537 192 537 202 534.5 c 128,-1,1
127 718 m 2,11,12
 154 742 154 742 163.5 742 c 128,-1,13
 173 742 173 742 200 709 c 1,14,-1
 256 633 l 1,15,-1
 215 597 l 1,16,-1
 119 711 l 1,17,-1
 127 718 l 2,11,12
EndSplineSet
EndChar

StartChar: iacute
Encoding: 237 237 174
Width: 220
GlyphClass: 2
Flags: W
LayerCount: 2
Fore
SplineSet
205 534.5 m 128,-1,1
 215 532 215 532 215 523.5 c 128,-1,2
 215 515 215 515 211 491 c 2,3,-1
 133 -4 l 1,4,5
 84 -4 84 -4 80 4 c 0,6,7
 78 8 78 8 78 16 c 128,-1,8
 78 24 78 24 81 42 c 2,9,-1
 160 537 l 1,10,0
 195 537 195 537 205 534.5 c 128,-1,1
322 709 m 1,11,-1
 188 595 l 1,12,-1
 159 631 l 1,13,-1
 239 707 l 1,14,15
 278 740 278 740 286.5 740 c 128,-1,16
 295 740 295 740 322 709 c 1,11,-1
EndSplineSet
EndChar

StartChar: icircumflex
Encoding: 238 238 175
Width: 246
GlyphClass: 2
Flags: W
LayerCount: 2
Fore
SplineSet
220 534.5 m 128,-1,1
 230 532 230 532 230 523.5 c 128,-1,2
 230 515 230 515 226 491 c 2,3,-1
 148 -4 l 1,4,5
 99 -4 99 -4 95 4 c 0,6,7
 93 8 93 8 93 16 c 128,-1,8
 93 24 93 24 96 42 c 2,9,-1
 175 537 l 1,10,0
 210 537 210 537 220 534.5 c 128,-1,1
339 625 m 1,11,-1
 232 691 l 1,12,-1
 104 625 l 1,13,-1
 113 680 l 1,14,-1
 226 740 l 1,15,-1
 252 740 l 1,16,-1
 348 679 l 1,17,-1
 339 625 l 1,11,-1
EndSplineSet
EndChar

StartChar: idieresis
Encoding: 239 239 176
Width: 260
GlyphClass: 2
Flags: W
LayerCount: 2
Fore
SplineSet
238 534.5 m 128,-1,1
 248 532 248 532 248 523.5 c 128,-1,2
 248 515 248 515 244 491 c 2,3,-1
 166 -4 l 1,4,5
 117 -4 117 -4 113 4 c 0,6,7
 111 8 111 8 111 16 c 128,-1,8
 111 24 111 24 114 42 c 2,9,-1
 193 537 l 1,10,0
 228 537 228 537 238 534.5 c 128,-1,1
178 713 m 128,-1,12
 196 713 196 713 206.5 702.5 c 128,-1,13
 217 692 217 692 217 673 c 128,-1,14
 217 654 217 654 200.5 638 c 128,-1,15
 184 622 184 622 165.5 622 c 128,-1,16
 147 622 147 622 135.5 633 c 128,-1,17
 124 644 124 644 124 655 c 0,18,19
 124 684 124 684 142 698.5 c 128,-1,11
 160 713 160 713 178 713 c 128,-1,12
320.5 713 m 128,-1,21
 338 713 338 713 349 702.5 c 128,-1,22
 360 692 360 692 360 673 c 128,-1,23
 360 654 360 654 343.5 638 c 128,-1,24
 327 622 327 622 308.5 622 c 128,-1,25
 290 622 290 622 278.5 633 c 128,-1,26
 267 644 267 644 267 655 c 0,27,28
 267 684 267 684 285 698.5 c 128,-1,20
 303 713 303 713 320.5 713 c 128,-1,21
EndSplineSet
EndChar

StartChar: eth
Encoding: 240 240 177
Width: 376
GlyphClass: 2
Flags: W
LayerCount: 2
Fore
SplineSet
169 406.5 m 128,-1,1
 152 375 152 375 133.5 259 c 128,-1,2
 115 143 115 143 115 111 c 128,-1,3
 115 79 115 79 130 66 c 128,-1,4
 145 53 145 53 184 53 c 0,5,6
 247 53 247 53 265 92 c 128,-1,7
 283 131 283 131 309 297 c 1,8,-1
 324 406 l 1,9,-1
 245 438 l 1,10,0
 186 438 186 438 169 406.5 c 128,-1,1
328 457 m 1,11,12
 331 504 331 504 331 557 c 0,13,14
 331 675 331 675 260 675 c 1,15,-1
 269 732 l 1,16,17
 341 732 341 732 371 687 c 128,-1,18
 401 642 401 642 401 563.5 c 128,-1,19
 401 485 401 485 382 363.5 c 128,-1,20
 363 242 363 242 358 213 c 128,-1,21
 353 184 353 184 345.5 147.5 c 128,-1,22
 338 111 338 111 331.5 94.5 c 128,-1,23
 325 78 325 78 314 57 c 128,-1,24
 303 36 303 36 291.5 28.5 c 128,-1,25
 280 21 280 21 262 12 c 0,26,27
 237 0 237 0 170.5 0 c 128,-1,28
 104 0 104 0 77 20 c 128,-1,29
 50 40 50 40 50 86 c 128,-1,30
 50 132 50 132 63 211 c 128,-1,31
 76 290 76 290 79 309 c 128,-1,32
 82 328 82 328 88 358 c 128,-1,33
 94 388 94 388 98.5 399.5 c 128,-1,34
 103 411 103 411 110.5 430 c 128,-1,35
 118 449 118 449 126.5 455.5 c 128,-1,36
 135 462 135 462 147 471.5 c 128,-1,37
 159 481 159 481 174 484 c 0,38,39
 221 491 221 491 253 491 c 1,40,-1
 328 457 l 1,11,12
EndSplineSet
EndChar

StartChar: ograve
Encoding: 242 242 179
Width: 374
GlyphClass: 2
Flags: W
LayerCount: 2
Fore
SplineSet
283.5 36 m 128,-1,1
 242 -7 242 -7 181.5 -7 c 128,-1,2
 121 -7 121 -7 96.5 17 c 128,-1,3
 72 41 72 41 72 108.5 c 128,-1,4
 72 176 72 176 81 247.5 c 128,-1,5
 90 319 90 319 111 389 c 128,-1,6
 132 459 132 459 173.5 501.5 c 128,-1,7
 215 544 215 544 275.5 544 c 128,-1,8
 336 544 336 544 361 520.5 c 128,-1,9
 386 497 386 497 386 431.5 c 128,-1,10
 386 366 386 366 376.5 293.5 c 128,-1,11
 367 221 367 221 346 150 c 128,-1,0
 325 79 325 79 283.5 36 c 128,-1,1
194 46 m 128,-1,13
 228 46 228 46 255 89.5 c 128,-1,14
 282 133 282 133 296 196 c 0,15,16
 325 321 325 321 325 421 c 0,17,18
 325 459 325 459 311.5 475 c 128,-1,19
 298 491 298 491 264 491 c 128,-1,20
 230 491 230 491 203 449 c 128,-1,21
 176 407 176 407 162 345 c 0,22,23
 133 223 133 223 133 117 c 0,24,25
 133 79 133 79 146.5 62.5 c 128,-1,12
 160 46 160 46 194 46 c 128,-1,13
233 720 m 2,26,27
 260 744 260 744 269.5 744 c 128,-1,28
 279 744 279 744 306 711 c 1,29,-1
 362 635 l 1,30,-1
 321 599 l 1,31,-1
 225 713 l 1,32,-1
 233 720 l 2,26,27
EndSplineSet
EndChar

StartChar: oacute
Encoding: 243 243 180
Width: 374
GlyphClass: 2
Flags: W
LayerCount: 2
Fore
SplineSet
283.5 36 m 128,-1,1
 242 -7 242 -7 181.5 -7 c 128,-1,2
 121 -7 121 -7 96.5 17 c 128,-1,3
 72 41 72 41 72 108.5 c 128,-1,4
 72 176 72 176 81 247.5 c 128,-1,5
 90 319 90 319 111 389 c 128,-1,6
 132 459 132 459 173.5 501.5 c 128,-1,7
 215 544 215 544 275.5 544 c 128,-1,8
 336 544 336 544 361 520.5 c 128,-1,9
 386 497 386 497 386 431.5 c 128,-1,10
 386 366 386 366 376.5 293.5 c 128,-1,11
 367 221 367 221 346 150 c 128,-1,0
 325 79 325 79 283.5 36 c 128,-1,1
194 46 m 128,-1,13
 228 46 228 46 255 89.5 c 128,-1,14
 282 133 282 133 296 196 c 0,15,16
 325 321 325 321 325 421 c 0,17,18
 325 459 325 459 311.5 475 c 128,-1,19
 298 491 298 491 264 491 c 128,-1,20
 230 491 230 491 203 449 c 128,-1,21
 176 407 176 407 162 345 c 0,22,23
 133 223 133 223 133 117 c 0,24,25
 133 79 133 79 146.5 62.5 c 128,-1,12
 160 46 160 46 194 46 c 128,-1,13
406 713 m 1,26,-1
 272 599 l 1,27,-1
 243 635 l 1,28,-1
 323 711 l 1,29,30
 362 744 362 744 370.5 744 c 128,-1,31
 379 744 379 744 406 713 c 1,26,-1
EndSplineSet
EndChar

StartChar: otilde
Encoding: 245 245 182
Width: 374
GlyphClass: 2
Flags: W
LayerCount: 2
Fore
SplineSet
405.5 641 m 128,-1,1
 397 637 397 637 361 637 c 128,-1,2
 325 637 325 637 280.5 642 c 128,-1,3
 236 647 236 647 222 647 c 128,-1,4
 208 647 208 647 192 645 c 1,5,-1
 179 647 l 1,6,-1
 182 668 l 2,7,8
 185 690 185 690 193.5 694 c 128,-1,9
 202 698 202 698 238 698 c 128,-1,10
 274 698 274 698 318 692.5 c 128,-1,11
 362 687 362 687 378 687 c 128,-1,12
 394 687 394 687 408 690 c 1,13,-1
 420 688 l 1,14,-1
 417 667 l 2,15,0
 414 645 414 645 405.5 641 c 128,-1,1
283.5 36 m 128,-1,17
 242 -7 242 -7 181.5 -7 c 128,-1,18
 121 -7 121 -7 96.5 17 c 128,-1,19
 72 41 72 41 72 108.5 c 128,-1,20
 72 176 72 176 81 247.5 c 128,-1,21
 90 319 90 319 111 389 c 128,-1,22
 132 459 132 459 173.5 501.5 c 128,-1,23
 215 544 215 544 275.5 544 c 128,-1,24
 336 544 336 544 361 520.5 c 128,-1,25
 386 497 386 497 386 431.5 c 128,-1,26
 386 366 386 366 376.5 293.5 c 128,-1,27
 367 221 367 221 346 150 c 128,-1,16
 325 79 325 79 283.5 36 c 128,-1,17
194 46 m 128,-1,29
 228 46 228 46 255 89.5 c 128,-1,30
 282 133 282 133 296 196 c 0,31,32
 325 321 325 321 325 421 c 0,33,34
 325 459 325 459 311.5 475 c 128,-1,35
 298 491 298 491 264 491 c 128,-1,36
 230 491 230 491 203 449 c 128,-1,37
 176 407 176 407 162 345 c 0,38,39
 133 223 133 223 133 117 c 0,40,41
 133 79 133 79 146.5 62.5 c 128,-1,28
 160 46 160 46 194 46 c 128,-1,29
EndSplineSet
EndChar

StartChar: odieresis
Encoding: 246 246 183
Width: 374
GlyphClass: 2
Flags: W
LayerCount: 2
Fore
SplineSet
283.5 36 m 128,-1,1
 242 -7 242 -7 181.5 -7 c 128,-1,2
 121 -7 121 -7 96.5 17 c 128,-1,3
 72 41 72 41 72 108.5 c 128,-1,4
 72 176 72 176 81 247.5 c 128,-1,5
 90 319 90 319 111 389 c 128,-1,6
 132 459 132 459 173.5 501.5 c 128,-1,7
 215 544 215 544 275.5 544 c 128,-1,8
 336 544 336 544 361 520.5 c 128,-1,9
 386 497 386 497 386 431.5 c 128,-1,10
 386 366 386 366 376.5 293.5 c 128,-1,11
 367 221 367 221 346 150 c 128,-1,0
 325 79 325 79 283.5 36 c 128,-1,1
194 46 m 128,-1,13
 228 46 228 46 255 89.5 c 128,-1,14
 282 133 282 133 296 196 c 0,15,16
 325 321 325 321 325 421 c 0,17,18
 325 459 325 459 311.5 475 c 128,-1,19
 298 491 298 491 264 491 c 128,-1,20
 230 491 230 491 203 449 c 128,-1,21
 176 407 176 407 162 345 c 0,22,23
 133 223 133 223 133 117 c 0,24,25
 133 79 133 79 146.5 62.5 c 128,-1,12
 160 46 160 46 194 46 c 128,-1,13
228.5 711 m 128,-1,27
 246 711 246 711 257 700.5 c 128,-1,28
 268 690 268 690 268 671 c 128,-1,29
 268 652 268 652 251.5 636 c 128,-1,30
 235 620 235 620 216.5 620 c 128,-1,31
 198 620 198 620 186.5 631 c 128,-1,32
 175 642 175 642 175 653 c 0,33,34
 175 682 175 682 193 696.5 c 128,-1,26
 211 711 211 711 228.5 711 c 128,-1,27
372 711 m 128,-1,36
 390 711 390 711 400.5 700.5 c 128,-1,37
 411 690 411 690 411 671 c 128,-1,38
 411 652 411 652 394.5 636 c 128,-1,39
 378 620 378 620 359.5 620 c 128,-1,40
 341 620 341 620 329.5 631 c 128,-1,41
 318 642 318 642 318 653 c 0,42,43
 318 682 318 682 336 696.5 c 128,-1,35
 354 711 354 711 372 711 c 128,-1,36
EndSplineSet
EndChar

StartChar: divide
Encoding: 247 247 184
Width: 275
GlyphClass: 2
Flags: W
LayerCount: 2
Fore
SplineSet
167.5 16 m 128,-1,1
 151 0 151 0 132.5 0 c 128,-1,2
 114 0 114 0 102.5 11 c 128,-1,3
 91 22 91 22 91 40.5 c 128,-1,4
 91 59 91 59 107.5 75 c 128,-1,5
 124 91 124 91 143 91 c 128,-1,6
 162 91 162 91 173 80.5 c 128,-1,7
 184 70 184 70 184 51 c 128,-1,0
 184 32 184 32 167.5 16 c 128,-1,1
244.5 462 m 128,-1,9
 228 446 228 446 209.5 446 c 128,-1,10
 191 446 191 446 179.5 457 c 128,-1,11
 168 468 168 468 168 486.5 c 128,-1,12
 168 505 168 505 185 521 c 128,-1,13
 202 537 202 537 221 537 c 128,-1,14
 240 537 240 537 250.5 526.5 c 128,-1,15
 261 516 261 516 261 497 c 128,-1,8
 261 478 261 478 244.5 462 c 128,-1,9
287 270 m 1,16,-1
 73 270 l 1,17,-1
 81 321 l 1,18,-1
 295 321 l 1,19,-1
 287 270 l 1,16,-1
EndSplineSet
EndChar

StartChar: oslash
Encoding: 248 248 185
Width: 400
GlyphClass: 2
Flags: W
LayerCount: 2
Fore
SplineSet
102 23 m 1,0,1
 83 46 83 46 83 92 c 128,-1,2
 83 138 83 138 96.5 226 c 128,-1,3
 110 314 110 314 113.5 333.5 c 128,-1,4
 117 353 117 353 123 385 c 128,-1,5
 129 417 129 417 134 431 c 128,-1,6
 139 445 139 445 146.5 466.5 c 128,-1,7
 154 488 154 488 162 496 c 2,8,-1
 183 517 l 2,9,10
 195 529 195 529 210 533 c 0,11,12
 249 544 249 544 277.5 544 c 128,-1,13
 306 544 306 544 322 541 c 1,14,-1
 377 638 l 1,15,-1
 445 638 l 1,16,-1
 376 516 l 1,17,18
 396 493 396 493 396.5 450 c 128,-1,19
 397 407 397 407 383 317.5 c 128,-1,20
 369 228 369 228 366 209 c 128,-1,21
 363 190 363 190 356.5 157 c 128,-1,22
 350 124 350 124 345.5 110.5 c 128,-1,23
 341 97 341 97 333 74.5 c 128,-1,24
 325 52 325 52 317 43 c 128,-1,25
 309 34 309 34 297 21.5 c 128,-1,26
 285 9 285 9 270 4 c 0,27,28
 216 -12 216 -12 155 -3 c 1,29,-1
 105 -94 l 1,30,-1
 37 -94 l 1,31,-1
 102 23 l 1,0,1
205 46 m 0,32,33
 257 46 257 46 276 86.5 c 128,-1,34
 295 127 295 127 315.5 259 c 128,-1,35
 336 391 336 391 336 425 c 128,-1,36
 336 459 336 459 322.5 475 c 128,-1,37
 309 491 309 491 280.5 491 c 128,-1,38
 252 491 252 491 236 482.5 c 128,-1,39
 220 474 220 474 210 462.5 c 128,-1,40
 200 451 200 451 191 420 c 0,41,42
 180 380 180 380 162 270 c 128,-1,43
 144 160 144 160 144 119.5 c 128,-1,44
 144 79 144 79 157.5 62.5 c 128,-1,45
 171 46 171 46 205 46 c 0,32,33
EndSplineSet
EndChar

StartChar: ugrave
Encoding: 249 249 186
Width: 385
GlyphClass: 2
Flags: W
LayerCount: 2
Fore
SplineSet
99 16.5 m 128,-1,1
 76 40 76 40 76 90 c 128,-1,2
 76 140 76 140 97 271 c 2,3,-1
 140 537 l 1,4,5
 175 537 175 537 185 534.5 c 128,-1,6
 195 532 195 532 195 523.5 c 128,-1,7
 195 515 195 515 191 491 c 2,8,-1
 157 273 l 2,9,10
 138 148 138 148 138 116 c 0,11,12
 138 46 138 46 184 46 c 1,13,-1
 292 111 l 1,14,-1
 292 136 l 1,15,-1
 356 537 l 1,16,17
 391 537 391 537 401 534.5 c 128,-1,18
 411 532 411 532 411 523.5 c 128,-1,19
 411 515 411 515 407 491 c 2,20,-1
 330 0 l 1,21,22
 294 0 294 0 284 2.5 c 128,-1,23
 274 5 274 5 274 17 c 1,24,-1
 280 59 l 1,25,-1
 179 -7 l 1,26,0
 122 -7 122 -7 99 16.5 c 128,-1,1
231 712 m 2,27,28
 258 736 258 736 267.5 736 c 128,-1,29
 277 736 277 736 304 703 c 1,30,-1
 360 627 l 1,31,-1
 319 591 l 1,32,-1
 223 705 l 1,33,-1
 231 712 l 2,27,28
EndSplineSet
EndChar

StartChar: uacute
Encoding: 250 250 187
Width: 385
GlyphClass: 2
Flags: W
LayerCount: 2
Fore
SplineSet
99 16.5 m 128,-1,1
 76 40 76 40 76 90 c 128,-1,2
 76 140 76 140 97 271 c 2,3,-1
 140 537 l 1,4,5
 175 537 175 537 185 534.5 c 128,-1,6
 195 532 195 532 195 523.5 c 128,-1,7
 195 515 195 515 191 491 c 2,8,-1
 157 273 l 2,9,10
 138 148 138 148 138 116 c 0,11,12
 138 46 138 46 184 46 c 1,13,-1
 292 111 l 1,14,-1
 292 136 l 1,15,-1
 356 537 l 1,16,17
 391 537 391 537 401 534.5 c 128,-1,18
 411 532 411 532 411 523.5 c 128,-1,19
 411 515 411 515 407 491 c 2,20,-1
 330 0 l 1,21,22
 294 0 294 0 284 2.5 c 128,-1,23
 274 5 274 5 274 17 c 1,24,-1
 280 59 l 1,25,-1
 179 -7 l 1,26,0
 122 -7 122 -7 99 16.5 c 128,-1,1
410 713 m 1,27,-1
 276 599 l 1,28,-1
 247 635 l 1,29,-1
 327 711 l 1,30,31
 366 744 366 744 374.5 744 c 128,-1,32
 383 744 383 744 410 713 c 1,27,-1
EndSplineSet
EndChar

StartChar: ucircumflex
Encoding: 251 251 188
Width: 385
GlyphClass: 2
Flags: W
LayerCount: 2
Fore
SplineSet
99 16.5 m 128,-1,1
 76 40 76 40 76 90 c 128,-1,2
 76 140 76 140 97 271 c 2,3,-1
 140 537 l 1,4,5
 175 537 175 537 185 534.5 c 128,-1,6
 195 532 195 532 195 523.5 c 128,-1,7
 195 515 195 515 191 491 c 2,8,-1
 157 273 l 2,9,10
 138 148 138 148 138 116 c 0,11,12
 138 46 138 46 184 46 c 1,13,-1
 292 111 l 1,14,-1
 292 136 l 1,15,-1
 356 537 l 1,16,17
 391 537 391 537 401 534.5 c 128,-1,18
 411 532 411 532 411 523.5 c 128,-1,19
 411 515 411 515 407 491 c 2,20,-1
 330 0 l 1,21,22
 294 0 294 0 284 2.5 c 128,-1,23
 274 5 274 5 274 17 c 1,24,-1
 280 59 l 1,25,-1
 179 -7 l 1,26,0
 122 -7 122 -7 99 16.5 c 128,-1,1
410 627 m 1,27,-1
 303 693 l 1,28,-1
 175 627 l 1,29,-1
 184 682 l 1,30,-1
 297 742 l 1,31,-1
 323 742 l 1,32,-1
 419 681 l 1,33,-1
 410 627 l 1,27,-1
EndSplineSet
EndChar

StartChar: udieresis
Encoding: 252 252 189
Width: 385
GlyphClass: 2
Flags: W
LayerCount: 2
Fore
SplineSet
99 16.5 m 128,-1,1
 76 40 76 40 76 90 c 128,-1,2
 76 140 76 140 97 271 c 2,3,-1
 140 537 l 1,4,5
 175 537 175 537 185 534.5 c 128,-1,6
 195 532 195 532 195 523.5 c 128,-1,7
 195 515 195 515 191 491 c 2,8,-1
 157 273 l 2,9,10
 138 148 138 148 138 116 c 0,11,12
 138 46 138 46 184 46 c 1,13,-1
 292 111 l 1,14,-1
 292 136 l 1,15,-1
 356 537 l 1,16,17
 391 537 391 537 401 534.5 c 128,-1,18
 411 532 411 532 411 523.5 c 128,-1,19
 411 515 411 515 407 491 c 2,20,-1
 330 0 l 1,21,22
 294 0 294 0 284 2.5 c 128,-1,23
 274 5 274 5 274 17 c 1,24,-1
 280 59 l 1,25,-1
 179 -7 l 1,26,0
 122 -7 122 -7 99 16.5 c 128,-1,1
236.5 709 m 128,-1,28
 254 709 254 709 265 698.5 c 128,-1,29
 276 688 276 688 276 669 c 128,-1,30
 276 650 276 650 259.5 634 c 128,-1,31
 243 618 243 618 224.5 618 c 128,-1,32
 206 618 206 618 194.5 629 c 128,-1,33
 183 640 183 640 183 651 c 0,34,35
 183 680 183 680 201 694.5 c 128,-1,27
 219 709 219 709 236.5 709 c 128,-1,28
380 709 m 128,-1,37
 398 709 398 709 408.5 698.5 c 128,-1,38
 419 688 419 688 419 669 c 128,-1,39
 419 650 419 650 402.5 634 c 128,-1,40
 386 618 386 618 367.5 618 c 128,-1,41
 349 618 349 618 337.5 629 c 128,-1,42
 326 640 326 640 326 651 c 0,43,44
 326 680 326 680 344 694.5 c 128,-1,36
 362 709 362 709 380 709 c 128,-1,37
EndSplineSet
EndChar

StartChar: yacute
Encoding: 253 253 190
Width: 317
GlyphClass: 2
Flags: W
LayerCount: 2
Fore
SplineSet
378 524 m 0,0,1
 370 465 370 465 199 0 c 0,2,3
 195 -10 195 -10 185.5 -37.5 c 128,-1,4
 176 -65 176 -65 172 -75 c 128,-1,5
 168 -85 168 -85 157.5 -107.5 c 128,-1,6
 147 -130 147 -130 138.5 -139 c 128,-1,7
 130 -148 130 -148 115 -163 c 128,-1,8
 100 -178 100 -178 84 -184 c 0,9,10
 41 -200 41 -200 -5 -200 c 1,11,-1
 1 -153 l 1,12,13
 56 -153 56 -153 88.5 -110.5 c 128,-1,14
 121 -68 121 -68 121 -9 c 0,15,16
 121 24 121 24 105 537 c 1,17,18
 148 537 148 537 155.5 531 c 128,-1,19
 163 525 163 525 164 491 c 2,20,-1
 168 70 l 1,21,-1
 181 70 l 1,22,-1
 328 537 l 1,23,-1
 352 537 l 2,24,25
 372 537 372 537 375 533 c 128,-1,26
 378 529 378 529 378 524 c 0,0,1
361 717 m 1,27,-1
 227 603 l 1,28,-1
 198 639 l 1,29,-1
 278 715 l 1,30,31
 317 748 317 748 325.5 748 c 128,-1,32
 334 748 334 748 361 717 c 1,27,-1
EndSplineSet
EndChar

StartChar: thorn
Encoding: 254 254 191
Width: 386
GlyphClass: 2
Flags: W
LayerCount: 2
Fore
SplineSet
289 88 m 0,0,1
 312 137 312 137 340 322 c 0,2,3
 348 378 348 378 348 415 c 128,-1,4
 348 452 348 452 333 471.5 c 128,-1,5
 318 491 318 491 283 491 c 1,6,-1
 191 467 l 1,7,-1
 132 90 l 1,8,-1
 213 46 l 1,9,10
 270 46 270 46 289 88 c 0,0,1
227 724 m 0,11,12
 229 720 229 720 229 711 c 128,-1,13
 229 702 229 702 226 686 c 2,14,-1
 199 516 l 1,15,-1
 288 544 l 1,16,17
 356 544 356 544 382.5 518.5 c 128,-1,18
 409 493 409 493 409 440.5 c 128,-1,19
 409 388 409 388 396.5 308 c 128,-1,20
 384 228 384 228 381 210.5 c 128,-1,21
 378 193 378 193 372 163 c 128,-1,22
 366 133 366 133 362.5 120 c 128,-1,23
 359 107 359 107 352 85.5 c 128,-1,24
 345 64 345 64 338.5 55.5 c 128,-1,25
 332 47 332 47 322 33 c 128,-1,26
 312 19 312 19 301 14 c 128,-1,27
 290 9 290 9 276 3 c 0,28,29
 251 -7 251 -7 205 -7 c 1,30,-1
 126 53 l 1,31,-1
 94 -147 l 2,32,33
 87 -187 87 -187 79 -193.5 c 128,-1,34
 71 -200 71 -200 28 -200 c 1,35,-1
 175 732 l 1,36,37
 223 732 223 732 227 724 c 0,11,12
EndSplineSet
EndChar

StartChar: ydieresis
Encoding: 255 255 192
Width: 317
GlyphClass: 2
Flags: W
LayerCount: 2
Fore
SplineSet
378 524 m 0,0,1
 370 465 370 465 199 0 c 0,2,3
 195 -10 195 -10 185.5 -37.5 c 128,-1,4
 176 -65 176 -65 172 -75 c 128,-1,5
 168 -85 168 -85 157.5 -107.5 c 128,-1,6
 147 -130 147 -130 138.5 -139 c 128,-1,7
 130 -148 130 -148 115 -163 c 128,-1,8
 100 -178 100 -178 84 -184 c 0,9,10
 41 -200 41 -200 -5 -200 c 1,11,-1
 1 -153 l 1,12,13
 56 -153 56 -153 88.5 -110.5 c 128,-1,14
 121 -68 121 -68 121 -9 c 0,15,16
 121 24 121 24 105 537 c 1,17,18
 148 537 148 537 155.5 531 c 128,-1,19
 163 525 163 525 164 491 c 2,20,-1
 168 70 l 1,21,-1
 181 70 l 1,22,-1
 328 537 l 1,23,-1
 352 537 l 2,24,25
 372 537 372 537 375 533 c 128,-1,26
 378 529 378 529 378 524 c 0,0,1
204 711 m 128,-1,28
 222 711 222 711 232.5 700.5 c 128,-1,29
 243 690 243 690 243 671 c 128,-1,30
 243 652 243 652 226.5 636 c 128,-1,31
 210 620 210 620 191.5 620 c 128,-1,32
 173 620 173 620 161.5 631 c 128,-1,33
 150 642 150 642 150 653 c 0,34,35
 150 682 150 682 168 696.5 c 128,-1,27
 186 711 186 711 204 711 c 128,-1,28
346.5 711 m 128,-1,37
 364 711 364 711 375 700.5 c 128,-1,38
 386 690 386 690 386 671 c 128,-1,39
 386 652 386 652 369.5 636 c 128,-1,40
 353 620 353 620 334.5 620 c 128,-1,41
 316 620 316 620 304.5 631 c 128,-1,42
 293 642 293 642 293 653 c 0,43,44
 293 682 293 682 311 696.5 c 128,-1,36
 329 711 329 711 346.5 711 c 128,-1,37
EndSplineSet
EndChar

StartChar: dotlessi
Encoding: 305 305 193
Width: 207
GlyphClass: 2
Flags: W
LayerCount: 2
Fore
SplineSet
135 449 m 2,0,-1
 215 449 l 1,1,-1
 164 128 l 1,2,-1
 111 128 l 1,3,-1
 154 403 l 1,4,-1
 74 403 l 1,5,6
 80 438 80 438 87.5 443.5 c 128,-1,7
 95 449 95 449 135 449 c 2,0,-1
EndSplineSet
EndChar

StartChar: lslash
Encoding: 322 322 195
Width: 287
GlyphClass: 2
Flags: W
LayerCount: 2
Fore
SplineSet
118 4 m 0,0,1
 116 8 116 8 116 16 c 128,-1,2
 116 24 116 24 228 732 c 1,3,4
 277 732 277 732 281 724 c 0,5,6
 283 720 283 720 283 711.5 c 128,-1,7
 283 703 283 703 171 -4 c 1,8,9
 122 -4 122 -4 118 4 c 0,0,1
326 300 m 1,10,-1
 53 300 l 1,11,-1
 61 351 l 1,12,-1
 334 351 l 1,13,-1
 326 300 l 1,10,-1
EndSplineSet
EndChar

StartChar: OE
Encoding: 338 338 196
Width: 653
GlyphClass: 2
Flags: W
LayerCount: 2
Fore
SplineSet
119 28 m 128,-1,1
 85 63 85 63 85 131 c 128,-1,2
 85 199 85 199 113.5 375.5 c 128,-1,3
 142 552 142 552 164 610 c 0,4,5
 197 696 197 696 267 720 c 0,6,7
 303 732 303 732 356 732 c 1,8,-1
 446 720 l 1,9,-1
 729 720 l 1,10,-1
 720 667 l 1,11,-1
 502 667 l 1,12,-1
 502 642 l 1,13,-1
 471 443 l 1,14,-1
 463 418 l 1,15,-1
 667 418 l 1,16,-1
 658 361 l 1,17,-1
 455 361 l 1,18,-1
 455 336 l 1,19,-1
 414 82 l 1,20,-1
 407 57 l 1,21,-1
 634 57 l 1,22,-1
 625 0 l 1,23,-1
 332 0 l 1,24,-1
 239 -7 l 1,25,0
 153 -7 153 -7 119 28 c 128,-1,1
184 423.5 m 128,-1,27
 181 406 181 406 166.5 315 c 128,-1,28
 152 224 152 224 152 165.5 c 128,-1,29
 152 107 152 107 173.5 78.5 c 128,-1,30
 195 50 195 50 248 50 c 1,31,-1
 341 57 l 1,32,-1
 437 663 l 1,33,-1
 347 675 l 1,34,35
 306 675 306 675 289 664 c 128,-1,36
 272 653 272 653 262 646.5 c 128,-1,37
 252 640 252 640 242.5 623 c 128,-1,38
 233 606 233 606 227 595.5 c 128,-1,39
 221 585 221 585 214 560 c 128,-1,40
 207 535 207 535 203 521 c 128,-1,41
 199 507 199 507 193 474 c 128,-1,26
 187 441 187 441 184 423.5 c 128,-1,27
EndSplineSet
EndChar

StartChar: oe
Encoding: 339 339 197
Width: 628
GlyphClass: 2
Flags: W
LayerCount: 2
Fore
SplineSet
553 10 m 1,0,1
 475 -7 475 -7 429.5 -7 c 128,-1,2
 384 -7 384 -7 361 3 c 128,-1,3
 338 13 338 13 324 37 c 1,4,5
 287 -7 287 -7 209.5 -7 c 128,-1,6
 132 -7 132 -7 105 18.5 c 128,-1,7
 78 44 78 44 78 93 c 128,-1,8
 78 142 78 142 92 230 c 128,-1,9
 106 318 106 318 110 340.5 c 128,-1,10
 114 363 114 363 121 396.5 c 128,-1,11
 128 430 128 430 134 445.5 c 128,-1,12
 140 461 140 461 150.5 481.5 c 128,-1,13
 161 502 161 502 173 510.5 c 128,-1,14
 185 519 185 519 202 528 c 0,15,16
 230 544 230 544 289 544 c 0,17,18
 375 544 375 544 398 504 c 1,19,20
 419 526 419 526 445.5 535 c 128,-1,21
 472 544 472 544 523.5 544 c 128,-1,22
 575 544 575 544 597.5 521 c 128,-1,23
 620 498 620 498 620 458 c 128,-1,24
 620 418 620 418 605 322 c 1,25,-1
 601 262 l 1,26,-1
 381 262 l 1,27,-1
 381 233 l 1,28,29
 366 146 366 146 366 111 c 128,-1,30
 366 76 366 76 382 61 c 128,-1,31
 398 46 398 46 448.5 46 c 128,-1,32
 499 46 499 46 561 59 c 1,33,-1
 553 10 l 1,0,1
554 367 m 1,34,35
 563 425 563 425 563 447 c 128,-1,36
 563 469 563 469 551.5 480 c 128,-1,37
 540 491 540 491 510 491 c 0,38,39
 452 491 452 491 434 461 c 128,-1,40
 416 431 416 431 405 349 c 0,41,42
 405 346 405 346 404.5 343.5 c 128,-1,43
 404 341 404 341 404 339 c 2,44,-1
 396 317 l 1,45,-1
 551 317 l 1,46,-1
 554 367 l 1,34,35
210 46 m 0,47,48
 270 46 270 46 290.5 90.5 c 128,-1,49
 311 135 311 135 330.5 259.5 c 128,-1,50
 350 384 350 384 350 420 c 128,-1,51
 350 456 350 456 334.5 473.5 c 128,-1,52
 319 491 319 491 288.5 491 c 128,-1,53
 258 491 258 491 242.5 487 c 128,-1,54
 227 483 227 483 214.5 468 c 128,-1,55
 202 453 202 453 195 441.5 c 128,-1,56
 188 430 188 430 180 398 c 0,57,58
 168 345 168 345 153.5 250.5 c 128,-1,59
 139 156 139 156 139 119 c 128,-1,60
 139 82 139 82 155 64 c 128,-1,61
 171 46 171 46 210 46 c 0,47,48
EndSplineSet
EndChar

StartChar: Scaron
Encoding: 352 352 198
Width: 391
GlyphClass: 2
Flags: W
LayerCount: 2
Fore
SplineSet
369 671 m 1,0,-1
 314 677 l 1,1,2
 244 677 244 677 218 646.5 c 128,-1,3
 192 616 192 616 192 559 c 0,4,5
 192 524 192 524 223 484.5 c 128,-1,6
 254 445 254 445 291 414 c 128,-1,7
 328 383 328 383 359 339.5 c 128,-1,8
 390 296 390 296 390 253 c 0,9,10
 390 -6 390 -6 180 -7 c 1,11,-1
 39 13 l 1,12,-1
 47 69 l 1,13,-1
 192 59 l 1,14,15
 274 59 274 59 301 114 c 0,16,17
 314 140 314 140 319 167.5 c 128,-1,18
 324 195 324 195 324 228.5 c 128,-1,19
 324 262 324 262 293 301.5 c 128,-1,20
 262 341 262 341 225 374.5 c 128,-1,21
 188 408 188 408 157 455 c 128,-1,22
 126 502 126 502 126 546 c 0,23,24
 126 641 126 641 164.5 686.5 c 128,-1,25
 203 732 203 732 311 732 c 0,26,27
 314 732 314 732 316 732 c 2,28,-1
 419 712 l 1,29,30
 415 687 415 687 406.5 678.5 c 128,-1,31
 398 670 398 670 382 670 c 1,32,-1
 369 671 l 1,0,-1
455 873 m 1,33,-1
 342 822 l 1,34,-1
 316 822 l 1,35,-1
 220 872 l 1,36,-1
 228 927 l 1,37,-1
 337 871 l 1,38,-1
 463 927 l 1,39,-1
 455 873 l 1,33,-1
EndSplineSet
EndChar

StartChar: scaron
Encoding: 353 353 199
Width: 334
GlyphClass: 2
Flags: W
LayerCount: 2
Fore
SplineSet
167 51 m 2,0,1
 172 51 172 51 177 51 c 0,2,3
 208 52 208 52 227.5 89.5 c 128,-1,4
 247 127 247 127 247 171 c 0,5,6
 247 176 247 176 247 180 c 0,7,8
 245 211 245 211 193 254 c 0,9,10
 171 272 171 272 149 292 c 128,-1,11
 127 312 127 312 108.5 342.5 c 128,-1,12
 90 373 90 373 96 407 c 1,13,14
 105 496 105 496 136 518 c 0,15,16
 171 544 171 544 234 546 c 1,17,-1
 327 535 l 1,18,19
 322 491 322 491 287 489 c 0,20,21
 282 489 282 489 272 491 c 2,22,-1
 232 495 l 1,23,24
 153 492 153 492 153 416 c 0,25,26
 153 386 153 386 178 357 c 0,27,28
 202 329 202 329 231 306.5 c 128,-1,29
 260 284 260 284 285 253 c 128,-1,30
 310 222 310 222 310 188 c 0,31,32
 310 88 310 88 252 28 c 0,33,34
 219 -6 219 -6 177.5 -6.5 c 128,-1,35
 136 -7 136 -7 88 0 c 0,36,37
 63 3 63 3 52 4 c 1,38,-1
 58 57 l 1,39,-1
 167 51 l 2,0,1
371 678 m 1,40,-1
 258 627 l 1,41,-1
 232 627 l 1,42,-1
 136 677 l 1,43,-1
 144 732 l 1,44,-1
 253 676 l 1,45,-1
 379 732 l 1,46,-1
 371 678 l 1,40,-1
EndSplineSet
EndChar

StartChar: zcaron
Encoding: 382 382 202
Width: 333
GlyphClass: 2
Flags: W
LayerCount: 2
Fore
SplineSet
191 537 m 2,0,-1
 376 537 l 1,1,-1
 367 483 l 1,2,-1
 107 53 l 1,3,-1
 243 53 l 2,4,5
 278 53 278 53 287.5 50 c 128,-1,6
 297 47 297 47 297 37.5 c 128,-1,7
 297 28 297 28 293 0 c 1,8,-1
 40 0 l 1,9,-1
 48 53 l 1,10,-1
 299 483 l 1,11,-1
 136 483 l 1,12,13
 143 523 143 523 149.5 530 c 128,-1,14
 156 537 156 537 191 537 c 2,0,-1
409 678 m 1,15,-1
 296 627 l 1,16,-1
 270 627 l 1,17,-1
 174 677 l 1,18,-1
 182 732 l 1,19,-1
 291 676 l 1,20,-1
 417 732 l 1,21,-1
 409 678 l 1,15,-1
EndSplineSet
EndChar

StartChar: florin
Encoding: 402 402 203
Width: 281
GlyphClass: 2
Flags: W
LayerCount: 2
Fore
SplineSet
168 341 m 1,0,-1
 168 366 l 1,1,-1
 171 382 l 2,2,3
 188 474 188 474 199 496 c 0,4,5
 220 540 220 540 271 540 c 1,6,-1
 356 537 l 1,7,8
 351 506 351 506 344 501 c 128,-1,9
 337 496 337 496 299 494 c 2,10,-1
 271 493 l 2,11,12
 247 492 247 492 231 382 c 1,13,-1
 221 341 l 1,14,-1
 320 341 l 1,15,-1
 311 287 l 1,16,-1
 211 287 l 1,17,-1
 211 262 l 1,18,-1
 152 -110 l 1,19,20
 130 -110 130 -110 121 -109 c 0,21,22
 98 -106 98 -106 98 -80 c 0,23,24
 98 -76 98 -76 100 -58 c 2,25,-1
 152 262 l 1,26,-1
 160 287 l 1,27,-1
 107 287 l 1,28,-1
 116 341 l 1,29,-1
 168 341 l 1,0,-1
EndSplineSet
EndChar

StartChar: circumflex
Encoding: 710 710 204
Width: 352
GlyphClass: 2
Flags: W
LayerCount: 2
Fore
SplineSet
390 617 m 1,0,-1
 283 683 l 1,1,-1
 155 617 l 1,2,-1
 164 672 l 1,3,-1
 277 732 l 1,4,-1
 303 732 l 1,5,-1
 399 671 l 1,6,-1
 390 617 l 1,0,-1
EndSplineSet
EndChar

StartChar: caron
Encoding: 711 711 205
Width: 347
GlyphClass: 2
Flags: W
LayerCount: 2
Fore
SplineSet
398 678 m 1,0,-1
 285 627 l 1,1,-1
 259 627 l 1,2,-1
 163 677 l 1,3,-1
 171 732 l 1,4,-1
 280 676 l 1,5,-1
 406 732 l 1,6,-1
 398 678 l 1,0,-1
EndSplineSet
EndChar

StartChar: breve
Encoding: 728 728 206
Width: 352
GlyphClass: 2
Flags: W
LayerCount: 2
Fore
SplineSet
409 607 m 1,0,-1
 283 683 l 1,1,-1
 134 607 l 1,2,-1
 142 662 l 1,3,-1
 277 732 l 1,4,-1
 303 732 l 1,5,-1
 417 661 l 1,6,-1
 409 607 l 1,0,-1
EndSplineSet
EndChar

StartChar: dotaccent
Encoding: 729 729 207
Width: 176
GlyphClass: 2
Flags: W
LayerCount: 2
Fore
SplineSet
229.5 657 m 128,-1,1
 213 641 213 641 194.5 641 c 128,-1,2
 176 641 176 641 164.5 652 c 128,-1,3
 153 663 153 663 153 681.5 c 128,-1,4
 153 700 153 700 169.5 716 c 128,-1,5
 186 732 186 732 205 732 c 128,-1,6
 224 732 224 732 235 721.5 c 128,-1,7
 246 711 246 711 246 692 c 128,-1,0
 246 673 246 673 229.5 657 c 128,-1,1
EndSplineSet
EndChar

StartChar: ring
Encoding: 730 730 208
Width: 249
GlyphClass: 2
Flags: W
LayerCount: 2
Fore
SplineSet
289.5 711.5 m 128,-1,1
 310 692 310 692 310 658.5 c 128,-1,2
 310 625 310 625 280 596.5 c 128,-1,3
 250 568 250 568 216 568 c 128,-1,4
 182 568 182 568 162 588 c 128,-1,5
 142 608 142 608 142 641 c 128,-1,6
 142 674 142 674 171.5 702.5 c 128,-1,7
 201 731 201 731 235 731 c 128,-1,0
 269 731 269 731 289.5 711.5 c 128,-1,1
194 619 m 128,-1,9
 204 609 204 609 221.5 609 c 128,-1,10
 239 609 239 609 253 623.5 c 128,-1,11
 267 638 267 638 267 654.5 c 128,-1,12
 267 671 267 671 257.5 680.5 c 128,-1,13
 248 690 248 690 231.5 690 c 128,-1,14
 215 690 215 690 199.5 676 c 128,-1,15
 184 662 184 662 184 645.5 c 128,-1,8
 184 629 184 629 194 619 c 128,-1,9
EndSplineSet
EndChar

StartChar: ogonek
Encoding: 731 731 209
Width: 203
GlyphClass: 2
Flags: W
LayerCount: 2
Fore
SplineSet
154 -200 m 1,0,-1
 89 -200 l 1,1,-1
 9 -113 l 1,2,-1
 13 -87 l 1,3,-1
 67 0 l 1,4,-1
 121 0 l 1,5,-1
 60 -100 l 1,6,-1
 154 -200 l 1,0,-1
EndSplineSet
EndChar

StartChar: tilde
Encoding: 732 732 210
Width: 377
GlyphClass: 2
Flags: W
LayerCount: 2
Fore
SplineSet
241 720 m 1,0,-1
 357 716 l 2,1,2
 384 716 384 716 404 720 c 1,3,-1
 416 718 l 1,4,-1
 413 697 l 2,5,6
 410 675 410 675 401.5 671 c 128,-1,7
 393 667 393 667 349 667 c 1,8,-1
 233 670 l 2,9,10
 200 670 200 670 186 667 c 1,11,-1
 173 669 l 1,12,-1
 177 690 l 2,13,14
 182 713 182 713 189 716.5 c 128,-1,15
 196 720 196 720 241 720 c 1,0,-1
EndSplineSet
EndChar

StartChar: hungarumlaut
Encoding: 733 733 211
Width: 382
GlyphClass: 2
Flags: W
LayerCount: 2
Fore
SplineSet
293 701 m 1,0,-1
 159 587 l 1,1,-1
 130 623 l 1,2,-1
 210 699 l 1,3,4
 249 732 249 732 257.5 732 c 128,-1,5
 266 732 266 732 293 701 c 1,0,-1
464 701 m 1,6,-1
 330 587 l 1,7,-1
 301 623 l 1,8,-1
 381 699 l 1,9,10
 420 732 420 732 428.5 732 c 128,-1,11
 437 732 437 732 464 701 c 1,6,-1
EndSplineSet
EndChar

StartChar: endash
Encoding: 8211 8211 215
Width: 395
GlyphClass: 2
Flags: W
LayerCount: 2
Fore
SplineSet
380 300 m 1,0,-1
 107 300 l 1,1,-1
 115 351 l 1,2,-1
 388 351 l 1,3,-1
 380 300 l 1,0,-1
EndSplineSet
EndChar

StartChar: emdash
Encoding: 8212 8212 216
Width: 613
GlyphClass: 2
Flags: W
LayerCount: 2
Fore
SplineSet
599 300 m 1,0,-1
 107 300 l 1,1,-1
 115 351 l 1,2,-1
 607 351 l 1,3,-1
 599 300 l 1,0,-1
EndSplineSet
EndChar

StartChar: quoteleft
Encoding: 8216 8216 217
Width: 166
GlyphClass: 2
Flags: W
LayerCount: 2
Fore
SplineSet
202 562 m 0,0,1
 202 539 202 539 186.5 522 c 128,-1,2
 171 505 171 505 151 505 c 128,-1,3
 131 505 131 505 120 516 c 128,-1,4
 109 527 109 527 109 542.5 c 128,-1,5
 109 558 109 558 134 604.5 c 128,-1,6
 159 651 159 651 184 691.5 c 128,-1,7
 209 732 209 732 212 732 c 1,8,-1
 247 707 l 1,9,10
 202 605 202 605 202 562 c 0,0,1
EndSplineSet
EndChar

StartChar: quoteright
Encoding: 8217 8217 218
Width: 164
GlyphClass: 2
Flags: W
LayerCount: 2
Fore
SplineSet
159 675 m 0,0,1
 159 699 159 699 174 715.5 c 128,-1,2
 189 732 189 732 209 732 c 128,-1,3
 229 732 229 732 240 721 c 128,-1,4
 251 710 251 710 251 694 c 128,-1,5
 251 678 251 678 226 631.5 c 128,-1,6
 201 585 201 585 176 545 c 128,-1,7
 151 505 151 505 148 505 c 1,8,-1
 113 530 l 1,9,10
 159 631 159 631 159 675 c 0,0,1
EndSplineSet
EndChar

StartChar: quotesinglbase
Encoding: 8218 8218 219
Width: 164
GlyphClass: 2
Flags: W
LayerCount: 2
Fore
SplineSet
12 -111 m 1,0,1
 58 -7 58 -7 58 46 c 1,2,3
 61 65 61 65 76.5 78 c 128,-1,4
 92 91 92 91 110 91 c 128,-1,5
 128 91 128 91 139 80 c 128,-1,6
 150 69 150 69 150 51.5 c 128,-1,7
 150 34 150 34 102 -51 c 128,-1,8
 54 -136 54 -136 47 -136 c 1,9,-1
 12 -111 l 1,0,1
EndSplineSet
EndChar

StartChar: quotedblleft
Encoding: 8220 8220 220
Width: 343
GlyphClass: 2
Flags: W
LayerCount: 2
Fore
SplineSet
364 562 m 0,0,1
 364 539 364 539 348.5 522 c 128,-1,2
 333 505 333 505 313 505 c 128,-1,3
 293 505 293 505 282 516 c 128,-1,4
 271 527 271 527 271 542.5 c 128,-1,5
 271 558 271 558 296 604.5 c 128,-1,6
 321 651 321 651 346 691.5 c 128,-1,7
 371 732 371 732 374 732 c 1,8,-1
 409 707 l 1,9,10
 364 605 364 605 364 562 c 0,0,1
220 562 m 0,11,12
 220 539 220 539 204.5 522 c 128,-1,13
 189 505 189 505 169 505 c 128,-1,14
 149 505 149 505 138 516 c 128,-1,15
 127 527 127 527 127 542.5 c 128,-1,16
 127 558 127 558 152 604.5 c 128,-1,17
 177 651 177 651 202 691.5 c 128,-1,18
 227 732 227 732 230 732 c 1,19,-1
 265 707 l 1,20,21
 220 605 220 605 220 562 c 0,11,12
EndSplineSet
EndChar

StartChar: quotedblright
Encoding: 8221 8221 221
Width: 343
GlyphClass: 2
Flags: W
LayerCount: 2
Fore
SplineSet
175 675 m 0,0,1
 175 699 175 699 190 715.5 c 128,-1,2
 205 732 205 732 225 732 c 128,-1,3
 245 732 245 732 256 721 c 128,-1,4
 267 710 267 710 267 694 c 128,-1,5
 267 678 267 678 242 631.5 c 128,-1,6
 217 585 217 585 192 545 c 128,-1,7
 167 505 167 505 164 505 c 1,8,-1
 129 530 l 1,9,10
 175 631 175 631 175 675 c 0,0,1
319 675 m 0,11,12
 319 699 319 699 334 715.5 c 128,-1,13
 349 732 349 732 369 732 c 128,-1,14
 389 732 389 732 400 721 c 128,-1,15
 411 710 411 710 411 694 c 128,-1,16
 411 678 411 678 386 631.5 c 128,-1,17
 361 585 361 585 336 545 c 128,-1,18
 311 505 311 505 308 505 c 1,19,-1
 273 530 l 1,20,21
 319 631 319 631 319 675 c 0,11,12
EndSplineSet
EndChar

StartChar: quotedblbase
Encoding: 8222 8222 222
Width: 345
GlyphClass: 2
Flags: W
LayerCount: 2
Fore
SplineSet
28 -111 m 1,0,1
 74 -7 74 -7 74 46 c 1,2,3
 77 65 77 65 92.5 78 c 128,-1,4
 108 91 108 91 126 91 c 128,-1,5
 144 91 144 91 155 80 c 128,-1,6
 166 69 166 69 166 51.5 c 128,-1,7
 166 34 166 34 118 -51 c 128,-1,8
 70 -136 70 -136 63 -136 c 1,9,-1
 28 -111 l 1,0,1
174 -111 m 1,10,11
 220 -7 220 -7 220 46 c 1,12,13
 223 65 223 65 238.5 78 c 128,-1,14
 254 91 254 91 272 91 c 128,-1,15
 290 91 290 91 301 80 c 128,-1,16
 312 69 312 69 312 51.5 c 128,-1,17
 312 34 312 34 264 -51 c 128,-1,18
 216 -136 216 -136 209 -136 c 1,19,-1
 174 -111 l 1,10,11
EndSplineSet
EndChar

StartChar: dagger
Encoding: 8224 8224 223
Width: 288
GlyphClass: 2
Flags: W
LayerCount: 2
Fore
SplineSet
179 403 m 1,0,-1
 179 428 l 1,1,-1
 227 732 l 1,2,-1
 290 732 l 1,3,-1
 242 428 l 1,4,-1
 234 403 l 1,5,-1
 344 403 l 1,6,-1
 336 352 l 1,7,-1
 226 352 l 1,8,-1
 226 327 l 1,9,-1
 175 0 l 1,10,-1
 112 0 l 1,11,-1
 163 327 l 1,12,-1
 171 352 l 1,13,-1
 63 352 l 1,14,-1
 71 403 l 1,15,-1
 179 403 l 1,0,-1
EndSplineSet
EndChar

StartChar: daggerdbl
Encoding: 8225 8225 224
Width: 292
GlyphClass: 2
Flags: W
LayerCount: 2
Fore
SplineSet
181 403 m 1,0,-1
 181 428 l 1,1,-1
 190 456 l 1,2,-1
 82 456 l 1,3,-1
 90 507 l 1,4,-1
 198 507 l 1,5,-1
 198 532 l 1,6,-1
 229 732 l 1,7,-1
 292 732 l 1,8,-1
 261 532 l 1,9,-1
 253 507 l 1,10,-1
 363 507 l 1,11,-1
 355 456 l 1,12,-1
 245 456 l 1,13,-1
 245 431 l 1,14,-1
 236 403 l 1,15,-1
 346 403 l 1,16,-1
 338 352 l 1,17,-1
 228 352 l 1,18,-1
 228 327 l 1,19,-1
 177 0 l 1,20,-1
 114 0 l 1,21,-1
 165 327 l 1,22,-1
 173 352 l 1,23,-1
 65 352 l 1,24,-1
 73 403 l 1,25,-1
 181 403 l 1,0,-1
EndSplineSet
EndChar

StartChar: bullet
Encoding: 8226 8226 225
Width: 222
GlyphClass: 2
Flags: W
LayerCount: 2
Fore
SplineSet
211 352.5 m 128,-1,1
 228 336 228 336 228 308.5 c 128,-1,2
 228 281 228 281 202.5 256.5 c 128,-1,3
 177 232 177 232 149.5 232 c 128,-1,4
 122 232 122 232 105 249 c 128,-1,5
 88 266 88 266 88 290 c 0,6,7
 88 325 88 325 114 347 c 128,-1,8
 140 369 140 369 167 369 c 128,-1,0
 194 369 194 369 211 352.5 c 128,-1,1
EndSplineSet
EndChar

StartChar: ellipsis
Encoding: 8230 8230 226
Width: 489
GlyphClass: 2
Flags: W
LayerCount: 2
Fore
SplineSet
115 91 m 128,-1,1
 133 91 133 91 144 80.5 c 128,-1,2
 155 70 155 70 155 51 c 128,-1,3
 155 32 155 32 138.5 16 c 128,-1,4
 122 0 122 0 103.5 0 c 128,-1,5
 85 0 85 0 73.5 11 c 128,-1,6
 62 22 62 22 62 33 c 0,7,8
 62 62 62 62 79.5 76.5 c 128,-1,0
 97 91 97 91 115 91 c 128,-1,1
261 91 m 128,-1,10
 279 91 279 91 290 80.5 c 128,-1,11
 301 70 301 70 301 51 c 128,-1,12
 301 32 301 32 284.5 16 c 128,-1,13
 268 0 268 0 249.5 0 c 128,-1,14
 231 0 231 0 219.5 11 c 128,-1,15
 208 22 208 22 208 33 c 0,16,17
 208 62 208 62 225.5 76.5 c 128,-1,9
 243 91 243 91 261 91 c 128,-1,10
401 91 m 128,-1,19
 419 91 419 91 430 80.5 c 128,-1,20
 441 70 441 70 441 51 c 128,-1,21
 441 32 441 32 424.5 16 c 128,-1,22
 408 0 408 0 389.5 0 c 128,-1,23
 371 0 371 0 359.5 11 c 128,-1,24
 348 22 348 22 348 33 c 0,25,26
 348 62 348 62 365.5 76.5 c 128,-1,18
 383 91 383 91 401 91 c 128,-1,19
EndSplineSet
EndChar

StartChar: perthousand
Encoding: 8240 8240 227
Width: 374
GlyphClass: 2
Flags: W
LayerCount: 2
Fore
SplineSet
73 0 m 1,0,-1
 5 0 l 1,1,-1
 414 732 l 1,2,-1
 482 732 l 1,3,-1
 73 0 l 1,0,-1
EndSplineSet
EndChar

StartChar: guilsinglleft
Encoding: 8249 8249 228
Width: 185
GlyphClass: 2
Flags: W
LayerCount: 2
Fore
SplineSet
164 135 m 1,0,-1
 109 135 l 1,1,-1
 63 289 l 1,2,-1
 67 315 l 1,3,-1
 163 470 l 1,4,-1
 217 470 l 1,5,-1
 114 302 l 1,6,-1
 164 135 l 1,0,-1
EndSplineSet
EndChar

StartChar: guilsinglright
Encoding: 8250 8250 229
Width: 185
GlyphClass: 2
Flags: W
LayerCount: 2
Fore
SplineSet
118 135 m 1,0,-1
 63 135 l 1,1,-1
 165 302 l 1,2,-1
 116 470 l 1,3,-1
 170 470 l 1,4,-1
 216 315 l 1,5,-1
 212 289 l 1,6,-1
 118 135 l 1,0,-1
EndSplineSet
EndChar

StartChar: fraction
Encoding: 8260 8260 230
Width: 372
GlyphClass: 2
Flags: W
LayerCount: 2
Fore
SplineSet
73 0 m 1,0,-1
 5 0 l 1,1,-1
 414 732 l 1,2,-1
 482 732 l 1,3,-1
 73 0 l 1,0,-1
EndSplineSet
EndChar

StartChar: Euro
Encoding: 8364 8364 231
Width: 394
GlyphClass: 2
Flags: W
LayerCount: 2
Fore
SplineSet
149.5 18 m 128,-1,1
 126 42 126 42 126 87.5 c 128,-1,2
 126 133 126 133 134 191 c 1,3,-1
 141 203 l 1,4,5
 127 204 127 204 104.5 204 c 128,-1,6
 82 204 82 204 73 202 c 1,7,-1
 61 204 l 1,8,-1
 64 225 l 2,9,10
 67 247 67 247 75.5 251 c 128,-1,11
 84 255 84 255 128 255 c 2,12,-1
 148 255 l 1,13,-1
 146 267 l 1,14,-1
 150 293 l 1,15,-1
 155 302 l 1,16,17
 143 303 143 303 121.5 303 c 128,-1,18
 100 303 100 303 92 301 c 1,19,-1
 79 303 l 1,20,-1
 83 324 l 2,21,22
 88 347 88 347 95 350.5 c 128,-1,23
 102 354 102 354 147 354 c 2,24,-1
 164 354 l 1,25,-1
 162 369 l 1,26,27
 181 468 181 468 212.5 506.5 c 128,-1,28
 244 545 244 545 321 545 c 1,29,-1
 419 538 l 1,30,31
 413 504 413 504 405.5 498 c 128,-1,32
 398 492 398 492 361 492 c 2,33,-1
 312 492 l 2,34,35
 271 492 271 492 252 464.5 c 128,-1,36
 233 437 233 437 219 366 c 1,37,-1
 211 350 l 1,38,39
 300 343 300 343 316.5 343 c 128,-1,40
 333 343 333 343 348 346 c 1,41,-1
 361 344 l 1,42,-1
 358 323 l 2,43,44
 355 301 355 301 346.5 297 c 128,-1,45
 338 293 338 293 299 293 c 128,-1,46
 260 293 260 293 205 298 c 1,47,-1
 207 288 l 1,48,-1
 203 263 l 1,49,-1
 197 250 l 1,50,51
 267 244 267 244 291 244 c 128,-1,52
 315 244 315 244 330 247 c 1,53,-1
 342 245 l 1,54,-1
 339 224 l 2,55,56
 336 202 336 202 327.5 198 c 128,-1,57
 319 194 319 194 287 194 c 128,-1,58
 255 194 255 194 189 198 c 1,59,-1
 191 186 l 1,60,61
 185 132 185 132 185 106 c 0,62,63
 185 47 185 47 242 47 c 2,64,-1
 341 47 l 1,65,-1
 334 1 l 1,66,-1
 234 -6 l 1,67,0
 173 -6 173 -6 149.5 18 c 128,-1,1
EndSplineSet
EndChar

StartChar: trademark
Encoding: 8482 8482 232
Width: 540
GlyphClass: 2
Flags: W
LayerCount: 2
Fore
SplineSet
537 372 m 1,0,-1
 494 372 l 1,1,-1
 538 650 l 1,2,-1
 462 522 l 1,3,-1
 412 522 l 1,4,-1
 375 650 l 1,5,-1
 331 372 l 1,6,-1
 288 372 l 1,7,-1
 345 732 l 1,8,-1
 388 732 l 1,9,-1
 441 572 l 1,10,-1
 449 572 l 1,11,-1
 551 732 l 1,12,-1
 594 732 l 1,13,-1
 537 372 l 1,0,-1
249 685 m 1,14,-1
 249 667 l 1,15,-1
 202 372 l 1,16,-1
 157 372 l 1,17,-1
 204 667 l 1,18,-1
 209 685 l 1,19,-1
 154 685 l 1,20,-1
 161 732 l 1,21,-1
 312 732 l 1,22,-1
 305 685 l 1,23,-1
 249 685 l 1,14,-1
EndSplineSet
EndChar

StartChar: minus
Encoding: 8722 8722 236
Width: 336
GlyphClass: 2
Flags: W
LayerCount: 2
Fore
SplineSet
321 300 m 1,0,-1
 107 300 l 1,1,-1
 115 351 l 1,2,-1
 329 351 l 1,3,-1
 321 300 l 1,0,-1
EndSplineSet
EndChar

StartChar: fi
Encoding: 64257 64257 245
Width: 411
GlyphClass: 3
Flags: W
LayerCount: 2
Fore
SplineSet
172 537 m 1,0,-1
 172 562 l 1,1,-1
 174 578 l 1,2,3
 181 622 181 622 184 639.5 c 128,-1,4
 187 657 187 657 196.5 680 c 128,-1,5
 206 703 206 703 214 709 c 128,-1,6
 222 715 222 715 243.5 723 c 128,-1,7
 265 731 265 731 288.5 731.5 c 128,-1,8
 312 732 312 732 355 732 c 2,9,-1
 456 732 l 1,10,-1
 449 682 l 1,11,12
 378 682 378 682 336.5 682 c 128,-1,13
 295 682 295 682 279.5 677.5 c 128,-1,14
 264 673 264 673 260.5 669.5 c 128,-1,15
 257 666 257 666 250 650.5 c 128,-1,16
 243 635 243 635 241 622.5 c 128,-1,17
 239 610 239 610 234 578 c 2,18,-1
 232 562 l 1,19,-1
 224 537 l 1,20,-1
 376 537 l 2,21,22
 403 537 403 537 412 533.5 c 128,-1,23
 421 530 421 530 421 519.5 c 128,-1,24
 421 509 421 509 418 491 c 2,25,-1
 341 0 l 1,26,27
 292 0 292 0 288 8 c 0,28,29
 286 12 286 12 286 20 c 128,-1,30
 286 28 286 28 289 46 c 2,31,-1
 358 483 l 1,32,-1
 214 483 l 1,33,-1
 214 458 l 1,34,-1
 119 -143 l 2,35,36
 112 -186 112 -186 103 -193 c 128,-1,37
 94 -200 94 -200 50 -200 c 1,38,-1
 155 458 l 1,39,-1
 163 483 l 1,40,-1
 110 483 l 1,41,-1
 119 537 l 1,42,-1
 172 537 l 1,0,-1
EndSplineSet
Ligature2: "'liga' Standard Ligatures in Latin lookup 0 subtable" f i
EndChar

StartChar: fl
Encoding: 64258 64258 246
Width: 405
GlyphClass: 3
Flags: W
LayerCount: 2
Fore
SplineSet
171 537 m 1,0,-1
 171 562 l 1,1,-1
 173 578 l 1,2,3
 180 622 180 622 183 639.5 c 128,-1,4
 186 657 186 657 195.5 680 c 128,-1,5
 205 703 205 703 213 709 c 128,-1,6
 221 715 221 715 242.5 723 c 128,-1,7
 264 731 264 731 287.5 731.5 c 128,-1,8
 311 732 311 732 354 732 c 2,9,-1
 396 732 l 2,10,11
 445 732 445 732 449 724 c 0,12,13
 451 720 451 720 451 712 c 128,-1,14
 451 704 451 704 448 686 c 2,15,-1
 340 0 l 1,16,17
 291 0 291 0 287 8 c 0,18,19
 285 12 285 12 285 20 c 128,-1,20
 285 28 285 28 288 46 c 2,21,-1
 389 682 l 1,22,23
 347 682 347 682 320.5 682 c 128,-1,24
 294 682 294 682 278.5 677.5 c 128,-1,25
 263 673 263 673 259.5 669.5 c 128,-1,26
 256 666 256 666 249 650.5 c 128,-1,27
 242 635 242 635 240 622.5 c 128,-1,28
 238 610 238 610 233 578 c 2,29,-1
 231 562 l 1,30,-1
 223 537 l 1,31,-1
 292 537 l 1,32,-1
 283 483 l 1,33,-1
 213 483 l 1,34,-1
 213 458 l 1,35,-1
 118 -143 l 2,36,37
 111 -186 111 -186 102 -193 c 128,-1,38
 93 -200 93 -200 49 -200 c 1,39,-1
 154 458 l 1,40,-1
 162 483 l 1,41,-1
 109 483 l 1,42,-1
 118 537 l 1,43,-1
 171 537 l 1,0,-1
EndSplineSet
Ligature2: "'liga' Standard Ligatures in Latin lookup 0 subtable" f l
EndChar

StartChar: f_f_i
Encoding: 64259 64259 247
Width: 574
GlyphClass: 3
Flags: W
LayerCount: 2
Fore
SplineSet
197 483 m 1,0,-1
 197 453 l 1,1,-1
 125 0 l 1,2,3
 108 -96 108 -96 96 -116 c 128,-1,4
 84 -136 84 -136 69 -153.5 c 128,-1,5
 54 -171 54 -171 36 -180 c 0,6,7
 -9 -200 -9 -200 -72 -200 c 1,8,-1
 -65 -156 l 1,9,10
 -26 -156 -26 -156 -2.5 -147.5 c 128,-1,11
 21 -139 21 -139 35 -116 c 128,-1,12
 49 -93 49 -93 55 -69.5 c 128,-1,13
 61 -46 61 -46 68 0 c 2,14,-1
 138 453 l 1,15,-1
 148 483 l 1,16,-1
 94 483 l 1,17,-1
 103 537 l 1,18,-1
 156 537 l 1,19,-1
 156 567 l 1,20,-1
 158 578 l 1,21,22
 173 672 173 672 190 689 c 0,23,24
 217 718 217 718 240 722 c 0,25,26
 291 731 291 731 351 731 c 1,27,-1
 344 684 l 1,28,29
 266 684 266 684 248 668.5 c 128,-1,30
 230 653 230 653 218 578 c 1,31,-1
 207 537 l 1,32,-1
 346 537 l 1,33,-1
 346 567 l 1,34,-1
 348 578 l 1,35,36
 363 672 363 672 380 689 c 0,37,38
 407 718 407 718 430 722 c 0,39,40
 481 731 481 731 541 731 c 2,41,-1
 623 731 l 1,42,-1
 615 684 l 1,43,-1
 534 684 l 2,44,45
 456 684 456 684 438 668.5 c 128,-1,46
 420 653 420 653 408 578 c 1,47,-1
 397 537 l 1,48,-1
 487 537 l 1,49,-1
 478 483 l 1,50,-1
 387 483 l 1,51,-1
 387 453 l 1,52,-1
 315 0 l 1,53,54
 298 -96 298 -96 286 -116 c 128,-1,55
 274 -136 274 -136 259 -153.5 c 128,-1,56
 244 -171 244 -171 226 -180 c 0,57,58
 181 -200 181 -200 118 -200 c 1,59,-1
 125 -156 l 1,60,61
 164 -156 164 -156 187.5 -147.5 c 128,-1,62
 211 -139 211 -139 225 -116 c 128,-1,63
 239 -93 239 -93 245 -69.5 c 128,-1,64
 251 -46 251 -46 258 0 c 2,65,-1
 328 453 l 1,66,-1
 338 483 l 1,67,-1
 197 483 l 1,0,-1
446 4 m 0,68,69
 444 8 444 8 444 16 c 128,-1,70
 444 24 444 24 526 537 c 1,71,72
 561 537 561 537 571 534.5 c 128,-1,73
 581 532 581 532 581 523.5 c 128,-1,74
 581 515 581 515 577 491 c 2,75,-1
 499 -4 l 1,76,77
 450 -4 450 -4 446 4 c 0,68,69
EndSplineSet
Ligature2: "'liga' Standard Ligatures in Latin lookup 0 subtable" f f i
EndChar

StartChar: f_f_l
Encoding: 64260 64260 248
Width: 562
GlyphClass: 3
Flags: W
LayerCount: 2
Fore
SplineSet
197 483 m 1,0,-1
 197 453 l 1,1,-1
 125 0 l 1,2,3
 108 -96 108 -96 96 -116 c 128,-1,4
 84 -136 84 -136 69 -153.5 c 128,-1,5
 54 -171 54 -171 36 -180 c 0,6,7
 -9 -200 -9 -200 -72 -200 c 1,8,-1
 -65 -156 l 1,9,10
 -26 -156 -26 -156 -2.5 -147.5 c 128,-1,11
 21 -139 21 -139 35 -116 c 128,-1,12
 49 -93 49 -93 55 -69.5 c 128,-1,13
 61 -46 61 -46 68 0 c 2,14,-1
 138 453 l 1,15,-1
 148 483 l 1,16,-1
 94 483 l 1,17,-1
 103 537 l 1,18,-1
 156 537 l 1,19,-1
 156 567 l 1,20,-1
 158 578 l 1,21,22
 173 672 173 672 190 689 c 0,23,24
 217 718 217 718 240 722 c 0,25,26
 291 731 291 731 351 731 c 1,27,-1
 344 684 l 1,28,29
 266 684 266 684 248 668.5 c 128,-1,30
 230 653 230 653 218 578 c 1,31,-1
 207 537 l 1,32,-1
 344 537 l 1,33,-1
 344 567 l 1,34,-1
 346 578 l 1,35,36
 361 672 361 672 378 689 c 0,37,38
 405 718 405 718 428 722 c 0,39,40
 479 731 479 731 539 731 c 2,41,-1
 572 731 l 2,42,43
 621 731 621 731 625 723 c 0,44,45
 627 719 627 719 627 711 c 128,-1,46
 627 703 627 703 515 -4 c 1,47,48
 466 -4 466 -4 462 4 c 0,49,50
 460 8 460 8 460 16 c 128,-1,51
 460 24 460 24 564 684 c 1,52,-1
 531 684 l 2,53,54
 454 684 454 684 436 668.5 c 128,-1,55
 418 653 418 653 406 578 c 1,56,-1
 395 537 l 1,57,-1
 485 537 l 1,58,-1
 476 483 l 1,59,-1
 385 483 l 1,60,-1
 385 453 l 1,61,-1
 313 0 l 1,62,63
 296 -96 296 -96 284 -116 c 128,-1,64
 272 -136 272 -136 257 -153.5 c 128,-1,65
 242 -171 242 -171 224 -180 c 0,66,67
 179 -200 179 -200 116 -200 c 1,68,-1
 123 -156 l 1,69,70
 162 -156 162 -156 185.5 -147.5 c 128,-1,71
 209 -139 209 -139 223 -116 c 128,-1,72
 237 -93 237 -93 243 -69.5 c 128,-1,73
 249 -46 249 -46 256 0 c 2,74,-1
 326 453 l 1,75,-1
 336 483 l 1,76,-1
 197 483 l 1,0,-1
EndSplineSet
Ligature2: "'liga' Standard Ligatures in Latin lookup 0 subtable" f f l
EndChar

StartChar: f_u
Encoding: 65539 -1 249
Width: 545
GlyphClass: 3
Flags: W
LayerCount: 2
Fore
SplineSet
255 16.5 m 128,-1,1
 232 40 232 40 232 90 c 128,-1,2
 232 140 232 140 253 271 c 2,3,-1
 287 483 l 1,4,-1
 197 483 l 1,5,-1
 197 453 l 1,6,-1
 125 0 l 1,7,8
 108 -96 108 -96 96 -116 c 128,-1,9
 84 -136 84 -136 69 -153.5 c 128,-1,10
 54 -171 54 -171 36 -180 c 0,11,12
 -9 -200 -9 -200 -72 -200 c 1,13,-1
 -65 -156 l 1,14,15
 -26 -156 -26 -156 -2.5 -147.5 c 128,-1,16
 21 -139 21 -139 35 -116 c 128,-1,17
 49 -93 49 -93 55 -69.5 c 128,-1,18
 61 -46 61 -46 68 0 c 2,19,-1
 138 453 l 1,20,-1
 148 483 l 1,21,-1
 94 483 l 1,22,-1
 103 537 l 1,23,-1
 156 537 l 1,24,-1
 156 567 l 1,25,-1
 158 578 l 1,26,27
 173 672 173 672 190 689 c 0,28,29
 217 718 217 718 240 722 c 0,30,31
 291 731 291 731 351 731 c 1,32,-1
 344 684 l 1,33,34
 266 684 266 684 248 668.5 c 128,-1,35
 230 653 230 653 218 578 c 1,36,-1
 207 537 l 1,37,-1
 297 537 l 2,38,39
 332 537 332 537 341.5 534.5 c 128,-1,40
 351 532 351 532 351 523.5 c 128,-1,41
 351 515 351 515 347 491 c 2,42,-1
 313 273 l 2,43,44
 294 148 294 148 294 116 c 0,45,46
 294 46 294 46 340 46 c 1,47,-1
 448 111 l 1,48,-1
 448 136 l 1,49,-1
 512 537 l 1,50,51
 547 537 547 537 557 534.5 c 128,-1,52
 567 532 567 532 567 523.5 c 128,-1,53
 567 515 567 515 563 491 c 2,54,-1
 486 0 l 1,55,56
 450 0 450 0 440 2.5 c 128,-1,57
 430 5 430 5 430 17 c 1,58,-1
 436 59 l 1,59,-1
 335 -7 l 1,60,0
 278 -7 278 -7 255 16.5 c 128,-1,1
EndSplineSet
Ligature2: "'liga' Standard Ligatures in Latin lookup 0 subtable" f u
EndChar

StartChar: f_t
Encoding: 65540 -1 250
Width: 430
GlyphClass: 3
Flags: W
LayerCount: 2
Fore
SplineSet
265.5 12 m 128,-1,1
 248 29 248 29 248 68 c 128,-1,2
 248 107 248 107 338 684 c 1,3,4
 263 684 263 684 246.5 669 c 128,-1,5
 230 654 230 654 218 578 c 2,6,-1
 125 0 l 1,7,8
 108 -96 108 -96 96 -116 c 128,-1,9
 84 -136 84 -136 69 -153.5 c 128,-1,10
 54 -171 54 -171 36 -180 c 0,11,12
 -9 -200 -9 -200 -72 -200 c 1,13,-1
 -65 -156 l 1,14,15
 -26 -156 -26 -156 -2.5 -147.5 c 128,-1,16
 21 -139 21 -139 35 -116 c 128,-1,17
 49 -93 49 -93 55 -69.5 c 128,-1,18
 61 -46 61 -46 68 0 c 2,19,-1
 138 453 l 1,20,-1
 148 483 l 1,21,-1
 94 483 l 1,22,-1
 103 537 l 1,23,-1
 156 537 l 1,24,-1
 156 567 l 1,25,-1
 158 578 l 1,26,27
 175 683 175 683 198 700 c 0,28,29
 230 725 230 725 267 728.5 c 128,-1,30
 304 732 304 732 334.5 732 c 128,-1,31
 365 732 365 732 373 731.5 c 128,-1,32
 381 731 381 731 388 730 c 0,33,34
 400 727 400 727 400 715.5 c 128,-1,35
 400 704 400 704 371 537 c 1,36,-1
 463 537 l 1,37,38
 457 500 457 500 449 491.5 c 128,-1,39
 441 483 441 483 406 483 c 2,40,-1
 362 483 l 1,41,-1
 362 458 l 1,42,43
 307 106 307 106 308 88 c 1,44,45
 308 46 308 46 337 46 c 2,46,-1
 405 46 l 1,47,-1
 398 0 l 1,48,-1
 328 -5 l 1,49,0
 283 -5 283 -5 265.5 12 c 128,-1,1
EndSplineSet
Ligature2: "'liga' Standard Ligatures in Latin lookup 0 subtable" f t
EndChar

StartChar: x_t
Encoding: 65541 -1 251
Width: 529
GlyphClass: 3
Flags: W
LayerCount: 2
Fore
SplineSet
399.5 12 m 128,-1,1
 382 29 382 29 382 68 c 128,-1,2
 382 107 382 107 401 228 c 2,3,-1
 437 458 l 1,4,-1
 445 483 l 1,5,-1
 342 483 l 1,6,7
 305 406 305 406 237 281 c 1,8,-1
 298 0 l 1,9,-1
 241 0 l 1,10,-1
 197 226 l 1,11,-1
 185 226 l 1,12,-1
 72 0 l 1,13,14
 42 0 42 0 32 1.5 c 128,-1,15
 22 3 22 3 22 10 c 0,16,17
 22 12 22 12 40 46 c 2,18,-1
 166 292 l 1,19,-1
 116 537 l 1,20,21
 158 537 158 537 167 531.5 c 128,-1,22
 176 526 176 526 184 493 c 1,23,-1
 209 347 l 1,24,-1
 221 347 l 1,25,-1
 309 537 l 1,26,-1
 454 537 l 1,27,-1
 458 572 l 1,28,-1
 464 616 l 1,29,30
 513 616 513 616 517 608 c 0,31,32
 519 604 519 604 519 596 c 128,-1,33
 519 588 519 588 516 570 c 1,34,-1
 505 537 l 1,35,-1
 597 537 l 1,36,37
 591 500 591 500 583 491.5 c 128,-1,38
 575 483 575 483 540 483 c 2,39,-1
 496 483 l 1,40,-1
 496 458 l 1,41,-1
 460 228 l 2,42,43
 441 105 441 105 442 88 c 1,44,45
 442 46 442 46 471 46 c 2,46,-1
 539 46 l 1,47,-1
 532 0 l 1,48,-1
 462 -5 l 1,49,0
 417 -5 417 -5 399.5 12 c 128,-1,1
EndSplineSet
Ligature2: "'liga' Standard Ligatures in Latin lookup 0 subtable" x t
EndChar

StartChar: o_t
Encoding: 65542 -1 252
Width: 650
GlyphClass: 3
Flags: W
LayerCount: 2
Fore
SplineSet
474.5 12 m 128,-1,1
 457 29 457 29 457 68 c 128,-1,2
 457 107 457 107 476 228 c 2,3,-1
 512 465 l 1,4,-1
 520 490 l 1,5,-1
 380 490 l 1,6,7
 386 469 386 469 386 417.5 c 128,-1,8
 386 366 386 366 376.5 293.5 c 128,-1,9
 367 221 367 221 346 150 c 128,-1,10
 325 79 325 79 283.5 36 c 128,-1,11
 242 -7 242 -7 181.5 -7 c 128,-1,12
 121 -7 121 -7 96.5 17 c 128,-1,13
 72 41 72 41 72 108.5 c 128,-1,14
 72 176 72 176 81 247.5 c 128,-1,15
 90 319 90 319 111 389 c 128,-1,16
 132 459 132 459 173.5 501.5 c 128,-1,17
 215 544 215 544 273 544 c 2,18,-1
 529 544 l 1,19,-1
 539 616 l 1,20,21
 588 616 588 616 592 608 c 0,22,23
 594 604 594 604 594 596 c 128,-1,24
 594 588 594 588 591 570 c 1,25,-1
 580 544 l 1,26,-1
 672 544 l 1,27,28
 666 507 666 507 658 498.5 c 128,-1,29
 650 490 650 490 615 490 c 2,30,-1
 571 490 l 1,31,-1
 571 465 l 1,32,-1
 535 228 l 2,33,34
 516 105 516 105 517 88 c 1,35,36
 517 46 517 46 546 46 c 2,37,-1
 614 46 l 1,38,-1
 607 0 l 1,39,-1
 537 -5 l 1,40,0
 492 -5 492 -5 474.5 12 c 128,-1,1
194 46 m 128,-1,42
 228 46 228 46 255 89.5 c 128,-1,43
 282 133 282 133 296 196 c 0,44,45
 325 321 325 321 325 421 c 0,46,47
 325 459 325 459 311.5 475 c 128,-1,48
 298 491 298 491 264 491 c 128,-1,49
 230 491 230 491 203 449 c 128,-1,50
 176 407 176 407 162 345 c 0,51,52
 133 223 133 223 133 117 c 0,53,54
 133 79 133 79 146.5 62.5 c 128,-1,41
 160 46 160 46 194 46 c 128,-1,42
EndSplineSet
Ligature2: "'liga' Standard Ligatures in Latin lookup 0 subtable" o t
EndChar

StartChar: c_s
Encoding: 65543 -1 253
Width: 548
GlyphClass: 3
Flags: W
LayerCount: 2
Fore
SplineSet
286 495 m 2,0,-1
 240 496 l 2,1,2
 205 496 205 496 178.5 413 c 128,-1,3
 152 330 152 330 142 247.5 c 128,-1,4
 132 165 132 165 132 122 c 128,-1,5
 132 79 132 79 144.5 62.5 c 128,-1,6
 157 46 157 46 188 46 c 1,7,-1
 300 52 l 1,8,-1
 419 51 l 1,9,10
 450 52 450 52 469.5 89.5 c 128,-1,11
 489 127 489 127 489 171 c 0,12,13
 489 176 489 176 488.5 186.5 c 128,-1,14
 488 197 488 197 472.5 216.5 c 128,-1,15
 457 236 457 236 435 254 c 128,-1,16
 413 272 413 272 391 292 c 0,17,18
 339 339 339 339 337 391 c 1,19,20
 337 441 337 441 350.5 474.5 c 128,-1,21
 364 508 364 508 378 518 c 0,22,23
 413 544 413 544 476 546 c 1,24,-1
 569 535 l 1,25,26
 564 491 564 491 529 489 c 0,27,28
 524 489 524 489 514 491 c 2,29,-1
 474 495 l 1,30,31
 395 492 395 492 395 416 c 0,32,33
 395 367 395 367 473 306 c 0,34,35
 502 284 502 284 526 254 c 0,36,37
 552 222 552 222 552 184.5 c 128,-1,38
 552 147 552 147 540 105 c 128,-1,39
 528 63 528 63 494.5 28.5 c 128,-1,40
 461 -6 461 -6 412 -7 c 1,41,-1
 294 -1 l 1,42,-1
 179 -7 l 1,43,44
 119 -7 119 -7 95 17 c 128,-1,45
 71 41 71 41 71 96 c 128,-1,46
 71 151 71 151 78.5 220 c 128,-1,47
 86 289 86 289 103 367 c 128,-1,48
 120 445 120 445 154.5 497.5 c 128,-1,49
 189 550 189 550 235 550 c 1,50,-1
 247 552 l 1,51,52
 266 552 266 552 328 540 c 1,53,54
 320 495 320 495 286 495 c 2,0,-1
EndSplineSet
Ligature2: "'liga' Standard Ligatures in Latin lookup 0 subtable" c s
EndChar

StartChar: E_S
Encoding: 65544 -1 254
Width: 700
GlyphClass: 3
Flags: W
LayerCount: 2
Fore
SplineSet
706 670 m 1,0,-1
 693 671 l 1,1,-1
 638 677 l 1,2,3
 568 677 568 677 542 646.5 c 128,-1,4
 516 616 516 616 516 559 c 0,5,6
 516 524 516 524 547 484.5 c 128,-1,7
 578 445 578 445 615 414 c 128,-1,8
 652 383 652 383 683 339.5 c 128,-1,9
 714 296 714 296 714 253 c 0,10,11
 714 -5 714 -5 504 -6 c 1,12,-1
 75 0 l 1,13,-1
 189 720 l 1,14,-1
 422 720 l 1,15,-1
 413 667 l 1,16,-1
 242 667 l 1,17,-1
 242 642 l 1,18,-1
 211 443 l 1,19,-1
 203 418 l 1,20,-1
 360 418 l 1,21,-1
 351 361 l 1,22,-1
 194 361 l 1,23,-1
 194 336 l 1,24,-1
 153 82 l 1,25,-1
 146 57 l 1,26,-1
 516 59 l 2,27,28
 598 59 598 59 625 114 c 0,29,30
 648 160 648 160 648 231 c 0,31,32
 648 262 648 262 617 301.5 c 128,-1,33
 586 341 586 341 549 374.5 c 128,-1,34
 512 408 512 408 481 455 c 128,-1,35
 450 502 450 502 450 546 c 0,36,37
 450 641 450 641 488.5 686.5 c 128,-1,38
 527 732 527 732 635 732 c 0,39,40
 638 732 638 732 640 732 c 2,41,-1
 743 712 l 1,42,43
 739 687 739 687 730.5 678.5 c 128,-1,44
 722 670 722 670 706 670 c 1,0,-1
EndSplineSet
Ligature2: "'liga' Standard Ligatures in Latin lookup 0 subtable" E S
EndChar

StartChar: E_s
Encoding: 65545 -1 255
Width: 599
GlyphClass: 3
Flags: W
LayerCount: 2
Fore
SplineSet
242 667 m 1,0,-1
 242 642 l 1,1,-1
 211 443 l 1,2,-1
 203 418 l 1,3,-1
 360 418 l 1,4,-1
 351 361 l 1,5,-1
 194 361 l 1,6,-1
 194 336 l 1,7,-1
 153 82 l 1,8,-1
 146 57 l 1,9,-1
 363 53 l 1,10,-1
 482 51 l 1,11,12
 513 52 513 52 532.5 89.5 c 128,-1,13
 552 127 552 127 552 171 c 0,14,15
 552 176 552 176 551.5 186.5 c 128,-1,16
 551 197 551 197 535.5 216.5 c 128,-1,17
 520 236 520 236 498 254 c 128,-1,18
 476 272 476 272 454 292 c 0,19,20
 402 339 402 339 400 391 c 1,21,22
 400 441 400 441 413.5 474.5 c 128,-1,23
 427 508 427 508 440 518 c 0,24,25
 476 544 476 544 539 546 c 1,26,-1
 632 535 l 1,27,28
 627 491 627 491 592 489 c 0,29,30
 587 489 587 489 577 491 c 2,31,-1
 537 495 l 1,32,33
 458 492 458 492 458 416 c 0,34,35
 458 367 458 367 536 306 c 0,36,37
 565 284 565 284 590 254 c 1,38,39
 615 222 615 222 615 184.5 c 128,-1,40
 615 147 615 147 603 105.5 c 128,-1,41
 591 64 591 64 557.5 29.5 c 128,-1,42
 524 -5 524 -5 475 -6 c 1,43,-1
 75 0 l 1,44,-1
 189 720 l 1,45,-1
 422 720 l 1,46,-1
 413 667 l 1,47,-1
 242 667 l 1,0,-1
EndSplineSet
Ligature2: "'liga' Standard Ligatures in Latin lookup 0 subtable" E s
EndChar

